<svg xmlns="http://www.w3.org/2000/svg" width="47.727" height="50" viewBox="0 0 47.727 50"><defs><style>.a{fill:#f6bf65;}</style></defs><g transform="translate(-8.985 -7.035)"><path class="a" d="M70.926,57.209a1.137,1.137,0,0,1-.95-1.759c.055-.084.125-.189.207-.311,2.1-3.134,3.159-5.364,3.159-6.625,0-.47-.107-.6-.568-.675A1.137,1.137,0,1,1,73.16,45.6a2.756,2.756,0,0,1,2.457,2.916c0,2.3-1.893,5.423-3.543,7.889-.077.116-.145.216-.2.3a1.137,1.137,0,0,1-.952.511Z" transform="translate(-25.426 -16.118)"/><path class="a" d="M70.253,57.392H58.918a1.137,1.137,0,0,1-1.13-1.011c-.032-.3-.05-.766-.05-1.439,0-1.477.082-3.634.161-4.273a26.679,26.679,0,0,1,3.193-8.093c1.5-2.6,3.791-5.668,6.357-5.891a24.952,24.952,0,0,1-.966-6.378,10.951,10.951,0,0,1,.166-2.011c.309-1.7,1.727-4.1,3.916-4.1a2.913,2.913,0,0,1,.748.1c.936.248,1.741,1.1,2.532,2.693a26.411,26.411,0,0,1,1.659,4.575A42.166,42.166,0,0,1,77.1,41.641a8.773,8.773,0,0,1-.2,2.1,13.482,13.482,0,0,1-.45,1.441,1.136,1.136,0,0,1-2.127-.8,11.573,11.573,0,0,0,.375-1.2,6.539,6.539,0,0,0,.134-1.541,40.362,40.362,0,0,0-1.47-9.328c-1.2-4.4-2.327-5.712-2.627-5.828a.633.633,0,0,0-.164-.02c-.675,0-1.5,1.25-1.682,2.236a8.949,8.949,0,0,0-.127,1.6,23.227,23.227,0,0,0,1.48,7.569,1.136,1.136,0,0,1-1.807,1.273.971.971,0,0,0-.486-.186l-.011,0a1.039,1.039,0,0,0-.189-.016c-.936,0-2.657,1.252-4.682,4.766a24.364,24.364,0,0,0-2.9,7.235c-.061.5-.143,2.559-.143,4v.177h9.146a11.132,11.132,0,0,1,2.3-6.214A1.136,1.136,0,1,1,73.3,50.235a9.2,9.2,0,0,0-1.911,6.023,1.136,1.136,0,0,1-1.134,1.134Z" transform="translate(-20.387 -7.176)"/><path class="a" d="M71.769,86.435H57A1.137,1.137,0,0,1,55.859,85.3V78.48A1.137,1.137,0,0,1,57,77.344H71.769a1.137,1.137,0,0,1,1.136,1.136V85.3A1.137,1.137,0,0,1,71.769,86.435ZM58.132,84.162h12.5V79.617h-12.5Z" transform="translate(-19.601 -29.4)"/><path class="a" d="M76.527,85.476a1.141,1.141,0,1,1,.8-.334A1.151,1.151,0,0,1,76.527,85.476Z" transform="translate(-27.768 -31.85)"/><path class="a" d="M24.887,57.207a1.137,1.137,0,0,1-.952-.514c-.052-.08-.118-.177-.2-.3C22.089,53.932,20.2,50.8,20.2,48.509a2.758,2.758,0,0,1,2.457-2.916,1.137,1.137,0,0,1,.386,2.241c-.464.08-.568.207-.568.675,0,1.261,1.064,3.491,3.162,6.625.082.123.152.227.207.311a1.136,1.136,0,0,1-.327,1.573,1.123,1.123,0,0,1-.625.189Z" transform="translate(-4.688 -16.116)"/><path class="a" d="M27.167,57.4H15.833A1.136,1.136,0,0,1,14.7,56.268a9.216,9.216,0,0,0-1.911-6.023,1.136,1.136,0,1,1,1.839-1.334,11.13,11.13,0,0,1,2.3,6.214h9.146V54.95c0-1.436-.082-3.5-.143-3.993a24.392,24.392,0,0,0-2.9-7.239C21,40.2,19.278,38.952,18.342,38.952a1.04,1.04,0,0,0-.189.016l-.011,0a.958.958,0,0,0-.484.186,1.136,1.136,0,0,1-1.807-1.273,23.29,23.29,0,0,0,1.48-7.571,8.861,8.861,0,0,0-.127-1.6c-.18-.991-1.007-2.241-1.682-2.241a.657.657,0,0,0-.173.023c-.289.111-1.416,1.43-2.616,5.823a40.136,40.136,0,0,0-1.475,9.328,6.5,6.5,0,0,0,.134,1.539,10.892,10.892,0,0,0,.375,1.2,1.136,1.136,0,0,1-2.127.8,13.358,13.358,0,0,1-.45-1.443,8.6,8.6,0,0,1-.2-2.1,42.181,42.181,0,0,1,1.593-10.08,26.6,26.6,0,0,1,1.659-4.575c.793-1.591,1.6-2.448,2.53-2.693a2.943,2.943,0,0,1,.75-.1c2.189,0,3.609,2.4,3.918,4.1a11.053,11.053,0,0,1,.164,2,24.921,24.921,0,0,1-.966,6.378c2.566.22,4.862,3.3,6.357,5.891a26.632,26.632,0,0,1,3.193,8.1c.08.634.159,2.791.159,4.268,0,.673-.016,1.143-.048,1.436A1.133,1.133,0,0,1,27.168,57.4Z" transform="translate(0 -7.179)"/><path class="a" d="M30.754,86.435H15.98A1.137,1.137,0,0,1,14.844,85.3V78.48a1.137,1.137,0,0,1,1.136-1.136H30.754A1.137,1.137,0,0,1,31.89,78.48V85.3A1.137,1.137,0,0,1,30.754,86.435ZM17.117,84.162h12.5V79.617h-12.5Z" transform="translate(-2.45 -29.4)"/><path class="a" d="M21.839,85.476A1.137,1.137,0,0,1,20.7,84.339a1.163,1.163,0,0,1,.332-.8,1.141,1.141,0,0,1,1.609,0,1.138,1.138,0,0,1-.8,1.941Z" transform="translate(-4.9 -31.85)"/><path class="a" d="M45.684,26.316a1.137,1.137,0,0,1-.964-.534,35.049,35.049,0,0,0-2.621-3.45c-2.027-2.457-4.123-5-4.123-7.614a7.681,7.681,0,1,1,15.362,0c0,2.589-2.1,5.166-4.127,7.659a35.394,35.394,0,0,0-2.559,3.4,1.134,1.134,0,0,1-.964.536h0Zm-.027-17.01a5.417,5.417,0,0,0-5.412,5.409c0,1.8,1.832,4.021,3.6,6.169.62.75,1.252,1.518,1.83,2.291.557-.75,1.166-1.5,1.764-2.234,1.777-2.184,3.616-4.443,3.616-6.225a5.411,5.411,0,0,0-5.4-5.409Z" transform="translate(-12.123 0)"/><path class="a" d="M43.118,44.007a1.135,1.135,0,0,1-.9-1.827c.5-.652,1.043-1.311,1.568-1.948A35.061,35.061,0,0,0,46.4,36.8a1.135,1.135,0,0,1,1.927,0,34.671,34.671,0,0,0,2.534,3.366c.518.636,1.055,1.3,1.55,1.948A1.137,1.137,0,0,1,50.6,43.487c-.473-.623-1-1.266-1.5-1.886-.589-.723-1.189-1.461-1.739-2.2-.575.768-1.2,1.532-1.818,2.28-.511.62-1.041,1.264-1.518,1.884a1.137,1.137,0,0,1-.9.443Z" transform="translate(-13.799 -12.221)"/></g></svg>