<svg xmlns="http://www.w3.org/2000/svg" width="50" height="48.225" viewBox="0 0 50 48.225"><defs><style>.a{fill:#f6bf65;}</style></defs><g transform="translate(-2.235 -3.934)"><path class="a" d="M10.422,71.06a.781.781,0,0,0-1.527.331c.943,4.335,3.889,8.119,5.044,8.119A.782.782,0,0,0,14.4,78.1c-1.773-1.307-3.335-4.069-3.981-7.039Z" transform="translate(-3.165 -31.698)"/><path class="a" d="M48.085,9.322V4.715a.781.781,0,0,0-.781-.781H31.784A.781.781,0,0,0,31,4.715v4.6c-4.279,7.277-4.149,6.944-4.149,7.25v8.473c-3.96-1.446-5.858.667-8.275.977a8.974,8.974,0,0,1,.585-1.93A5.708,5.708,0,0,1,23.548,20.5a.782.782,0,1,0-.286-1.538,7.012,7.012,0,0,0-4.22,2.417A6.766,6.766,0,0,0,17.3,17.713a7.92,7.92,0,0,0-5.5-1.891,8.377,8.377,0,0,0-.846.037.783.783,0,0,0-.691.691c-.018.166-.415,4.077,1.854,6.346A7.7,7.7,0,0,0,17.3,24.785c-.119.413-.221.828-.3,1.247-2.484-.262-3.41-1.82-6.723-1.417-5.4.664-8.792,6.653-7.9,13.93C3.316,46.2,8.442,52.351,13.6,51.7a6.977,6.977,0,0,0,4.116-2.149c2.509,2.562,5.9,3,9.137.683v1.137a.781.781,0,0,0,.781.781l23.818,0a.781.781,0,0,0,.781-.781c-.025-36.978.051-34.8-.053-35.079-.072-.194-.321-.554-4.093-6.976Zm-16.3,1.746.045.076,2.746,4.643H29Zm4.611,4.717-3.239-5.469H46.859l3.226,5.469ZM32.565,5.5H46.523V8.753H32.565ZM11.791,17.381A6.44,6.44,0,0,1,16.2,18.815a5.518,5.518,0,0,1,1.362,3.23l-1.585-1.585a.781.781,0,0,0-1.1,0c-.867.865.83,1.738,1.583,2.689a5.571,5.571,0,0,1-3.228-1.36A6.456,6.456,0,0,1,11.791,17.381ZM22.01,50.152a5.719,5.719,0,0,1-3.686-2.261.761.761,0,0,0-.607-.29.779.779,0,0,0-.605.288,5.766,5.766,0,0,1-3.7,2.263c-4.245.532-8.657-5.087-9.479-11.8-.783-6.394,2.028-11.634,6.539-12.19,2.9-.352,3.449,1.1,6.338,1.417a16.649,16.649,0,0,0,.016,2.811,5.675,5.675,0,0,1-1.27-.348.782.782,0,0,0-.652,1.421,7.208,7.208,0,0,0,2.779.562l.027,0h0l.018,0a5.843,5.843,0,0,0,2.515-.566.782.782,0,0,0-.685-1.407,3.976,3.976,0,0,1-1.163.354,17.022,17.022,0,0,1-.029-2.811,8.426,8.426,0,0,0,3.03-.814,6.291,6.291,0,0,1,7.737,1.72c5.8,6.759.18,22.552-7.121,21.65ZM28.416,48.9c5.891-6.119,6.759-18.739,0-23.1V17.347h6.743V50.592H28.416Zm8.309,1.7V17.347H50.669V50.594Z" transform="translate(0 0)"/></g></svg>