<svg xmlns="http://www.w3.org/2000/svg" width="63.801" height="36.678" viewBox="0 0 63.801 36.678">
  <g id="np_payment_3596163_0FC1E7" transform="translate(-19.73 -33.52)">
    <path id="Path_13710" data-name="Path 13710" d="M19.73,63.711H29.765v2.007H19.73Z" transform="translate(0 0.106)" fill="#0fc1e7"/>
    <path id="Path_13711" data-name="Path 13711" d="M24.73,68.07H34.765v2.007H24.73Z" transform="translate(0.018 0.121)" fill="#0fc1e7"/>
    <path id="Path_13712" data-name="Path 13712" d="M61.276,52.6a1.659,1.659,0,0,0-1.137.459,1.626,1.626,0,1,0-1.133,2.791,1.593,1.593,0,0,0,1.125-.463A1.624,1.624,0,1,0,61.264,52.6Z" transform="translate(0.132 0.067)" fill="#0fc1e7"/>
    <path id="Path_13713" data-name="Path 13713" d="M80.637,56.234a1.113,1.113,0,1,1-2.227,0,1.113,1.113,0,1,1,2.227,0" transform="translate(0.206 0.076)" fill="#0fc1e7"/>
    <path id="Path_13714" data-name="Path 13714" d="M75.941,51.532v1.815L67.25,50.058V36.35a2.829,2.829,0,0,0-2.83-2.83H29.83A2.829,2.829,0,0,0,27,36.35V58.216A2.831,2.831,0,0,0,29.83,61.1H51.817a2.984,2.984,0,0,0-.231,1.344,3.107,3.107,0,0,0,3.222,2.909h6.421l6.723,2.771H75.98v2.007h7.526v-18.6ZM29.007,36.35a.823.823,0,0,1,.823-.823H64.42a.823.823,0,0,1,.823.823V41.1H29.008Zm0,6.762H65.243v1.607H29.007ZM29.83,59.09a.823.823,0,0,1-.823-.823V46.726H65.243V58.215a.816.816,0,0,1-.823.823Zm46.11,7.025H68.355L61.64,63.3h-6.9a1.105,1.105,0,0,1-.129-2.207l1-.059h8.82a2.831,2.831,0,0,0,2.83-2.83V52.187L75.96,55.5Zm5.519,2.007H77.947V53.539H81.46Z" transform="translate(0.025 0)" fill="#0fc1e7"/>
  </g>
</svg>
