<svg xmlns="http://www.w3.org/2000/svg" width="52.186" height="58.997" viewBox="0 0 52.186 58.997"><defs><style>.a{fill:#f6bf65;}</style></defs><path class="a" d="M48.349,7A25.2,25.2,0,0,0,23,32,25.2,25.2,0,0,0,48.349,57a25.809,25.809,0,0,0,5.124-.509,1.163,1.163,0,0,0,.091-2.253,23.163,23.163,0,0,1,0-44.495,1.163,1.163,0,0,0-.091-2.253A25.789,25.789,0,0,0,48.349,7Zm0,2.326c.057,0,.107.018.164.018a25.334,25.334,0,0,0,.019,45.313c-.061,0-.118.018-.182.018a22.677,22.677,0,1,1,0-45.349Z" transform="translate(-23.422 21.136) rotate(-30)"/></svg>