<svg xmlns="http://www.w3.org/2000/svg" width="60" height="54.24" viewBox="0 0 60 54.24"><defs><style>.a{fill:#f96;}.b{fill:#fc7f3a;}.c{fill:#dae4ea;}.d{fill:#becccc;}.e{fill:#ffc000;}.f{fill:#352003;}.g{fill:#ff7a41;}.h{fill:#ff9941;}.i{mix-blend-mode:multiply;isolation:isolate;}.j{fill:#e6de94;}.k{fill:#ffa300;}.l{fill:#a6bdd1;}.m{fill:#6b5426;}.n{fill:#fcd930;}.o{fill:#c1d2db;}.p{fill:#d4d1ab;}.q{fill:#fff;}</style></defs><g transform="translate(-132.978 -246.833)"><g transform="translate(133.129 246.965)"><g transform="translate(0)"><path class="a" d="M175.191,293.509c.61,9.4-3.193,14.476-6.971,13.038-4.973-1.9-4.07-4.062-.075-18.212.669-1.5,1.279-3.042,1.839-4.547a8.1,8.1,0,0,0,3.118-.568A41.83,41.83,0,0,1,175.191,293.509Z" transform="translate(-138.356 -252.94)"/><path class="a" d="M191.223,276.317c5.667.995,8.224,5.2,6.92,8.2-1.889,4.363-4.338,5.876-13.674-.309h-.008a55.324,55.324,0,0,0-5.132-4.363,12.146,12.146,0,0,0,2.382-2.491A19.276,19.276,0,0,1,191.223,276.317Z" transform="translate(-140.74 -251.771)"/><path class="a" d="M199.464,264.7c4.2,3.243-2.023,9.637-7.773,9.595a19.276,19.276,0,0,0-9.511,1.036c1.3-1.839,1.8-3.87.744-5.608,4.062-1.061,7.748-3.895,10.957-5.215h.008C195.945,263.65,197.818,263.425,199.464,264.7Z" transform="translate(-141.208 -249.752)"/><path class="a" d="M191.854,252.648c4.3,1.1,5.734,6.72,1.621,10.013h-.008c-3.209,1.321-6.9,4.154-10.957,5.215a3.583,3.583,0,0,0-2.85-1.68,31.672,31.672,0,0,0,2.474-2.524,32.235,32.235,0,0,0,2.909-3.911,10.275,10.275,0,0,0,2.633-.777,8.854,8.854,0,0,1-2.349.334C188.035,255.005,188.962,251.9,191.854,252.648Z" transform="translate(-140.794 -247.902)"/><path class="b" d="M183.715,284.943c4.572,4.4,8.065,9.495,5.7,12.62-3.285,4.354-8.559,5.876-12.579-4.488h-.017a41.829,41.829,0,0,0-2.089-10.289,13.8,13.8,0,0,0,3.845-2.207,55.333,55.333,0,0,1,5.132,4.363Z" transform="translate(-139.985 -252.507)"/><path class="b" d="M163.4,293.172c-2.624,4.63-5.976,8.116-10.347,7.806-5.282-.376-6.828-3.477-4.07-7.581.042,5.107,1.053,8.057,5.9,4.321a38.07,38.07,0,0,0,7.088-8.458A7.661,7.661,0,0,1,163.4,293.172Z" transform="translate(-135.537 -253.932)"/><path class="b" d="M165.74,287c.8-1.279,1.555-2.6,2.232-3.9a4.017,4.017,0,0,0,2.165.669c-.56,1.5-1.17,3.051-1.839,4.547-.468,1.053-.97,2.081-1.5,3.067A8.945,8.945,0,0,0,165.74,287Z" transform="translate(-138.509 -252.921)"/><path class="b" d="M178.1,263.558c1.078-1.312,3.1-1.713,5.123-2.048a24.56,24.56,0,0,1-1.346,3.636,31.672,31.672,0,0,1-2.474,2.524,6.313,6.313,0,0,0-1.2-.008,3.19,3.19,0,0,0,.326-2.975A6.117,6.117,0,0,0,178.1,263.558Z" transform="translate(-140.538 -249.375)"/><path class="b" d="M174.42,253.183c.084-4.655.978-6.377,4.02-6.176,4.087.259,5.926,5.123,4.363,11.425-2.257-.025-4.555-.084-6.168,1.254a13.769,13.769,0,0,0-1.83-2.14c-.109-.1-.209-.2-.318-.284-.042-1-.067-1.931-.067-2.766,1.513-1.287,3.886-2.449,4.814-3.736C178.123,251.8,176.117,252.389,174.42,253.183Z" transform="translate(-139.934 -246.991)"/><path class="b" d="M162.771,261.159q-2.369-.339-4.522-.6c-2.934-3.728-2.917-6.686-.727-8.124,2.482-1.621,6.494-1.245,9.553,3.978-2.115.41-3.535,2.666-3.82,4.747A2.342,2.342,0,0,0,162.771,261.159Z" transform="translate(-136.902 -247.745)"/><path class="c" d="M133.444,263.951c1.872-3.276,8.767-3.368,21.062-1.822q2.156.263,4.522.6a7.607,7.607,0,0,0-2.909.936h-.008a4.608,4.608,0,0,0-2.7,3.41H153.4a11.817,11.817,0,0,0-4.614,1.095c-.234.109-.468.226-.7.359h-.008a11.254,11.254,0,0,0-1.421.978,11.052,11.052,0,0,0-2.633,3.176C141.334,272.326,131.354,267.612,133.444,263.951Z" transform="translate(-133.159 -249.318)"/><path class="c" d="M167.938,269.883a2.99,2.99,0,0,1,.209.618h-.008a5.424,5.424,0,0,1,.117,1.555v.059a16.9,16.9,0,0,1-1.337,5.14c-.2.493-.41,1-.644,1.5-.309.685-.652,1.387-1.011,2.09-.677,1.3-1.429,2.624-2.232,3.9-.259.418-.527.836-.794,1.245a38.07,38.07,0,0,1-7.088,8.458c-4.848,3.736-5.859.786-5.9-4.321.008-.084,0-.176,0-.276,0-.368.008-.761.017-1.153.017-1,.042-1.964.084-2.892.042-.894.109-1.747.226-2.566a13.255,13.255,0,0,1,.894-3.393,9.8,9.8,0,0,1,1.27-2.156,11.341,11.341,0,0,1,2.106-2.089,14.822,14.822,0,0,1,1.3-.9c.284-.176.577-.359.853-.527h.008c.794-.493,1.563-.961,2.315-1.4,4-2.34,7.355-3.87,9.135-3.26a1.311,1.311,0,0,1,.384.167A1.355,1.355,0,0,1,167.938,269.883Z" transform="translate(-135.801 -250.669)"/><path class="d" d="M177.425,265.233a3.19,3.19,0,0,1-.326,2.975c-.811.97-2.558,1.287-5.474.426h-.008a4.4,4.4,0,0,0-.276-.51C173.187,265.426,175.552,264.138,177.425,265.233Z" transform="translate(-139.428 -249.923)"/><path class="e" d="M171.41,270.428a2.382,2.382,0,0,0-.267-1.137c2.917.861,4.664.543,5.474-.426a6.31,6.31,0,0,1,1.2.008,3.583,3.583,0,0,1,2.85,1.68c1.053,1.738.56,3.769-.744,5.608a12.145,12.145,0,0,1-2.382,2.491,13.8,13.8,0,0,1-3.845,2.207,8.1,8.1,0,0,1-3.118.568,4.017,4.017,0,0,1-2.165-.669c.359-.7.7-1.4,1.011-2.09a17.769,17.769,0,0,0,5.909-1.061,14.311,14.311,0,0,1-5.265-.443,16.9,16.9,0,0,0,1.337-5.14c2.415-.226,5.24.359,6.879,2.257C176.96,271.891,174.027,270.721,171.41,270.428Z" transform="translate(-138.947 -250.579)"/><path class="f" d="M186.384,260.584a8.854,8.854,0,0,0,2.349-.334,10.275,10.275,0,0,1-2.633.777A4.378,4.378,0,0,0,186.384,260.584Z" transform="translate(-141.852 -249.169)"/><path class="f" d="M186.077,260.65a4.38,4.38,0,0,1-.284.443c-.51.1-1.036.184-1.563.276.067-.234.134-.46.184-.694C184.974,260.683,185.534,260.683,186.077,260.65Z" transform="translate(-141.545 -249.234)"/><path class="f" d="M183.054,261.372c-2.023.334-4.045.736-5.123,2.048a9.09,9.09,0,0,0-.861-1.488c1.613-1.337,3.911-1.279,6.168-1.254C183.188,260.912,183.121,261.138,183.054,261.372Z" transform="translate(-140.369 -249.237)"/><path class="f" d="M174.419,255.236c-.008-.46-.008-.9,0-1.312,1.7-.794,3.7-1.387,4.814-2.424C178.305,252.787,175.932,253.949,174.419,255.236Z" transform="translate(-139.933 -247.732)"/><path class="f" d="M173.868,255.712a3.47,3.47,0,0,0-1.3,1.772,5.152,5.152,0,0,0-1.513-.593,4.8,4.8,0,0,1,2.808-2.491C173.86,254.81,173.86,255.253,173.868,255.712Z" transform="translate(-139.382 -248.208)"/><path class="f" d="M172.889,258.952c.109.084.209.184.318.284a13.77,13.77,0,0,1,1.83,2.14,9.091,9.091,0,0,1,.861,1.488,6.119,6.119,0,0,1,.435,1.128c-1.872-1.095-4.237.192-6.085,2.892a14.543,14.543,0,0,0-5.2-4.722,1.526,1.526,0,0,0-.359-.067c.284-2.081,1.705-4.338,3.82-4.747a3.809,3.809,0,0,1,1.5.017,5.152,5.152,0,0,1,1.513.593A7.891,7.891,0,0,1,172.889,258.952Z" transform="translate(-138.336 -248.681)"/><path class="f" d="M171.98,272.278a5.933,5.933,0,0,0-.05-1.237.916.916,0,0,0,.059-.3c2.616.293,5.55,1.463,6.87,3.853-1.638-1.9-4.463-2.482-6.879-2.257Z" transform="translate(-139.525 -250.891)"/><path class="f" d="M170.264,278.8a14.31,14.31,0,0,0,5.266.443,17.77,17.77,0,0,1-5.909,1.061C169.854,279.8,170.063,279.293,170.264,278.8Z" transform="translate(-139.146 -252.215)"/><path class="f" d="M165.584,287.77a8.945,8.945,0,0,1,1.053,4.38c-.134.267-.276.518-.418.777a7.661,7.661,0,0,0-1.429-3.911C165.057,288.606,165.325,288.188,165.584,287.77Z" transform="translate(-138.353 -253.688)"/><path class="e" d="M148.47,288.705c-.042.928-.067,1.889-.084,2.892-.008.393-.017.786-.017,1.153-3.118.46-4.321-.4-4.48-5.75A45.918,45.918,0,0,0,148.47,288.705Z" transform="translate(-134.921 -253.561)"/><path class="e" d="M149.59,281.3a13.255,13.255,0,0,0-.894,3.393,39.8,39.8,0,0,1-4.806-1.9,17.81,17.81,0,0,1,.744-4.6C146.431,279.445,148.178,280.5,149.59,281.3Z" transform="translate(-134.921 -252.116)"/><path class="e" d="M153.3,275.9a11.341,11.341,0,0,0-2.106,2.089c-1.454-.827-3.326-1.956-5.257-3.326.059-.117.117-.226.184-.334a11.051,11.051,0,0,1,2.633-3.176A36.537,36.537,0,0,0,153.3,275.9Z" transform="translate(-135.257 -250.958)"/><path class="e" d="M156.482,268.24a3.452,3.452,0,0,0,.084.953,6.37,6.37,0,0,0,2.19,3.393v.008c-.752.435-1.521.9-2.315,1.4h-.008a40.271,40.271,0,0,1-4.572-4.655,11.817,11.817,0,0,1,4.614-1.095Z" transform="translate(-136.229 -250.481)"/><path class="f" d="M148.693,285.6c-.117.819-.184,1.672-.226,2.566a45.927,45.927,0,0,1-4.58-1.705c-.017-.694-.017-1.463-.008-2.315,0-.15.008-.293.008-.443A39.8,39.8,0,0,0,148.693,285.6Z" transform="translate(-134.918 -253.019)"/><path class="f" d="M151.007,278.676a9.8,9.8,0,0,0-1.27,2.156c-1.412-.8-3.159-1.855-4.956-3.1a13.043,13.043,0,0,1,.97-2.382C147.68,276.721,149.552,277.849,151.007,278.676Z" transform="translate(-135.067 -251.648)"/><path class="f" d="M151.441,269.55a40.269,40.269,0,0,0,4.572,4.655c-.276.167-.568.351-.853.527a14.826,14.826,0,0,0-1.3.9,36.534,36.534,0,0,1-4.547-4.747,11.254,11.254,0,0,1,1.421-.978h.008C150.973,269.776,151.207,269.659,151.441,269.55Z" transform="translate(-135.811 -250.696)"/><path class="f" d="M169.332,268.336a2.382,2.382,0,0,1,.267,1.137c-.042-.008-.075-.008-.117-.017a2.989,2.989,0,0,0-.209-.618,1.359,1.359,0,0,0-.092-.192,1.312,1.312,0,0,0-.384-.167c-1.78-.61-5.132.919-9.135,3.26v-.008a6.37,6.37,0,0,1-2.19-3.393,3.452,3.452,0,0,1-.084-.953,4.608,4.608,0,0,1,2.7-3.41h.008a7.607,7.607,0,0,1,2.909-.936,2.338,2.338,0,0,1,.485,0,1.524,1.524,0,0,1,.359.067,14.543,14.543,0,0,1,5.2,4.722,4.4,4.4,0,0,1,.276.51Z" transform="translate(-137.137 -249.624)"/></g></g><path class="g" d="M184.978,284.1c1.593.485,3.088,1.081,4.589,1.532a19.411,19.411,0,0,0,2.186.614,8.812,8.812,0,0,0,1.984.261,2.1,2.1,0,0,0,2.1-1.341c.13-.252.288-.522.426-.825l.209-.469.079-.191a1.488,1.488,0,0,0,.074-.211,2.218,2.218,0,0,0-.021-1.112,4.578,4.578,0,0,0-1.79-2.561,10.008,10.008,0,0,0-3.5-1.737,28.025,28.025,0,0,0-9.113-.591l-.08-.237a19.785,19.785,0,0,1,9.524-1.113,11.039,11.039,0,0,1,4.527,1.752,6.87,6.87,0,0,1,2.875,3.927,4.518,4.518,0,0,1-.124,2.5,11.542,11.542,0,0,1-1.122,2.181,4.661,4.661,0,0,1-1.838,1.671,4.446,4.446,0,0,1-2.458.317,14.233,14.233,0,0,1-4.55-1.659,46.569,46.569,0,0,1-4.115-2.5Z" transform="translate(-8.07 -4.777)"/><path class="g" d="M191.783,274.148a12.055,12.055,0,0,0,3.576-1.866,11.673,11.673,0,0,0,2.583-2.583,7.718,7.718,0,0,0,.743-1.382,1.923,1.923,0,0,0,.139-1.061,1.05,1.05,0,0,0-.293-.558,2.3,2.3,0,0,0-.409-.328,2.593,2.593,0,0,0-1.449-.368,7.213,7.213,0,0,0-1.5.316c-1.136.3-2.344.913-3.644,1.413-2.547,1.072-5.444,2.218-8.444,2.092l-.064-.243a35.568,35.568,0,0,0,7.536-3.586,28.831,28.831,0,0,1,3.786-1.894,5.931,5.931,0,0,1,4.272-.268,4.624,4.624,0,0,1,1.787,1.286,3.3,3.3,0,0,1,.795,2.068,5.785,5.785,0,0,1-1.792,3.876,10.557,10.557,0,0,1-7.618,3.339Z" transform="translate(-8.217 -2.743)"/><path class="g" d="M193.352,262.54a6.942,6.942,0,0,0,1.184-3.433,4.527,4.527,0,0,0-.776-2.783,3.779,3.779,0,0,0-1.989-1.462c-.2-.043-.384-.114-.6-.15a.572.572,0,0,0-.2.012,1.64,1.64,0,0,0-.356.323,18.38,18.38,0,0,0-1.957,2.793,34.006,34.006,0,0,1-2.419,3.3,18.25,18.25,0,0,1-6.518,5.125l-.169-.185a33.694,33.694,0,0,0,5.026-6.039c.061-.092.181-.278.181-.278l2.366-.578-2.068.106s1.045-1.745,1.548-2.634a18.681,18.681,0,0,1,2.2-3.349,3.107,3.107,0,0,1,1.84-1.014,4.08,4.08,0,0,1,2.046.377,5.562,5.562,0,0,1,2.882,2.812,5.7,5.7,0,0,1,.267,4,6.628,6.628,0,0,1-2.325,3.24Z" transform="translate(-7.647 -0.894)"/><path class="h" d="M177.334,293.031a39,39,0,0,0,3.062,3.793,6.625,6.625,0,0,0,3.257,2.149,2.929,2.929,0,0,0,1.388-.134,4.266,4.266,0,0,0,1.381-.857,9.637,9.637,0,0,0,1.338-1.4l.155-.2.076-.1.019-.025.009-.013c-.017.023.045-.061-.036.051l.005-.008.043-.064.086-.128c.006-.015,0-.016.006-.023l.038-.085a1.682,1.682,0,0,0,.12-.48,5.9,5.9,0,0,0-.922-3.3,29.719,29.719,0,0,0-2.429-3.828c-1.865-2.538-3.977-5.015-6.054-7.693l.151-.2a52.487,52.487,0,0,1,7.371,6.579,24.92,24.92,0,0,1,3,3.958,8.014,8.014,0,0,1,1.368,4.809,4.291,4.291,0,0,1-1.117,2.306,10.435,10.435,0,0,1-1.815,1.74,6.282,6.282,0,0,1-2.283,1.1,4.508,4.508,0,0,1-2.537-.132,7.935,7.935,0,0,1-3.72-3.279,22.785,22.785,0,0,1-2.193-4.441Z" transform="translate(-7.245 -5.525)"/><path class="g" d="M168.232,288.33c-.089,2.054-.373,4.057-.624,6.056l-.433,2.961c-.13.98-.3,1.942-.381,2.877a12.618,12.618,0,0,0-.031,2.508,1.7,1.7,0,0,0,.232.7,1.331,1.331,0,0,0,.406.359,6.935,6.935,0,0,0,.877.456c.181.079.376.155.581.23l.077.028.009,0-.055-.02.023.008.044.014.167.054c.017-.005.023,0,.084.008a1.344,1.344,0,0,0,1.072-.344,4.527,4.527,0,0,0,1.278-1.521,12.2,12.2,0,0,0,.94-2.3,23.947,23.947,0,0,0,.919-5.382,74.614,74.614,0,0,0-.488-11.758l.238-.079a41.018,41.018,0,0,1,2.219,11.8,22.523,22.523,0,0,1-.608,6.009,12.976,12.976,0,0,1-1.071,2.854,7.025,7.025,0,0,1-1.95,2.389,3.788,3.788,0,0,1-3.023.718,7.051,7.051,0,0,1-1.458-.53,6.675,6.675,0,0,1-1.334-.789,3.471,3.471,0,0,1-1-1.229,4.213,4.213,0,0,1-.369-1.525,12.371,12.371,0,0,1,.278-3.031c.388-1.978.937-3.9,1.477-5.833l1.663-5.769Z" transform="translate(-5.186 -5.971)"/><path class="h" d="M163.786,293.119a20.584,20.584,0,0,1-5.291,6.739,8.475,8.475,0,0,1-3.98,1.664,8.387,8.387,0,0,1-2.171-.031,9.075,9.075,0,0,1-2.109-.5,4.851,4.851,0,0,1-1.835-1.169,3.3,3.3,0,0,1-.879-1.987,6.57,6.57,0,0,1,1.366-4.041l.14.091a6.655,6.655,0,0,0-.624,3.869,2.874,2.874,0,0,0,2.3,2,10.418,10.418,0,0,0,1.821.281,9.235,9.235,0,0,0,.949.022,6.027,6.027,0,0,0,.842-.1,7.084,7.084,0,0,0,3.187-1.444,14.4,14.4,0,0,0,2.746-2.7,36.339,36.339,0,0,0,2.386-3.319q.206-.32.408-.642Z" transform="translate(-2.386 -7.392)"/><path class="h" d="M166.8,289.585c1.13-1.857,2.221-3.783,3.418-5.7l.156.058a61.275,61.275,0,0,1-3.419,7.863Z" transform="translate(-5.554 -6.085)"/><path class="h" d="M175.072,255.325c-.167,1.1-.308,2.209-.533,3.327l-.167.007c-.038-.9-.073-1.807-.087-2.71Z" transform="translate(-6.783 -1.394)"/><path class="h" d="M184.06,261.479a25.682,25.682,0,0,1-1.4,3.719l-.153-.069c.244-1.181.466-2.345.632-3.49Z" transform="translate(-8.134 -2.405)"/><path class="h" d="M181.9,258.4a24.2,24.2,0,0,0,.191-3.218,12.721,12.721,0,0,0-.481-3.443,4.962,4.962,0,0,0-1.5-2.531,3.41,3.41,0,0,0-2.537-.778,1.543,1.543,0,0,0-.96.283,2.668,2.668,0,0,0-.685,1.085,16.744,16.744,0,0,0-.683,2.99l-.966.43a16.219,16.219,0,0,1,.382-3.764,3.9,3.9,0,0,1,.919-1.774,2.947,2.947,0,0,1,1.834-.812,4.988,4.988,0,0,1,3.774,1.065,6.449,6.449,0,0,1,1.949,3.422,12.547,12.547,0,0,1,.267,3.923,19.028,19.028,0,0,1-.52,3.133Z" transform="translate(-6.782)"/><path class="h" d="M158.14,260.6a10.163,10.163,0,0,1-2.318-4.682,3.76,3.76,0,0,1,.532-2.6,4.383,4.383,0,0,1,2.147-1.584,5.8,5.8,0,0,1,5.121.725,11.2,11.2,0,0,1,3.487,3.9l-.144.085a17.783,17.783,0,0,0-4.044-2.873,5.855,5.855,0,0,0-2-.524,4.018,4.018,0,0,0-1.852.258c-.146.049-.292.108-.432.171-.064.034-.1.041-.189.094l-.141.083c-.006,0-.086.051-.031.017l-.043.029a2.486,2.486,0,0,0-.575.5,2.461,2.461,0,0,0-.53,1.558,14.837,14.837,0,0,0,1.143,4.74Z" transform="translate(-3.745 -0.755)"/><g class="i" transform="translate(162.51 264.591)"><path class="j" d="M168.448,280.553a4.22,4.22,0,0,0,2.79.573,9.238,9.238,0,0,0,2.831-.754,14.075,14.075,0,0,0,4.773-3.412,9.233,9.233,0,0,0,1.653-2.4,4.7,4.7,0,0,0,.432-2.794,3.413,3.413,0,0,0-1.529-2.294,4.783,4.783,0,0,0-2.8-.585l-.02-.25a4.34,4.34,0,0,1,3.514-.327,4.178,4.178,0,0,1,.93.486,4.253,4.253,0,0,1,.435.348l.373.363a5.055,5.055,0,0,1,1.051,1.878,6.427,6.427,0,0,1-.224,4.139,9.9,9.9,0,0,1-1.965,3.129,12.187,12.187,0,0,1-5.85,3.563,8.833,8.833,0,0,1-3.5.267,4.208,4.208,0,0,1-3.028-1.718Z" transform="translate(-168.312 -268.08)"/></g><path class="k" d="M168.43,280.7a4.728,4.728,0,0,0,2.768-.054,11.25,11.25,0,0,0,2.494-1.068,17.7,17.7,0,0,0,2.259-1.53,13.678,13.678,0,0,0,1.97-1.82,8.691,8.691,0,0,0,1.486-2.044,4.24,4.24,0,0,0,.563-2.118,2.925,2.925,0,0,0-.871-1.975,5.178,5.178,0,0,0-2.5-1.135l-.013-.166a5.011,5.011,0,0,1,2.966.543,3.722,3.722,0,0,1,1.708,2.481,5.055,5.055,0,0,1-.417,3.011,9.622,9.622,0,0,1-1.687,2.532,14.42,14.42,0,0,1-4.952,3.438,9.528,9.528,0,0,1-2.938.736,4.471,4.471,0,0,1-2.926-.689Z" transform="translate(-5.807 -3.601)"/><path class="l" d="M177.5,264.913a4.243,4.243,0,0,1,.142,2.655,2.279,2.279,0,0,1-1.1,1.292,3.792,3.792,0,0,1-1.637.4,10.362,10.362,0,0,1-3.275-.522l.048-.16a13.544,13.544,0,0,0,3.187-.2,2.6,2.6,0,0,0,1.139-.5,1.1,1.1,0,0,0,.395-.723,4.208,4.208,0,0,0-.582-2.252l-.024-.048Z" transform="translate(-6.346 -2.959)"/><path class="m" d="M174.631,263.585a13.849,13.849,0,0,0-3.658-4.276,3.72,3.72,0,0,0-2.184-.811,3.477,3.477,0,0,0-2.263,1.045,7.588,7.588,0,0,0-1.778,2.564l-.166-.024a6.726,6.726,0,0,1,1.236-3.072,4.4,4.4,0,0,1,2.763-1.814,4.7,4.7,0,0,1,3.229.778A12.027,12.027,0,0,1,176.092,263c.089.21.172.426.247.648Z" transform="translate(-5.189 -1.693)"/><path class="n" d="M155.124,268.327a13.238,13.238,0,0,0-6.249,3.494,11.33,11.33,0,0,0-1.92,2.782,13.382,13.382,0,0,0-1.159,3.229,18.216,18.216,0,0,0-.531,3.486c-.107,1.223-.13,2.495-.179,3.708a8.9,8.9,0,0,0,.376,3.316,1.612,1.612,0,0,0,1.036.926,7.6,7.6,0,0,0,1.828.323l.024.165a6.848,6.848,0,0,1-1.936.076,2.357,2.357,0,0,1-1.673-.981,7.969,7.969,0,0,1-.966-3.731,26.48,26.48,0,0,1,.4-7.68,12.65,12.65,0,0,1,3.834-6.609,11.329,11.329,0,0,1,7.107-2.67Z" transform="translate(-1.757 -3.502)"/><path class="o" d="M158.974,262.812c-1.757.079-3.486-.014-5.226.01l-5.169-.145c-1.716-.022-3.418-.116-5.1-.078a31.634,31.634,0,0,0-4.92.3,6.1,6.1,0,0,0-3.727,1.484,2.1,2.1,0,0,0-.227.3.834.834,0,0,1-.059.1.986.986,0,0,0-.04.1.96.96,0,0,0,.035.553,5.19,5.19,0,0,0,1.118,1.672,22.157,22.157,0,0,0,3.845,3.056,22.813,22.813,0,0,0,4.492,2.436l-.023.165a18.979,18.979,0,0,1-4.872-1.818,19.977,19.977,0,0,1-4.336-2.878,6.136,6.136,0,0,1-1.585-2.1,2.534,2.534,0,0,1-.168-1.346,2.745,2.745,0,0,1,.589-1.219,5.076,5.076,0,0,1,2.167-1.51,11.774,11.774,0,0,1,2.543-.648,47.855,47.855,0,0,1,10.389.121c3.447.328,6.876.791,10.3,1.284Z" transform="translate(0 -2.327)"/><path class="o" d="M158.077,264.143a34.583,34.583,0,0,1-6.468.385c-1.068-.037-2.132-.054-3.2-.144-.533-.046-1.067-.077-1.6-.1-.54-.07-1.073-.079-1.629-.14l-.015-.081a23.546,23.546,0,0,1,3.222-.324c1.079-.047,2.159-.055,3.238-.044q3.236.083,6.461.368Z" transform="translate(-2.001 -2.768)"/><path class="o" d="M149.9,269.942a3.929,3.929,0,0,1-1.424.352,5.947,5.947,0,0,1-1.418-.156,11.654,11.654,0,0,1-2.776-.7l.024-.08a9.111,9.111,0,0,0,1.4.105c.466.018.933.019,1.4.01a8.064,8.064,0,0,1,1.4-.013,4.678,4.678,0,0,1,1.4.4Z" transform="translate(-1.856 -3.698)"/><g class="i" transform="translate(151.696 258.169)"><path class="p" d="M169.078,269.333a1.776,1.776,0,0,0-.207-1.275,6.418,6.418,0,0,0-.747-1.162,15.442,15.442,0,0,0-1.913-2.042,13.917,13.917,0,0,0-2.224-1.676,3.046,3.046,0,0,0-.6-.272,2.128,2.128,0,0,0-.625-.043,5.845,5.845,0,0,0-1.331.262,8.048,8.048,0,0,0-2.463,1.2,4.19,4.19,0,0,0-1.616,2.1,3.627,3.627,0,0,0,.366,2.6,8.614,8.614,0,0,0,1.688,2.2l-.174.181a5.99,5.99,0,0,1-2.718-1.764,6.206,6.206,0,0,1-.911-1.588,4.273,4.273,0,0,1-.166-2.173,4.809,4.809,0,0,1,.812-1.994,7.823,7.823,0,0,1,1.3-1.457,8.911,8.911,0,0,1,3.16-1.71,8.106,8.106,0,0,1,1.932-.329,4.6,4.6,0,0,1,1.438.183,4.4,4.4,0,0,1,1.092.54A9.1,9.1,0,0,1,166.5,262.2a10.221,10.221,0,0,1,1.06,1.18,11.625,11.625,0,0,1,1.654,2.7,7.064,7.064,0,0,1,.452,1.615,3.578,3.578,0,0,1,.008.888,2.245,2.245,0,0,1-.12.446.888.888,0,0,1-.234.366Z" transform="translate(-155.374 -260.396)"/></g><path class="m" d="M169.422,269.75a1.09,1.09,0,0,0-.178-.626,2.713,2.713,0,0,0-.363-.528,7.63,7.63,0,0,0-.929-.938,25.831,25.831,0,0,0-2.1-1.672,17.255,17.255,0,0,0-2.159-1.363,2.623,2.623,0,0,0-.342-.14c.072.021-.091,0-.219.016a4.982,4.982,0,0,0-1.03.233,7.377,7.377,0,0,0-2.107.96A3.8,3.8,0,0,0,158.6,267.1a2.114,2.114,0,0,0-.209.893,4.4,4.4,0,0,0,.158,1.171,11.845,11.845,0,0,0,1.133,2.5l-.116.12a8.852,8.852,0,0,1-1.8-2.218,3.921,3.921,0,0,1-.429-2.825,4.537,4.537,0,0,1,1.713-2.31,8.433,8.433,0,0,1,2.568-1.3,6.144,6.144,0,0,1,1.432-.26,2.452,2.452,0,0,1,.756.069,3.382,3.382,0,0,1,.672.317,14.266,14.266,0,0,1,2.263,1.756,15.677,15.677,0,0,1,1.921,2.114,6.655,6.655,0,0,1,.741,1.233,2,2,0,0,1,.182,1.433Z" transform="translate(-3.982 -2.633)"/><path class="o" d="M168.484,269.593c-1.061.84-2.157,1.6-3.257,2.349s-2.262,1.4-3.381,2.124a56.645,56.645,0,0,0-6.4,4.786l-.058-.061a45.834,45.834,0,0,1,6.076-5.273,32.129,32.129,0,0,1,3.321-2.285,22.259,22.259,0,0,1,3.66-1.712Z" transform="translate(-3.68 -3.725)"/><path class="o" d="M168.714,270.02a35.731,35.731,0,0,1-2.528,5.925,45.03,45.03,0,0,1-3.48,5.425,43.653,43.653,0,0,1-8.824,9.315l-.053-.065a38.528,38.528,0,0,0,4.494-4.538,52.714,52.714,0,0,0,3.834-5.094c1.175-1.773,2.216-3.626,3.3-5.451,1.1-1.82,2.122-3.684,3.179-5.55Z" transform="translate(-3.424 -3.802)"/><path class="o" d="M167.762,269.77a3.015,3.015,0,0,0-2.079,0,11.3,11.3,0,0,0-2.015.781,34.742,34.742,0,0,0-3.79,2.22q-1.867,1.177-3.7,2.431a18.05,18.05,0,0,0-1.706,1.265,10.89,10.89,0,0,0-1.419,1.441,9.668,9.668,0,0,0-1.761,3.471,17.759,17.759,0,0,0-.535,4.094c-.048,1.42-.078,2.94-.074,4.375a15.67,15.67,0,0,0,.413,3.993,2.555,2.555,0,0,0,.262.634c.092.142.134.162.141.166a1.546,1.546,0,0,0,.959-.223,9.549,9.549,0,0,0,1.632-1.013l.4-.314.369-.313c.252-.228.512-.454.762-.7a53.053,53.053,0,0,0,5.54-6.643,54.137,54.137,0,0,0,4.576-7.469,24.793,24.793,0,0,0,1.728-4,10.891,10.891,0,0,0,.46-2.108,4.194,4.194,0,0,0-.2-2.119l.147-.079a4.436,4.436,0,0,1,.438,2.207,10.932,10.932,0,0,1-.308,2.224,25.2,25.2,0,0,1-1.458,4.231,54.01,54.01,0,0,1-4.3,7.831,47.16,47.16,0,0,1-5.51,7.038,13.638,13.638,0,0,1-3.591,2.7,2.9,2.9,0,0,1-2.279.274,2.7,2.7,0,0,1-1.372-1.842,16.953,16.953,0,0,1-.442-4.473c.015-1.493.045-2.978.13-4.47a19.044,19.044,0,0,1,.708-4.428,10.234,10.234,0,0,1,2.189-3.911,14.809,14.809,0,0,1,3.52-2.771c1.267-.781,2.544-1.546,3.846-2.272a34.929,34.929,0,0,1,4.018-1.962,11.433,11.433,0,0,1,2.15-.647,3.267,3.267,0,0,1,2.227.235Z" transform="translate(-2.64 -3.69)"/><path class="q" d="M170.758,285.98c-.228,1.637-.5,3.249-.818,4.84L169,295.581c-.32,1.576-.588,3.159-.787,4.728a9.953,9.953,0,0,0-.053,2.329c.051.746.3,1.53,1.123,1.733l0,.084a1.394,1.394,0,0,1-1.071-.582,3,3,0,0,1-.477-1.14,10,10,0,0,1-.165-2.449,33.733,33.733,0,0,1,.615-4.863,89.941,89.941,0,0,1,2.5-9.468Z" transform="translate(-5.678 -6.424)"/><path class="q" d="M180.208,297.221c.695.506,1.285,1.028,1.888,1.484a5.408,5.408,0,0,0,1.794.973,2.99,2.99,0,0,0,1.865-.112,20.849,20.849,0,0,0,2.127-.993l.06.057a7.585,7.585,0,0,1-1.885,1.519,3.225,3.225,0,0,1-2.385.335,4.75,4.75,0,0,1-2.039-1.311,12.36,12.36,0,0,1-1.494-1.9Z" transform="translate(-7.744 -8.274)"/><path class="q" d="M184.356,278.547a11.272,11.272,0,0,1,3.835-.784,13.067,13.067,0,0,1,3.941.454,8.649,8.649,0,0,1,3.581,1.909,4.911,4.911,0,0,1,1.2,1.731,3.014,3.014,0,0,1,0,2.033l-.082-.012a3.083,3.083,0,0,0-.313-1.825,4.415,4.415,0,0,0-1.212-1.423,9.659,9.659,0,0,0-3.4-1.61,17.731,17.731,0,0,0-7.536-.39Z" transform="translate(-8.437 -5.077)"/><path class="q" d="M189.225,269.359a29.7,29.7,0,0,1,5.53-2.568,9.6,9.6,0,0,1,3.013-.512,3.02,3.02,0,0,1,1.485.389,2.02,2.02,0,0,1,.889,1.234l-.081.023a2.177,2.177,0,0,0-2.311-.989,13.587,13.587,0,0,0-2.743.652c-.93.283-1.856.63-2.807.945s-1.91.646-2.933.9Z" transform="translate(-9.236 -3.193)"/><path class="q" d="M186.01,263.011a48.866,48.866,0,0,1,3.344-4.686,17.088,17.088,0,0,1,2.013-2.065,4.478,4.478,0,0,1,1.228-.771,1.275,1.275,0,0,1,.733-.077.953.953,0,0,1,.579.45l-.071.044a.8.8,0,0,0-1.087,0,5.85,5.85,0,0,0-.96.861c-.607.664-1.205,1.374-1.794,2.1-.608.71-1.2,1.443-1.848,2.144a20.824,20.824,0,0,1-2.066,2.05Z" transform="translate(-8.708 -1.405)"/><path class="q" d="M155.183,277.561a4.573,4.573,0,0,0-1.459,1.814,12.544,12.544,0,0,0-.825,2.215,27.6,27.6,0,0,0-.827,4.664,37.364,37.364,0,0,0-.206,4.738c.019.79.064,1.58.16,2.365a6.028,6.028,0,0,0,.61,2.257l-.069.048a3.052,3.052,0,0,1-.611-1.076,12.217,12.217,0,0,1-.367-1.173,23.052,23.052,0,0,1-.372-2.4,24.655,24.655,0,0,1,.023-4.841,20.883,20.883,0,0,1,1.024-4.759,10.784,10.784,0,0,1,1.064-2.233,4.407,4.407,0,0,1,1.807-1.682Z" transform="translate(-2.977 -5.034)"/><path class="q" d="M143.155,262.379c-1.2.382-2.4.7-3.565,1.012a13.806,13.806,0,0,0-3.216,1.189c-.454.26-.7.563-.727.837a2.123,2.123,0,0,0,.45,1.257,8.868,8.868,0,0,0,1.117,1.354c.394.471.848.884,1.27,1.361l-.046.069a13.406,13.406,0,0,1-2.843-2.374,2.652,2.652,0,0,1-.731-1.708,1.98,1.98,0,0,1,1.074-1.5,11,11,0,0,1,3.535-1.126c1.218-.216,2.447-.349,3.677-.448Z" transform="translate(-0.309 -2.539)"/></g></svg>