<svg xmlns="http://www.w3.org/2000/svg" width="43.747" height="66.951" viewBox="0 0 43.747 66.951">
  <g id="np_easy_2036017_0FC1E7" transform="translate(-17.672 -0.013)">
    <path id="Path_13703" data-name="Path 13703" d="M19.279,21.1a1.048,1.048,0,0,0,0,1.48l9.232,9.238a1.046,1.046,0,0,0,1.479-1.479L20.753,21.1a1.046,1.046,0,0,0-1.474,0Z" transform="translate(-0.43 -6.876)" fill="#0fc1e7"/>
    <path id="Path_13704" data-name="Path 13704" d="M62.989,21.974V9.077a1.046,1.046,0,1,0-2.091,0v12.9a1.046,1.046,0,1,0,2.091,0Z" transform="translate(-14.301 -2.653)" fill="#0fc1e7"/>
    <path id="Path_13705" data-name="Path 13705" d="M38.778.8a1.047,1.047,0,0,0-2.028.523l3.137,12.547a1.047,1.047,0,1,0,2.028-.523Z" transform="translate(-6.301 0)" fill="#0fc1e7"/>
    <path id="Path_13706" data-name="Path 13706" d="M18.691,48.656c3.283,4.705,3.257,6.827,3.236,8.887-.157,14.973,10.22,19.6,16.384,19.971.471.026.925.042,1.38.042a20.155,20.155,0,0,0,15.161-6.6l3.424-3.774.058-.068,1.7-1.877a4.737,4.737,0,0,0-2.353-7.978A4.254,4.254,0,0,0,54.046,51.9a4.374,4.374,0,0,0,.261-1.464,4.7,4.7,0,0,0-3.785-4.627L56.2,40.114a4.731,4.731,0,1,0-6.8-6.582c-6.216,6.634-13.943,14.183-16.991,15.422-1.777.732-2.206.162-3.581-2.091a16.53,16.53,0,0,0-3.743-4.653,4.318,4.318,0,0,0-5.7-.115,4.674,4.674,0,0,0-.7,6.561Zm37.98,10.592a2.62,2.62,0,0,1,1.866.774A2.663,2.663,0,0,1,58.5,63.8l-1.657,1.825a2.4,2.4,0,0,1-2.708-.455l-.094-.1a2.419,2.419,0,0,1-.2-3.236l2.614-2.614ZM55.1,54.574a2.165,2.165,0,0,1,.125,2.938.95.95,0,0,0-.12.131l-3,3a2.418,2.418,0,0,1-2.5-.523L49.483,60a2.439,2.439,0,0,1-.146-3.22c.418-.324,2.17-1.71,3.1-2.509a2.18,2.18,0,0,1,2.656.308Zm-3.66-6.017a2.619,2.619,0,0,1,.774,1.866,3.314,3.314,0,0,1-1.1,2.206c-.638.554-2.013,1.657-3.027,2.452a2.51,2.51,0,0,1-2.473-.648l-.068-.068a2.542,2.542,0,0,1,0-3.592l2.457-2.457a2.614,2.614,0,0,1,3.429.235ZM20.688,43.711a2.222,2.222,0,0,1,3.079.1,14.618,14.618,0,0,1,3.273,4.109A11.113,11.113,0,0,0,28.849,50.4a.635.635,0,0,0,.063.084c.089.094,2.091,2.285.052,5.468a1.046,1.046,0,0,0,1.762,1.124,6.8,6.8,0,0,0,.962-5.751,5.9,5.9,0,0,0,1.506-.413c4.114-1.689,13.759-11.7,17.722-15.929a2.613,2.613,0,0,1,1.882-.836,2.642,2.642,0,0,1,1.913,4.512L44.067,49.283a4.632,4.632,0,0,0,0,6.566l.058.058A4.587,4.587,0,0,0,46.8,57.219a4.549,4.549,0,0,0,1.192,4.271l.042.037.042.042a4.507,4.507,0,0,0,3.189,1.307,4.491,4.491,0,0,0,1.3,3.66l.078.089a4.521,4.521,0,0,0,2.2,1.213l-1.568,1.73-.042.047a18.338,18.338,0,0,1-14.79,5.808,16.331,16.331,0,0,1-7.549-2.614h.941c2.614-.167,5-1.751,7.136-4.705a1.046,1.046,0,0,0-1.7-1.218c-1.741,2.426-3.607,3.722-5.552,3.853a6.856,6.856,0,0,1-4.831-2.023,1.208,1.208,0,0,0-.152-.131,19.731,19.731,0,0,1-2.708-11.026c.031-2.766-.22-5.264-3.612-10.116a2.643,2.643,0,0,1,.277-3.733Z" transform="translate(0 -10.593)" fill="#0fc1e7"/>
    <path id="Path_13707" data-name="Path 13707" d="M45.366,30.825l-2.311.335,1.673,1.631-.4,2.3L46.4,34l2.065,1.087-.4-2.3,1.673-1.631-2.311-.335L46.4,28.734Z" transform="translate(-8.398 -9.502)" fill="#0fc1e7"/>
    <path id="Path_13708" data-name="Path 13708" d="M50.683,11.48l.706,1.589.836-1.532,1.73-.178-1.2-1.265.366-1.7-1.574.748L50.04,8.265,50.265,10l-1.3,1.166Z" transform="translate(-10.354 -2.73)" fill="#0fc1e7"/>
    <path id="Path_13709" data-name="Path 13709" d="M29.269,11.431l-1.26-1.2-.188,1.73-1.532.831,1.589.711.319,1.715,1.166-1.3,1.73.23-.873-1.511.753-1.568Z" transform="translate(-2.851 -3.381)" fill="#0fc1e7"/>
  </g>
</svg>
