<svg xmlns="http://www.w3.org/2000/svg" width="50" height="50.184" viewBox="0 0 50 50.184">
  <g id="computing-cloud" transform="translate(-0.879 0)">
    <g id="Group_2713" data-name="Group 2713" transform="translate(0.879 0)">
      <g id="Group_2712" data-name="Group 2712" transform="translate(0 0)">
        <path id="Path_13102" data-name="Path 13102" d="M45.026,12.555a5.949,5.949,0,0,0-1.8.277,10.687,10.687,0,0,0,.084-1.322A11.707,11.707,0,0,0,20.734,7.366a7.208,7.208,0,0,0-11.005,5.99,5.972,5.972,0,0,0-3-.8,5.853,5.853,0,1,0,0,11.707.836.836,0,1,0,0-1.672,4.181,4.181,0,1,1,3.6-6.425.836.836,0,0,0,1.475-.771,5.309,5.309,0,0,1-.4-2,5.5,5.5,0,0,1,5.544-5.435,5.585,5.585,0,0,1,3.667,1.391.836.836,0,0,0,1.355-.407,10.03,10.03,0,0,1,19.668,2.57,9.7,9.7,0,0,1-.364,2.592.836.836,0,0,0,1.285.909,4.287,4.287,0,0,1,2.472-.784,4.181,4.181,0,1,1,0,8.362.836.836,0,0,0,0,1.672,5.853,5.853,0,1,0,0-11.707Z" transform="translate(-0.879 0)" fill="#18c6ec"/>
      </g>
    </g>
    <g id="Group_2715" data-name="Group 2715" transform="translate(9.153 31.788)">
      <g id="Group_2714" data-name="Group 2714" transform="translate(0)">
        <path id="Path_13103" data-name="Path 13103" d="M110.978,304.119H82.548a2.509,2.509,0,0,0-2.509,2.509v3.345a2.509,2.509,0,0,0,2.509,2.509h28.43a2.509,2.509,0,0,0,2.509-2.509v-3.345A2.509,2.509,0,0,0,110.978,304.119Zm.836,5.853a.836.836,0,0,1-.836.836H82.548a.836.836,0,0,1-.836-.836v-3.345a.836.836,0,0,1,.836-.836h28.43a.836.836,0,0,1,.836.836Z" transform="translate(-80.039 -304.119)" fill="#18c6ec"/>
      </g>
    </g>
    <g id="Group_2717" data-name="Group 2717" transform="translate(36.162 34.348)">
      <g id="Group_2716" data-name="Group 2716">
        <path id="Path_13104" data-name="Path 13104" d="M340.049,328.615a1.621,1.621,0,1,0,1.631,1.61A1.62,1.62,0,0,0,340.049,328.615Zm.02,1.673c-.025,0-.042-.028-.042-.053l.042-.052Z" transform="translate(-338.439 -328.615)" fill="#18c6ec"/>
      </g>
    </g>
    <g id="Group_2719" data-name="Group 2719" transform="translate(12.331 35.132)">
      <g id="Group_2718" data-name="Group 2718">
        <path id="Path_13105" data-name="Path 13105" d="M127.163,336.119H111.275a.836.836,0,0,0,0,1.672h15.888a.836.836,0,0,0,0-1.672Z" transform="translate(-110.439 -336.119)" fill="#18c6ec"/>
      </g>
    </g>
    <g id="Group_2721" data-name="Group 2721" transform="translate(31.157 35.132)">
      <g id="Group_2720" data-name="Group 2720">
        <path id="Path_13106" data-name="Path 13106" d="M293.619,336.119H291.4a.836.836,0,1,0,0,1.672h2.224a.836.836,0,1,0,0-1.672Z" transform="translate(-290.559 -336.119)" fill="#18c6ec"/>
      </g>
    </g>
    <g id="Group_2723" data-name="Group 2723" transform="translate(9.153 41.822)">
      <g id="Group_2722" data-name="Group 2722" transform="translate(0)">
        <path id="Path_13107" data-name="Path 13107" d="M110.978,400.119H82.548a2.509,2.509,0,0,0-2.509,2.509v3.345a2.509,2.509,0,0,0,2.509,2.509h28.43a2.509,2.509,0,0,0,2.509-2.509v-3.345A2.509,2.509,0,0,0,110.978,400.119Zm.836,5.853a.836.836,0,0,1-.836.836H82.548a.836.836,0,0,1-.836-.836v-3.345a.836.836,0,0,1,.836-.836h28.43a.836.836,0,0,1,.836.836Z" transform="translate(-80.039 -400.119)" fill="#18c6ec"/>
      </g>
    </g>
    <g id="Group_2725" data-name="Group 2725" transform="translate(36.162 44.382)">
      <g id="Group_2724" data-name="Group 2724">
        <path id="Path_13108" data-name="Path 13108" d="M340.049,424.615a1.621,1.621,0,1,0,1.631,1.61A1.62,1.62,0,0,0,340.049,424.615Zm.02,1.673c-.025,0-.042-.028-.042-.053l.042-.052Z" transform="translate(-338.439 -424.615)" fill="#18c6ec"/>
      </g>
    </g>
    <g id="Group_2727" data-name="Group 2727" transform="translate(12.331 45.167)">
      <g id="Group_2726" data-name="Group 2726">
        <path id="Path_13109" data-name="Path 13109" d="M127.163,432.119H111.275a.836.836,0,0,0,0,1.672h15.888a.836.836,0,0,0,0-1.672Z" transform="translate(-110.439 -432.119)" fill="#18c6ec"/>
      </g>
    </g>
    <g id="Group_2729" data-name="Group 2729" transform="translate(31.157 45.167)">
      <g id="Group_2728" data-name="Group 2728">
        <path id="Path_13110" data-name="Path 13110" d="M293.619,432.119H291.4a.836.836,0,1,0,0,1.672h2.224a.836.836,0,1,0,0-1.672Z" transform="translate(-290.559 -432.119)" fill="#18c6ec"/>
      </g>
    </g>
    <g id="Group_2731" data-name="Group 2731" transform="translate(9.153 21.753)">
      <g id="Group_2730" data-name="Group 2730" transform="translate(0)">
        <path id="Path_13111" data-name="Path 13111" d="M110.978,208.119H82.548a2.509,2.509,0,0,0-2.509,2.509v3.345a2.509,2.509,0,0,0,2.509,2.509h28.43a2.509,2.509,0,0,0,2.509-2.509v-3.345A2.509,2.509,0,0,0,110.978,208.119Zm.836,5.853a.836.836,0,0,1-.836.836H82.548a.836.836,0,0,1-.836-.836v-3.345a.836.836,0,0,1,.836-.836h28.43a.836.836,0,0,1,.836.836Z" transform="translate(-80.039 -208.119)" fill="#18c6ec"/>
      </g>
    </g>
    <g id="Group_2733" data-name="Group 2733" transform="translate(35.903 24.363)">
      <g id="Group_2732" data-name="Group 2732">
        <path id="Path_13112" data-name="Path 13112" d="M339.2,234.427a1.635,1.635,0,0,0-2.943-.653,1.6,1.6,0,0,0-.269,1.208,1.636,1.636,0,0,0,1.609,1.345,1.678,1.678,0,0,0,.273-.023,1.615,1.615,0,0,0,1.061-.669A1.594,1.594,0,0,0,339.2,234.427Zm-1.646.294.038-.066,0,.1C337.561,234.76,337.558,234.739,337.557,234.722Z" transform="translate(-335.965 -233.084)" fill="#18c6ec"/>
      </g>
    </g>
    <g id="Group_2735" data-name="Group 2735" transform="translate(12.163 25.098)">
      <g id="Group_2734" data-name="Group 2734">
        <path id="Path_13113" data-name="Path 13113" d="M125.563,240.119H109.675a.836.836,0,0,0,0,1.672h15.888a.836.836,0,0,0,0-1.672Z" transform="translate(-108.839 -240.119)" fill="#18c6ec"/>
      </g>
    </g>
    <g id="Group_2737" data-name="Group 2737" transform="translate(30.623 25.098)">
      <g id="Group_2736" data-name="Group 2736">
        <path id="Path_13114" data-name="Path 13114" d="M288.507,240.119h-2.224a.836.836,0,0,0,0,1.672h2.224a.836.836,0,0,0,0-1.672Z" transform="translate(-285.447 -240.119)" fill="#18c6ec"/>
      </g>
    </g>
    <g id="Group_2739" data-name="Group 2739" transform="translate(15.853 10.883)">
      <g id="Group_2738" data-name="Group 2738" transform="translate(0)">
        <path id="Path_13115" data-name="Path 13115" d="M150.572,106.874l-2.509-2.509a.836.836,0,0,0-1.182,0l-2.509,2.509a.836.836,0,0,0,1.182,1.182l1.081-1.081v5.507a.836.836,0,0,0,1.672,0v-5.507l1.081,1.081a.836.836,0,0,0,1.182-1.182Z" transform="translate(-144.138 -104.121)" fill="#18c6ec"/>
      </g>
    </g>
    <g id="Group_2741" data-name="Group 2741" transform="translate(29.232 10.883)">
      <g id="Group_2740" data-name="Group 2740">
        <path id="Path_13116" data-name="Path 13116" d="M278.551,109.381a.836.836,0,0,0-1.162,0l-1.081,1.081v-5.507a.836.836,0,0,0-1.672,0v5.507l-1.081-1.081a.836.836,0,0,0-1.182,1.182l2.509,2.509a.836.836,0,0,0,1.182,0l2.509-2.509A.836.836,0,0,0,278.551,109.381Z" transform="translate(-272.138 -104.119)" fill="#18c6ec"/>
      </g>
    </g>
  </g>
</svg>
