<svg xmlns="http://www.w3.org/2000/svg" width="45.202" height="53.561" viewBox="0 0 45.202 53.561">
  <path id="np_support_1002239_0FC1E7" d="M25.65,25.519a8.805,8.805,0,0,0,3.816,7.245,10.239,10.239,0,0,1-3.721,3.8l-.095-.088a3.777,3.777,0,1,0-2.5,6.609h.244a3.782,3.782,0,0,0,3.529-4.008,13.057,13.057,0,0,0,5.024-5.125,8.8,8.8,0,0,0,7.179-15.9,142.825,142.825,0,0,0-.917-14.966,1.38,1.38,0,0,0-1.07-1.165,19.034,19.034,0,0,0-6.687-.237A1.382,1.382,0,0,0,29.3,3.26a127.29,127.29,0,0,1,.988,14.528,8.84,8.84,0,0,0-4.638,7.731ZM23.222,40.341a1.016,1.016,0,1,1,.707-.352,1.014,1.014,0,0,1-.707.352ZM32.227,4.288a16.238,16.238,0,0,1,2.049,0c.436.028.878.078,1.32.149.421,3.583.669,8.477.751,12.468a8.442,8.442,0,0,0-3.313-.082c-.095-3.932-.365-8.868-.807-12.535Zm2.209,15.157a6.075,6.075,0,1,1-6.074,6.074,6.076,6.076,0,0,1,6.074-6.074ZM9.339,34.829a3.035,3.035,0,0,1,0-2.468l3.164-7.1a7.871,7.871,0,0,0,.684-3.225A20.429,20.429,0,0,1,24.691,3.6a1.38,1.38,0,0,1,1.214,2.478,17.676,17.676,0,0,0-9.94,15.964,10.625,10.625,0,0,1-.928,4.346l-3.175,7.1a.28.28,0,0,0,.17.38l2.97.984a1.378,1.378,0,0,1,.945,1.309v7.289a2.065,2.065,0,0,0,2.066,2.064h7.416a1.382,1.382,0,0,1,1.324.994L28.3,51.9a.555.555,0,0,0,.658.365l19.841-5.643a.553.553,0,0,0,.375-.669L46.232,35.675a1.381,1.381,0,0,1,.354-1.32,17.624,17.624,0,0,0,4.914-13.4A17.858,17.858,0,0,0,41.736,6.192,1.382,1.382,0,0,1,42.99,3.729,20.634,20.634,0,0,1,54.234,20.776,20.35,20.35,0,0,1,49.1,35.685l2.722,9.543a3.313,3.313,0,0,1-2.258,4.036L29.711,54.935a3.312,3.312,0,0,1-4.07-2.263l-1.253-4.418H18.02a4.833,4.833,0,0,1-4.825-4.827V37.158l-2.028-.669v0A3.052,3.052,0,0,1,9.34,34.829Z" transform="translate(-9.077 -1.497)" fill="#0fc1e7"/>
</svg>
