<svg xmlns="http://www.w3.org/2000/svg" width="55.513" height="60" viewBox="0 0 55.513 60"><defs><style>.a{fill:#fcd930;}.b{fill:#b29000;}.c{fill:#ffc000;}.d{fill:#fcd612;}.e{fill:#e3ad00;}.f{fill:#dbb412;}.g{fill:#967a05;}.h{fill:#ffed27;}.i{fill:#fff;}</style></defs><g transform="translate(-349.614 -34.56)"><g transform="translate(349.705 34.599)"><g transform="translate(0 0)"><path class="a" d="M411.039,79.008c-1.44,1.377-1.243,2.628-1.5,4.131s-.527,4.264-1.574,5.185-1.9.2-3.021-.134-.983,2.3-1.046,4.131.063,4.98-2.423,4.98-1.644-5.633-2.164-6.42-.858,2.62-2.431,2.62-1.7-1.377-2.557-2.345c-.252-.283-.559-.212-.873.063l-1.007-1.345,5.279-9.15h10.5l5.94-10.283A11.983,11.983,0,0,1,411.039,79.008Z" transform="translate(-358.837 -42.25)"/><path class="a" d="M367.645,90.315c-.59-2.754-3.013-2.706-3.013-.346,0,.826.85,3.887-1.18,3.887s-1.015-2.817-1.015-5.082.393-4.327-1.676-3.934-5.555-1.471-6.625-3.769c-.85-1.833-.519-2.03-2.164-3.147s-1.928-5.161-2.242-7.034l5.94,10.283h10.708l5.075,8.8h11.88l1.007,1.345a8.366,8.366,0,0,0-1.81,3.6c-.33,1.5-1.117,2.227-2.494,2.227s-1.18-1.243-2.3-2.62-2.164.393-3.666-.071-3.375.59-2.824,2.494.33,4.658-1.636,4.658-1.707-2.211-1.707-4.791C367.9,94.359,368.235,93.069,367.645,90.315Z" transform="translate(-349.73 -42.346)"/><path class="b" d="M397.753,52.816l4.572-7.923-4.572-7.923H388.6l-4.579,7.923,3.415,5.909,1.164,2.014Zm0,17.907,4.572-7.923L397.8,54.956l-.048-.087H388.6L384.025,62.8l3.415,5.916,1.164,2.006ZM370.76,44.893l-4.579-7.923h-9.15l-4.571,7.923,3.43,5.94,1.141,1.983h9.15Zm-4.579,26.183,4.579-7.923-4.579-7.923h-9.15l-4.571,7.923,3.43,5.94,1.141,1.983Zm15.782-9.15L386.542,54l-4.57-7.907-.008-.016h-9.142L368.242,54l3.454,5.972,1.125,1.951Zm0,17.946,4.578-7.931-4.5-7.8h-.008l-.071-.126h-9.142l-4.579,7.923,3.5,6.066,1.078,1.865Zm.016-36.152,5.263-9.111h11.872l5.94,10.283-5.169,8.953,5.169,8.953-5.94,10.283h-10.5l-5.279,9.15h-11.88l-5.075-8.8H355.67l-5.94-10.283L355,54.019l-5.271-9.126,5.94-10.283h11.872l5.263,9.111Z" transform="translate(-349.73 -34.61)"/><path class="a" d="M377.839,71.99h9.142l.071.126c-4.61.873-10.291,6.939-10.291,13.863l-3.5-6.066Z" transform="translate(-354.747 -42.581)"/><path class="a" d="M357.771,37.61h9.15c-4.61.865-10.291,6.931-10.291,13.863l-3.43-5.94Z" transform="translate(-350.47 -35.25)"/><path class="a" d="M357.771,60.82h9.15c-4.61.865-10.291,6.931-10.291,13.863l-3.43-5.94Z" transform="translate(-350.47 -40.199)"/><path class="a" d="M386.981,49.19l.008.016c-4.595.913-10.228,6.955-10.228,13.847l-.047.031-3.454-5.972,4.579-7.923Z" transform="translate(-354.747 -37.719)"/><path class="a" d="M397.9,60.36h9.149l.048.087-.063.039c-4.579.858-10.22,6.845-10.3,13.721l-3.415-5.916Z" transform="translate(-359.025 -40.101)"/><path class="a" d="M397.9,37.61h9.134c-4.6.865-10.283,6.916-10.3,13.831l-3.415-5.909Z" transform="translate(-359.025 -35.25)"/><path class="c" d="M407.974,37.61l4.572,7.923-4.572,7.923h-9.149l-1.164-2.014c.016-6.916,5.7-12.966,10.3-13.831Z" transform="translate(-359.951 -35.25)"/><path class="c" d="M408.022,60.47l4.524,7.844-4.572,7.923h-9.149L397.66,74.23c.079-6.876,5.72-12.864,10.3-13.721Z" transform="translate(-359.951 -40.124)"/><path class="c" d="M388.009,72.15l4.5,7.8-4.578,7.931h-9.142l-1.078-1.865c0-6.923,5.68-12.989,10.291-13.863Z" transform="translate(-355.696 -42.615)"/><path class="c" d="M367.851,60.82l4.579,7.923-4.579,7.923H358.7l-1.141-1.983C357.56,67.751,363.24,61.685,367.851,60.82Z" transform="translate(-351.4 -40.199)"/><path class="c" d="M377.7,63.057c0-6.892,5.633-12.934,10.228-13.847l4.57,7.907-4.578,7.923h-9.142l-1.125-1.951Z" transform="translate(-355.684 -37.723)"/><path class="c" d="M367.851,37.61l4.579,7.923-4.579,7.923H358.7l-1.141-1.983C357.56,44.541,363.24,38.475,367.851,37.61Z" transform="translate(-351.4 -35.25)"/></g></g><path class="d" d="M368.218,37.6l4.621,7.9.038.065-.038.066L370.573,49.6l-2.311,3.949-.039.066h-.075L359,53.565v-.158q1.144-.279,2.287-.47c.762-.127,1.526-.244,2.287-.33.762-.106,1.526-.172,2.288-.239s1.525-.123,2.287-.16l-1.107.64c.345-.681.682-1.367,1.061-2.029l1.108-2,1.179-1.961c.384-.659.806-1.3,1.225-1.935V46.2c-.347-.681-.695-1.36-1.005-2.061s-.648-1.386-.937-2.1c-.305-.7-.588-1.422-.856-2.147s-.517-1.463-.736-2.217Z" transform="translate(-2.001 -0.648)"/><path class="e" d="M357.706,53.5l-4.6-7.91-.019-.033.019-.033,4.575-7.924.019-.032h.038l9.149.026v.079c-.762.1-1.526.16-2.287.226s-1.526.133-2.288.164l-2.287.122c-.762.051-1.525.065-2.287.075l.542-.313-2.217,4-2.356,3.923v-.628c.371.666.743,1.332,1.079,2.018l1.037,2.042c.354.676.684,1.366,1,2.063s.651,1.385.946,2.1Z" transform="translate(-0.741 -0.641)"/><path class="d" d="M408.345,37.6l4.621,7.9.038.065-.038.066L410.7,49.6l-2.311,3.949-.039.066h-.075l-9.149-.052v-.158q1.144-.279,2.287-.47c.762-.127,1.526-.244,2.287-.33.762-.106,1.526-.172,2.288-.239s1.525-.123,2.287-.16l-1.107.64c.345-.681.682-1.367,1.061-2.029l1.108-2,1.179-1.961c.384-.659.806-1.3,1.225-1.935V46.2c-.347-.681-.695-1.36-1.005-2.061s-.648-1.386-.937-2.1c-.305-.7-.588-1.422-.857-2.147s-.516-1.463-.735-2.217Z" transform="translate(-10.558 -0.648)"/><path class="e" d="M397.833,53.5l-4.6-7.91-.019-.033.019-.033L397.81,37.6l.019-.032h.038l9.149.026v.079c-.762.1-1.525.16-2.287.226s-1.526.133-2.288.164l-2.287.122c-.762.051-1.525.065-2.287.075l.542-.313-2.217,4-2.355,3.923v-.628c.371.666.743,1.332,1.079,2.018l1.037,2.042c.354.676.684,1.366,1,2.063s.651,1.385.947,2.1Z" transform="translate(-9.298 -0.641)"/><path class="d" d="M368.218,60.807l4.621,7.9.038.065-.038.066-2.266,3.976-2.311,3.948-.039.066h-.075L359,76.774v-.158q1.144-.279,2.287-.47c.762-.127,1.526-.244,2.287-.33.762-.106,1.526-.172,2.288-.239s1.525-.123,2.287-.16l-1.107.64c.345-.681.682-1.367,1.061-2.029l1.108-2,1.179-1.961c.384-.659.806-1.3,1.225-1.935v1.282c-.347-.681-.695-1.36-1.005-2.061s-.648-1.386-.937-2.1c-.305-.7-.588-1.422-.856-2.147s-.517-1.463-.736-2.217Z" transform="translate(-2.001 -5.597)"/><path class="e" d="M357.706,76.706l-4.6-7.91-.019-.033.019-.033,4.575-7.924.019-.033h.038l9.149.026v.079c-.762.1-1.526.16-2.287.226s-1.526.133-2.288.164l-2.287.122c-.762.051-1.525.065-2.287.075l.542-.313-2.217,4-2.356,3.923v-.628c.371.666.743,1.332,1.079,2.018l1.037,2.042c.354.676.684,1.366,1,2.063s.651,1.385.946,2.1Z" transform="translate(-0.741 -5.59)"/><path class="d" d="M388.282,49.178l4.62,7.9.038.065-.038.067-2.265,3.975-2.309,3.949-.039.066h-.075l-9.149-.053v-.157q1.144-.28,2.288-.47c.762-.128,1.525-.245,2.287-.33.762-.107,1.525-.172,2.287-.239s1.526-.123,2.287-.16l-1.107.639c.346-.681.681-1.367,1.061-2.028l1.108-2,1.178-1.961c.383-.659.806-1.3,1.225-1.934v1.282c-.348-.681-.694-1.36-1.006-2.061s-.648-1.387-.935-2.1c-.306-.7-.587-1.422-.856-2.146s-.516-1.463-.736-2.218Z" transform="translate(-6.28 -3.117)"/><path class="e" d="M377.769,65.077l-4.6-7.911-.02-.033.02-.033,4.576-7.923.02-.033h.037l9.149.026v.078c-.762.1-1.525.16-2.287.227s-1.525.133-2.287.164l-2.287.122c-.762.051-1.526.066-2.288.076l.543-.313-2.218,4-2.357,3.922V56.82c.371.666.743,1.332,1.079,2.018l1.039,2.042c.354.676.684,1.367,1,2.064s.651,1.385.947,2.094Z" transform="translate(-5.019 -3.11)"/><path class="d" d="M388.282,71.985l4.62,7.9.038.065-.038.067-2.265,3.975-2.309,3.949-.039.066h-.075l-9.149-.053v-.157q1.144-.28,2.288-.47c.762-.128,1.525-.245,2.287-.33.762-.107,1.525-.172,2.287-.239s1.526-.123,2.287-.16l-1.107.639c.346-.681.681-1.367,1.061-2.028l1.108-2,1.178-1.961c.383-.659.806-1.3,1.225-1.935v1.282c-.348-.68-.694-1.36-1.006-2.061s-.648-1.386-.935-2.1c-.306-.7-.587-1.422-.856-2.146s-.516-1.463-.736-2.218Z" transform="translate(-6.28 -7.98)"/><path class="e" d="M377.769,87.884l-4.6-7.911-.02-.033.02-.032,4.576-7.924.02-.033h.037l9.149.026v.078c-.762.1-1.525.161-2.287.227s-1.525.133-2.287.164l-2.287.121c-.762.051-1.526.066-2.288.076l.543-.313-2.218,4-2.357,3.922v-.627c.371.666.743,1.331,1.079,2.018l1.039,2.042c.354.676.684,1.367,1,2.064s.651,1.385.947,2.094Z" transform="translate(-5.019 -7.973)"/><path class="f" d="M405.357,34.669c-.99.113-1.979.175-2.968.253s-1.979.123-2.969.17l-2.968.138-2.969.047.562-.324-1.28,2.3c-.418.77-.861,1.527-1.316,2.276l-2.7,4.515-.19.318-.334-.015-4.588-.208c-.765-.027-1.529-.108-2.294-.158s-1.529-.116-2.293-.2V43.7l9.175-.024-.054.031,5.253-9.114.02-.035h.039l11.875.03Z" transform="translate(-6.276)"/><path class="g" d="M377.332,82.226l5.938-.2c1.979-.064,3.958-.147,5.938-.172l-.356.206,5.112-9.247.167-.3.359,0,10.5-.066-.582.336,2.939-5.158,3-5.124v.669l-5.112-8.985-.177-.311.177-.293,5.336-8.855v.41c-.969-1.726-1.886-3.482-2.821-5.228l-2.8-5.241.068-.039L410.974,44.9l.014.026-.014.025-5.159,8.957v-.061l5.176,8.947.022.036-.022.036-5.937,10.285-.02.037h-.042l-10.5-.011.053-.031-5.291,9.145-.014.026h-.03L377.332,82.3Z" transform="translate(-5.911 -0.013)"/><path class="f" d="M370.9,83.976a12.638,12.638,0,0,1,1.721,1.938,22.763,22.763,0,0,1,1.4,2.125,23.3,23.3,0,0,1,1.14,2.272,12.778,12.778,0,0,1,.819,2.459l-.068.039-2.573-4.378-2.5-4.417Z" transform="translate(-4.525 -10.537)"/><path class="g" d="M357.268,83.77a14.052,14.052,0,0,1,2.677-.522,24.376,24.376,0,0,1,5.355,0,14.191,14.191,0,0,1,2.677.52v.078l-5.355.039-5.354-.039Z" transform="translate(-1.632 -10.351)"/><path class="f" d="M367.51,34.672c-1.979.126-3.958.19-5.938.279s-3.958.115-5.937.176l.427-.247c-.951,1.736-1.872,3.49-2.861,5.2l-2.925,5.167v-.67c.887,1.518,1.795,3.022,2.665,4.549l2.6,4.588.19.335-.19.322-2.675,4.542c-.89,1.515-1.828,3-2.739,4.5v-.492c.936,1.744,1.909,3.468,2.817,5.23s1.847,3.5,2.728,5.282l-.067.039L349.649,63.2l-.016-.028.016-.028,5.26-9.137v.07l-5.274-9.129-.021-.036.021-.036L355.587,34.6l.017-.028h.032l11.875.017Z" transform="translate(0 -0.004)"/><path class="g" d="M377.578,43.772a13.573,13.573,0,0,1-1.767-2.016,23.495,23.495,0,0,1-2.629-4.557,13.727,13.727,0,0,1-.865-2.537l.068-.039,2.665,4.536,2.6,4.575Z" transform="translate(-4.841 -0.013)"/><path class="d" d="M408.345,60.355l4.621,7.9.038.065-.038.066L410.7,72.359l-2.311,3.949-.039.066h-.075l-9.149-.052v-.157q1.144-.28,2.287-.47c.762-.128,1.526-.244,2.287-.33.762-.107,1.526-.172,2.288-.24s1.525-.122,2.287-.16l-1.107.64c.345-.681.682-1.367,1.061-2.028l1.108-2,1.179-1.961c.384-.659.806-1.3,1.225-1.935V68.96c-.347-.681-.695-1.36-1.005-2.061s-.648-1.386-.937-2.1c-.305-.7-.588-1.422-.857-2.147s-.516-1.463-.735-2.217Z" transform="translate(-10.558 -5.5)"/><path class="e" d="M397.833,76.255l-4.6-7.911-.019-.033.019-.033,4.575-7.923.019-.033h.038l9.149.026v.079c-.762.1-1.525.16-2.287.227s-1.526.133-2.288.164l-2.287.122c-.762.051-1.525.066-2.287.076l.542-.313-2.217,4-2.355,3.922V68c.371.666.743,1.332,1.079,2.018l1.037,2.042c.354.677.684,1.367,1,2.063s.651,1.385.947,2.1Z" transform="translate(-9.298 -5.493)"/><path class="h" d="M405.1,70.477a13.253,13.253,0,0,1-.346,4.021,11.289,11.289,0,0,1-1.627,3.762,8.608,8.608,0,0,1-.644.831c-.254.281-.472.479-.647.718a3.4,3.4,0,0,0-.672,1.6c-.1.6-.112,1.288-.222,1.976-.085.643-.173,1.315-.287,1.987a11.812,11.812,0,0,1-.509,2.05,3.072,3.072,0,0,1-1.57,1.881,2.231,2.231,0,0,1-1.389.115,7.451,7.451,0,0,1-1.045-.35c-.149-.057-.293-.109-.431-.152l-.051-.016-.026-.008c.013,0-.065-.017.022.006-.02,0-.127-.031-.076-.013a.213.213,0,0,0,.14-.017c.088-.046.053-.053.019.035a1.7,1.7,0,0,0-.1.33,36.9,36.9,0,0,0-.2,3.854,12.215,12.215,0,0,1-.2,2.1,3.873,3.873,0,0,1-1.058,2.133,2.4,2.4,0,0,1-1.19.589,3.032,3.032,0,0,1-.623.055c-.1,0-.1,0-.153-.006l-.19-.021a1.957,1.957,0,0,1-1.39-.99,3.944,3.944,0,0,1-.424-1.083,21.555,21.555,0,0,1-.3-4.078,4.456,4.456,0,0,0-.043-.451,1.073,1.073,0,0,0-.036-.166c0-.012-.017-.035,0,0l-.031-.042a.179.179,0,0,0,.074.059.3.3,0,0,0,.26,0c.048-.03.038-.033.03-.021a.833.833,0,0,0-.094.139c-.071.125-.141.273-.212.422a4.979,4.979,0,0,1-1.177,1.784,1.578,1.578,0,0,1-.551.291,1.652,1.652,0,0,1-.6.041,1.984,1.984,0,0,1-1.079-.416,7.039,7.039,0,0,1-1.188-1.7,3.428,3.428,0,0,0-.271-.355c-.079-.077-.074-.068-.113-.084a.168.168,0,0,0-.109-.006,1.44,1.44,0,0,0-.623.523,7.422,7.422,0,0,0-.938,1.688c-.124.3-.236.607-.33.916s-.143.615-.251.965a2.687,2.687,0,0,1-1.3,1.714,2.744,2.744,0,0,1-1.067.279,1.843,1.843,0,0,1-1.142-.212,2.175,2.175,0,0,1-.726-.889c-.16-.306-.3-.6-.459-.869-.326-.527-.736-1.107-1.142-1.077-.452-.019-1.058.414-1.825.558a2.426,2.426,0,0,1-.607.036,3.2,3.2,0,0,1-.566-.105,2.107,2.107,0,0,0-.8,0,1.622,1.622,0,0,0-1.2.837,1.318,1.318,0,0,0-.108.687,1.97,1.97,0,0,0,.079.374c.044.15.1.332.141.515a7,7,0,0,1,.164,2.175,3.444,3.444,0,0,1-.927,2.224,2.219,2.219,0,0,1-1.264.591,2.655,2.655,0,0,1-.352.021,2.623,2.623,0,0,1-.3-.016,2.2,2.2,0,0,1-.7-.186,2.075,2.075,0,0,1-1.015-1.058,4.146,4.146,0,0,1-.3-1.168,17.229,17.229,0,0,1-.083-2.089c0-.659-.013-1.328.006-2.015s.049-1.343.05-1.983a13.405,13.405,0,0,0-.116-1.887,11.351,11.351,0,0,0-.368-1.791,1.644,1.644,0,0,0-.748-.994.238.238,0,0,0-.228,0,.6.6,0,0,0-.211.326,1.919,1.919,0,0,0-.07.659l.116.969a4.984,4.984,0,0,1-.186,2.385,2,2,0,0,1-1.2,1.145,2.445,2.445,0,0,1-.8.113,2.682,2.682,0,0,1-.713-.116,1.825,1.825,0,0,1-.761-.495,2.014,2.014,0,0,1-.411-.727,3.817,3.817,0,0,1-.151-1.253c.017-.748.121-1.412.19-2.062a18.614,18.614,0,0,0,.12-1.932,15.893,15.893,0,0,0,.02-1.894,1.43,1.43,0,0,0-.157-.6c-.051-.072-.092-.111-.319-.127-.189-.018-.528.081-.976.077a5.268,5.268,0,0,1-1.134-.128,8.046,8.046,0,0,1-2.024-.762,7.924,7.924,0,0,1-3.144-2.865,5.25,5.25,0,0,1-.253-.5l-.2-.478-.349-.947a2.54,2.54,0,0,0-.388-.761,3.95,3.95,0,0,0-.658-.615,4.578,4.578,0,0,1-.816-.7,3.931,3.931,0,0,1-.561-.935,9.512,9.512,0,0,1-.584-1.977c-.265-1.329-.352-2.666-.488-3.987l.155-.026c.276,1.31.47,2.629.827,3.894a8.916,8.916,0,0,0,.689,1.8,3.665,3.665,0,0,0,.515.742,4.032,4.032,0,0,0,.733.548,4.771,4.771,0,0,1,.837.7,3.432,3.432,0,0,1,.585.974l.4.906.209.434a4.216,4.216,0,0,0,.224.381,7.261,7.261,0,0,0,2.824,2.308,6.837,6.837,0,0,0,1.726.584,4.033,4.033,0,0,0,.851.067c.222.009.53-.1,1.01-.113a1.978,1.978,0,0,1,.749.131,1.621,1.621,0,0,1,.686.522,2.664,2.664,0,0,1,.467,1.275,16.668,16.668,0,0,1,.061,2.1,17.432,17.432,0,0,1-.064,2.057c-.062.675-.148,1.334-.149,1.918a2.3,2.3,0,0,0,.085.722c.074.168.068.138.144.175a.994.994,0,0,0,.272.026,1.307,1.307,0,0,0,.186-.035c.086-.042.109-.054.182-.212a3.843,3.843,0,0,0,.063-1.566l-.117-1.014a3.485,3.485,0,0,1,.152-1.315,2.224,2.224,0,0,1,.953-1.245,1.928,1.928,0,0,1,1.7-.113,3.159,3.159,0,0,1,1.686,2.024,12.59,12.59,0,0,1,.4,2.123,15.075,15.075,0,0,1,.089,2.1c-.017.693-.065,1.359-.092,2.012s-.028,1.308-.046,1.981a16.048,16.048,0,0,0,.034,1.9,2.753,2.753,0,0,0,.172.765.693.693,0,0,0,.308.378.845.845,0,0,0,.257.078,1.32,1.32,0,0,0,.2.017c.022,0,.1,0,.147,0a.872.872,0,0,0,.525-.216,2.238,2.238,0,0,0,.579-1.385,5.793,5.793,0,0,0-.076-1.8c-.027-.145-.06-.284-.1-.455a3.141,3.141,0,0,1-.092-.609,2.415,2.415,0,0,1,.278-1.249,2.643,2.643,0,0,1,2-1.3,3.051,3.051,0,0,1,1.186.078,1.585,1.585,0,0,0,.8.1,4.389,4.389,0,0,0,.876-.252,2.769,2.769,0,0,1,1.135-.223,1.582,1.582,0,0,1,1.1.62,5.421,5.421,0,0,1,.588.895c.337.6.518,1.323.911,1.592a1.3,1.3,0,0,0,.79.139,2.192,2.192,0,0,0,.857-.206,2.155,2.155,0,0,0,1.053-1.369c.1-.284.157-.636.268-.964a10.152,10.152,0,0,1,.363-.957,9.276,9.276,0,0,1,1-1.8,1.816,1.816,0,0,1,.9-.712.662.662,0,0,1,.382.02.769.769,0,0,1,.3.193,3.477,3.477,0,0,1,.344.432,6.516,6.516,0,0,0,1.115,1.538,1.4,1.4,0,0,0,.768.264.83.83,0,0,0,.7-.226,4.488,4.488,0,0,0,.895-1.594c.064-.155.127-.312.209-.483a1.554,1.554,0,0,1,.172-.282.655.655,0,0,1,.215-.186.537.537,0,0,1,.5-.006.7.7,0,0,1,.173.135l.047.054a.891.891,0,0,1,.125.213,1.887,1.887,0,0,1,.1.315,5.409,5.409,0,0,1,.083.54,21.5,21.5,0,0,0,.491,3.861c.165.577.474,1.058.8,1.125a.722.722,0,0,0,.131.025l.059,0a.574.574,0,0,0,.1,0,1.774,1.774,0,0,0,.367-.054,1.228,1.228,0,0,0,.566-.31,2.621,2.621,0,0,0,.6-1.428,13.715,13.715,0,0,0,.145-1.882,27.939,27.939,0,0,1,.242-4.116,2.968,2.968,0,0,1,.206-.619,1.38,1.38,0,0,1,.665-.7,1.149,1.149,0,0,1,.628-.09,1.264,1.264,0,0,1,.169.031l.182.055c.179.059.349.124.508.187a6.4,6.4,0,0,0,.843.3.869.869,0,0,0,.569-.024,1.824,1.824,0,0,0,.9-1.115,10.634,10.634,0,0,0,.5-1.811l.357-1.956c.137-.623.179-1.267.331-1.982a4.411,4.411,0,0,1,.968-1.993c.237-.286.526-.526.728-.73a7.641,7.641,0,0,0,.618-.716,13.093,13.093,0,0,0,2.485-7.3Z" transform="translate(-0.002 -7.659)"/><path class="i" d="M358.9,39.575c-.179.6-.425,1.168-.637,1.752-.234.571-.476,1.138-.741,1.692s-.535,1.106-.812,1.653-.582,1.078-.872,1.618l.017-.666c.312.593.592,1.2.89,1.8.271.614.565,1.217.809,1.845l.74,1.88c.2.648.445,1.278.609,1.946l-.071.035-3.672-7.158-.019-.037.02-.036,3.671-6.369Z" transform="translate(-1.177 -1.061)"/><path class="i" d="M379.047,51.256c-.178.6-.425,1.168-.637,1.752-.235.571-.477,1.138-.742,1.692s-.534,1.106-.812,1.653-.582,1.078-.872,1.618l.016-.666c.312.593.592,1.2.89,1.8.272.614.565,1.217.809,1.845l.74,1.88c.2.649.445,1.278.609,1.946l-.071.035L375.3,57.659l-.019-.037.02-.035,3.671-6.37Z" transform="translate(-5.474 -3.552)"/><path class="i" d="M399,39.575c-.178.6-.424,1.168-.637,1.752-.235.571-.476,1.138-.741,1.692s-.535,1.106-.813,1.653-.582,1.078-.872,1.618l.016-.666c.312.593.592,1.2.89,1.8.272.614.565,1.217.81,1.845l.739,1.88c.2.648.446,1.278.61,1.946l-.071.035-3.672-7.158-.02-.037.021-.036,3.672-6.369Z" transform="translate(-9.728 -1.061)"/><path class="i" d="M399,62.324c-.178.6-.424,1.168-.637,1.752-.235.572-.476,1.139-.741,1.693s-.535,1.105-.813,1.653-.582,1.078-.872,1.618l.016-.666c.312.593.592,1.2.89,1.8.272.614.565,1.217.81,1.845l.739,1.88c.2.649.446,1.278.61,1.946l-.071.035-3.672-7.157-.02-.038.021-.035,3.672-6.369Z" transform="translate(-9.728 -5.912)"/><path class="i" d="M379.047,74.231c-.178.6-.425,1.168-.637,1.752-.235.571-.477,1.138-.742,1.692s-.534,1.105-.812,1.653-.582,1.078-.872,1.618l.016-.665c.312.592.592,1.2.89,1.8.272.614.565,1.217.809,1.845l.74,1.88c.2.649.445,1.278.609,1.947l-.071.035L375.3,80.634l-.019-.037.02-.036,3.671-6.369Z" transform="translate(-5.474 -8.451)"/><path class="i" d="M358.9,62.981c-.179.6-.425,1.168-.637,1.752-.234.571-.476,1.138-.741,1.692s-.535,1.105-.812,1.653-.582,1.078-.872,1.618l.017-.665c.312.592.592,1.2.89,1.8.271.614.565,1.217.809,1.845l.74,1.88c.2.649.445,1.278.609,1.947l-.071.035-3.672-7.157-.019-.037.02-.036,3.671-6.369Z" transform="translate(-1.177 -6.052)"/><path class="i" d="M366.222,90.751a5.755,5.755,0,0,1,.4,2.035,12.749,12.749,0,0,1-.106,1.991c-.09.64-.19,1.263-.242,1.826a1.476,1.476,0,0,0,.57,1.485l-.02.076a1.441,1.441,0,0,1-.839-.543,2.008,2.008,0,0,1-.325-.952,9.324,9.324,0,0,1,.077-1.989,30.477,30.477,0,0,0,.41-3.931Z" transform="translate(-3.415 -11.982)"/><path class="i" d="M372.876,95.438a25.7,25.7,0,0,1,.449,6.236c-.022,1.017-.019,2.025.05,2.983a3.364,3.364,0,0,0,.334,1.319,1.393,1.393,0,0,0,1.076.788l0,.079a1.582,1.582,0,0,1-1.407-.611,3.588,3.588,0,0,1-.6-1.448,15.29,15.29,0,0,1-.24-3.116c.035-2.083.229-4.153.258-6.23Z" transform="translate(-4.888 -12.981)"/><path class="i" d="M384.262,98.188a1.032,1.032,0,0,1,.892.16,2.444,2.444,0,0,1,.62.636,6.479,6.479,0,0,1,.683,1.367c.154.441.3.843.454,1.189a1.841,1.841,0,0,0,.877.909l0,.078a1.643,1.643,0,0,1-1.349-.585,4.518,4.518,0,0,1-.72-1.312c-.172-.466-.311-.939-.509-1.385a1.467,1.467,0,0,0-.969-.98Z" transform="translate(-7.384 -13.558)"/><path class="i" d="M395.375,96.068a3.108,3.108,0,0,1,.809.611,4.594,4.594,0,0,1,.516.636,6.081,6.081,0,0,1,.336.605c.1.174.113.393.5.55l.031.072a.877.877,0,0,1-.9-.12,2.676,2.676,0,0,1-.629-.673,7.55,7.55,0,0,1-.743-1.656Z" transform="translate(-9.742 -13.116)"/><path class="i" d="M402.063,96.5a6.161,6.161,0,0,1,.552,1.615,15.154,15.154,0,0,1,.242,1.575c.04.513.087,1.018.146,1.457.093.427.086.774.72.954l.017.076a1.01,1.01,0,0,1-.818-.125,1.467,1.467,0,0,1-.492-.674,6.251,6.251,0,0,1-.355-1.608c-.1-1.09-.089-2.181-.091-3.269Z" transform="translate(-11.167 -13.208)"/><path class="i" d="M405.934,86.795a1.459,1.459,0,0,1,.819.581,4.136,4.136,0,0,1,.472.837c.251.561.388,1.114.565,1.6a3.6,3.6,0,0,0,.593,1.219,3.145,3.145,0,0,0,1.326.8l.006.079a2.487,2.487,0,0,1-1.7-.385,2.923,2.923,0,0,1-.972-1.463c-.182-.561-.285-1.136-.422-1.7a2.654,2.654,0,0,0-.74-1.511Z" transform="translate(-11.999 -11.139)"/></g></svg>