<svg xmlns="http://www.w3.org/2000/svg" xmlns:xlink="http://www.w3.org/1999/xlink" width="41.005" height="60" viewBox="0 0 41.005 60"><defs><style>.a{fill:#f96;}.b{fill:#fc7f3a;}.c{fill:#ffc000;}.d{mix-blend-mode:multiply;}.d,.w{isolation:isolate;}.e{fill:#e6de94;}.f{fill:#fda272;}.g{fill:#ff7a41;}.h{fill:#fffa4a;}.i{fill:#ffa300;}.j{fill:#dae4ea;}.k{fill:#726454;}.l{fill:#352003;}.m{fill:#a6b5bc;}.n{fill:#fcd930;}.o{fill:#bbc4d8;}.p{fill:#fcf05c;}.q{fill:#8fa2ab;}.r{fill:#d4deeb;}.s{fill:#fcd130;}.t{fill:#fff559;}.u{fill:#ffe66b;}.v{fill:#d4dee3;}.w{mix-blend-mode:screen;fill:url(#a);}</style><linearGradient id="a" x1="0.48" y1="0.154" x2="0.489" y2="0.899" gradientUnits="objectBoundingBox"><stop offset="0" stop-color="#fff"/><stop offset="1"/></linearGradient></defs><g transform="translate(-777.881 -1909.999)"><g transform="translate(777.881 1914.454)"><g transform="translate(0.116 0.148)"><path class="a" d="M255.53,145.6a2.007,2.007,0,0,0,1.994-.342l.007.007c.141.543.305,1.079.491,1.585.61,2.708,1.436,6.033-1.094,6.383s-3.385-3.742-1.957-6.963v-.007C255.143,146.049,255.329,145.833,255.53,145.6Z" transform="translate(-249.767 -135.534)"/><path class="a" d="M251.888,138.27a2.832,2.832,0,0,1-.4-.692c-.505-1.347,1.608-3.675,3.958-1.5a6.713,6.713,0,0,0,.394,2.492,2.792,2.792,0,0,0-1.86,1.413A7.653,7.653,0,0,1,251.888,138.27Z" transform="translate(-249.034 -132.956)"/><path class="b" d="M268.051,137.853c.231,1.771-.7,4.746-5.438,4.583h-.007c-.692-.26-1.48-.528-2.366-.789a1.916,1.916,0,0,0,.007-1.9,11.269,11.269,0,0,1,2.113-1.86C265.224,135.963,267.865,136.432,268.051,137.853Z" transform="translate(-251.293 -133.319)"/><path class="b" d="M262.2,144.169c4.694,1.771,5.319,3.6,3.117,6-2.232,2.425-4.813-.059-6.182-3.794-.186-.506-.35-1.042-.491-1.585l-.007-.007a3.613,3.613,0,0,0,1.19-1.4c.885.26,1.674.528,2.366.789Z" transform="translate(-250.883 -135.053)"/><path class="b" d="M253.493,144.906a1.727,1.727,0,0,0,.484.327c-.2.231-.387.446-.558.662v.007c-2.626,3.221-2.6,5.081-4.27,4.337-1.785-.8-.967-4.5,2.053-6.011a6.448,6.448,0,0,0,1.681-.409A2.063,2.063,0,0,0,253.493,144.906Z" transform="translate(-248.213 -135.165)"/><path class="b" d="M251.141,139.3a7.654,7.654,0,0,0,2.1,1.719,2.347,2.347,0,0,0-.283,1.622,6.451,6.451,0,0,1-1.681.409,2.519,2.519,0,0,1-2.611-1.168C248.188,140.952,248.679,138.758,251.141,139.3Z" transform="translate(-248.287 -133.986)"/><path class="b" d="M259.4,132.189c1.844.1,3.906,1.443,2.083,4.568a11.271,11.271,0,0,0-2.113,1.86,1.6,1.6,0,0,0-.521-.5,2.166,2.166,0,0,0-1.622-.312,6.712,6.712,0,0,1-.394-2.492C256.92,133.35,258.065,132.122,259.4,132.189Z" transform="translate(-250.42 -132.187)"/><path class="c" d="M255.568,144.174a1.726,1.726,0,0,1-.484-.327,2.063,2.063,0,0,1-.61-1.086,2.348,2.348,0,0,1,.283-1.622,2.792,2.792,0,0,1,1.86-1.413,2.166,2.166,0,0,1,1.622.312,1.6,1.6,0,0,1,.521.5,1.916,1.916,0,0,1-.007,1.9,3.613,3.613,0,0,1-1.19,1.4A2.006,2.006,0,0,1,255.568,144.174Z" transform="translate(-249.805 -134.106)"/></g><g class="d" transform="translate(3.706 4.588)"><path class="e" d="M258.356,140.181a1.774,1.774,0,0,0-.729-.568,2.068,2.068,0,0,0-.884-.209,2.4,2.4,0,0,0-1.653.7,2.675,2.675,0,0,0-.868,1.591,2.052,2.052,0,0,0,.567,1.695l-.1.106a1.683,1.683,0,0,1-1.13-.62,2.377,2.377,0,0,1-.507-1.318,3.155,3.155,0,0,1,1.028-2.542,3.027,3.027,0,0,1,2.694-.8,2.442,2.442,0,0,1,1.251.69l.148.233a.977.977,0,0,1,.19.308,1.191,1.191,0,0,1,.117.641Z" transform="translate(-253.038 -138.154)"/></g><path class="f" d="M258.705,144.731a20.241,20.241,0,0,0,3.049,4.227,2.652,2.652,0,0,0,1.574.86c.326,0,.67-.165,1.164-.784a4.074,4.074,0,0,0,.594-.816,1.349,1.349,0,0,0,.167-.576.937.937,0,0,0-.229-.59,5.225,5.225,0,0,0-.748-.76c-1.26-1.007-2.91-1.852-4.481-2.873l.042-.143a21.21,21.21,0,0,1,5.071,2.032,2.723,2.723,0,0,1,.711,4.694,3.968,3.968,0,0,1-1.062.92,2.254,2.254,0,0,1-1.393.288,3.819,3.819,0,0,1-2.31-1.5,12.8,12.8,0,0,1-2.3-4.943Z" transform="translate(-250.747 -134.878)"/><path class="f" d="M262.6,142.305a7.417,7.417,0,0,0,3.463-1.865,2.92,2.92,0,0,0,.632-1.364,3.477,3.477,0,0,0,.071-.749c0-.062-.005-.125-.012-.185l-.011-.09-.007-.044,0-.022v-.016c0-.021.028.17.015.088v0l-.031-.134c-.011-.038,0,.051.009.067.02.063.018.045.023.064.045.032-.016-.057-.185-.113a2.353,2.353,0,0,0-.659-.111,5.74,5.74,0,0,0-1.75.22,18.742,18.742,0,0,0-3.854,1.7l-.111-.1a10.378,10.378,0,0,1,3.5-2.674,6.05,6.05,0,0,1,2.166-.545,2.441,2.441,0,0,1,2.111.771,1.876,1.876,0,0,1,.25,1.142,4.224,4.224,0,0,1-.17,1.12,3.8,3.8,0,0,1-1.224,1.874,6.158,6.158,0,0,1-4.223,1.119Z" transform="translate(-251.164 -133.124)"/><path class="f" d="M261.4,136.664a8.443,8.443,0,0,0,.022-1.657A1.565,1.565,0,0,0,261,134a1.9,1.9,0,0,0-.8-.4,3.872,3.872,0,0,0-.534-.118,1.776,1.776,0,0,0-.471-.009.912.912,0,0,0-.6.283,2.61,2.61,0,0,0-.641.907,10.587,10.587,0,0,0-.667,3.058l-.141.048a6.394,6.394,0,0,1-.334-3.354,3.519,3.519,0,0,1,.719-1.565,2.324,2.324,0,0,1,1.519-.855,3.781,3.781,0,0,1,1.705.318,2.544,2.544,0,0,1,1.286,1.153,2.514,2.514,0,0,1,.154,1.709,5.593,5.593,0,0,1-.663,1.564Z" transform="translate(-250.273 -131.988)"/><path class="g" d="M255.416,136.077a3.338,3.338,0,0,0-2.024-.384,1.788,1.788,0,0,0-1.222,1.021.891.891,0,0,0-.083.623,3.177,3.177,0,0,0,.444.85A22.147,22.147,0,0,0,254,139.922l-.035.066a7.768,7.768,0,0,1-1.864-1.406,3.3,3.3,0,0,1-.659-.976,1.526,1.526,0,0,1,.045-1.186,2.216,2.216,0,0,1,1.868-1.312,2.933,2.933,0,0,1,2.111.914Z" transform="translate(-248.898 -132.786)"/><path class="f" d="M251.1,139.332a3.616,3.616,0,0,0-1.024.559.9.9,0,0,0-.342.566,2.333,2.333,0,0,0,.008.5.841.841,0,0,0,.05.216.2.2,0,0,0,.021.056s0,.006,0,0v0h0l-.013-.024.01.016.036.063a1.783,1.783,0,0,0,.862.67,16.523,16.523,0,0,0,2.182.574l.052.139a5.218,5.218,0,0,1-2.314.466A2.521,2.521,0,0,1,248.545,142a2.1,2.1,0,0,1,.311-2.334,1.859,1.859,0,0,1,1.082-.567,3.132,3.132,0,0,1,1.192.089Z" transform="translate(-248.125 -133.802)"/><path class="f" d="M251.217,144.394a7.765,7.765,0,0,0-1.663,3,3.238,3.238,0,0,0-.1,1.311.924.924,0,0,0,.116.355c.044.059.055.046.087.056l0,.007-.041-.017h0l.007,0,.013.006.027.012.108.048c.006,0,0,0,.013.007s-.034,0-.118.027-.136.071-.118.064.072-.061.147-.126c.323-.306.682-.883,1.117-1.354a9.518,9.518,0,0,1,3.067-2.5l.112.1a22.462,22.462,0,0,0-2.189,3.026c-.331.53-.623,1.079-1.009,1.6a1.513,1.513,0,0,1-.8.609,1.562,1.562,0,0,1-1-.173,1.858,1.858,0,0,1-.94-1.681,4.055,4.055,0,0,1,.433-1.867,5.712,5.712,0,0,1,2.656-2.639Z" transform="translate(-248.057 -135.131)"/><path class="g" d="M255,146.609a10.242,10.242,0,0,0-.168,3.811c.174,1.182.758,2.393,1.59,2.479a1.6,1.6,0,0,0,.691-.044,1.142,1.142,0,0,0,.526-.3,2.477,2.477,0,0,0,.487-1.457,10.964,10.964,0,0,0-.036-1.907c-.016-.659-.1-1.318-.112-1.994l.073-.017a19.408,19.408,0,0,1,.652,3.918,2.927,2.927,0,0,1-.532,1.913,2.1,2.1,0,0,1-1.87.626,2.2,2.2,0,0,1-1.541-1.233,5.042,5.042,0,0,1-.512-1.928,8.1,8.1,0,0,1,.684-3.89Z" transform="translate(-249.636 -135.724)"/><path class="h" d="M258.728,140.528a1.937,1.937,0,0,0-.432-.216,1.989,1.989,0,0,0-.2-.061l-.244-.062a2.336,2.336,0,0,0-.777-.009,2.521,2.521,0,0,0-1.289.675,2.951,2.951,0,0,0-.82,1.258,2.314,2.314,0,0,0,.138,1.674l-.052.054a2.118,2.118,0,0,1-.667-1.8,2.87,2.87,0,0,1,.894-1.733,2.591,2.591,0,0,1,1.809-.717,2.169,2.169,0,0,1,1.7.89Z" transform="translate(-249.674 -133.935)"/><path class="i" d="M255.338,144.091a1.775,1.775,0,0,0,1.38-.06,3.848,3.848,0,0,0,1.046-.757,5.083,5.083,0,0,0,.846-1.052,2.212,2.212,0,0,0,.353-1.389l.062-.041a1.86,1.86,0,0,1,.139,1.616,3.6,3.6,0,0,1-.882,1.4,3.007,3.007,0,0,1-1.447.8,1.678,1.678,0,0,1-1.545-.457Z" transform="translate(-249.909 -134.242)"/></g><g transform="translate(809.253 1909.999)"><g transform="translate(0.987 0.044)"><path class="j" d="M301.006,136.255c1.458,2.113-3.5.714-5.1-1.034.312.052.632-.089.9-.64.5.126.967-.112,1.525-.722C299.221,134.046,300.054,134.879,301.006,136.255Z" transform="translate(-292.669 -128.056)"/><path class="j" d="M293.254,131.55c-1.6-1.748-2.574-6.807-.6-5.17,1.3,1.071,2.061,1.979,2.157,2.872-.655.5-.93.952-.841,1.458C293.4,130.925,293.225,131.23,293.254,131.55Z" transform="translate(-291.553 -126.058)"/><path class="k" d="M296.429,134.6a1.3,1.3,0,0,0,.379.171c-.268.551-.588.692-.9.64A.881.881,0,0,1,296.429,134.6Z" transform="translate(-292.668 -128.245)"/><path class="k" d="M293.839,133.151c-.03-.32.141-.625.722-.841a1.453,1.453,0,0,0,.134.379A.893.893,0,0,1,293.839,133.151Z" transform="translate(-292.138 -127.659)"/><path class="k" d="M297.369,133.974a1.945,1.945,0,0,1,1.146-.126c-.558.61-1.027.848-1.525.722a1.306,1.306,0,0,1-.379-.171A3.568,3.568,0,0,1,297.369,133.974Z" transform="translate(-292.848 -128.043)"/><path class="k" d="M295.645,130.35a1.919,1.919,0,0,1-.216,1.123,3.881,3.881,0,0,1-.491.714,1.459,1.459,0,0,1-.134-.379C294.715,131.3,294.99,130.848,295.645,130.35Z" transform="translate(-292.382 -127.157)"/><path class="l" d="M293.754,136.107a1.768,1.768,0,0,1-1.213-1.324c-.1-.484.1-.93,1.086-.774a3.084,3.084,0,0,0,.439.6,2.757,2.757,0,0,0,.55.476C294.691,136.085,294.23,136.248,293.754,136.107Z" transform="translate(-291.8 -128.086)"/><path class="l" d="M295.9,134.144a.881.881,0,0,0-.521.811,1.207,1.207,0,0,1-.424-.171,2.761,2.761,0,0,1-.551-.476,3.088,3.088,0,0,1-.439-.6,1.191,1.191,0,0,1-.126-.432.893.893,0,0,0,.856-.461,3.271,3.271,0,0,0,.528.729A3.35,3.35,0,0,0,295.9,134.144Z" transform="translate(-292.139 -127.79)"/><path class="l" d="M295.481,131.86a7.206,7.206,0,0,0,1.473,1.607v.007a3.569,3.569,0,0,0-.759.424,3.345,3.345,0,0,1-.677-.6,3.27,3.27,0,0,1-.528-.729A3.886,3.886,0,0,0,295.481,131.86Z" transform="translate(-292.433 -127.544)"/><path class="l" d="M297.595,129.41a8.165,8.165,0,0,0,1.666,1.823,3.682,3.682,0,0,1-.6,1.213,13.954,13.954,0,0,1-2.329-2.537A3.9,3.9,0,0,1,297.595,129.41Z" transform="translate(-292.776 -126.916)"/><path class="c" d="M298.269,132.892a1.945,1.945,0,0,0-1.146.126v-.007a7.207,7.207,0,0,1-1.473-1.607,1.919,1.919,0,0,0,.216-1.123c.007-.007.022-.015.03-.022a2.015,2.015,0,0,1,.26-.179,13.954,13.954,0,0,0,2.329,2.537c-.06.082-.126.164-.193.246C298.284,132.87,298.269,132.885,298.269,132.892Z" transform="translate(-292.602 -127.088)"/><path class="c" d="M299.57,129.66a1.741,1.741,0,0,1,.126,1.555,8.165,8.165,0,0,1-1.666-1.823A1.758,1.758,0,0,1,299.57,129.66Z" transform="translate(-293.212 -126.898)"/></g><path class="m" d="M295.929,135.179a5.411,5.411,0,0,0,1.312.815,9.707,9.707,0,0,0,1.416.583,9.381,9.381,0,0,0,1.458.367,2.142,2.142,0,0,0,.675,0,.283.283,0,0,0,.156-.065s0,0-.012-.08a1.909,1.909,0,0,0-.312-.575c-.144-.211-.292-.418-.447-.62a7.723,7.723,0,0,0-1.012-1.1,2,2,0,0,0-1.281-.543,2.633,2.633,0,0,0-1.428.426l-.022-.03a2.777,2.777,0,0,1,1.441-.592,2.218,2.218,0,0,1,1.465.509,6.479,6.479,0,0,1,1.1,1.117c.164.2.321.414.472.627a2.2,2.2,0,0,1,.384.693.441.441,0,0,1-.074.4.63.63,0,0,1-.367.179,2.493,2.493,0,0,1-.791-.02,7.579,7.579,0,0,1-1.51-.431A7.488,7.488,0,0,1,295.9,135.2Z" transform="translate(-291.68 -127.988)"/><path d="M294.271,136.867a1.608,1.608,0,0,0-.159.4,1.8,1.8,0,0,0-.054.436,1.464,1.464,0,0,0,.254.859,1.552,1.552,0,0,1-.439-.84,1.994,1.994,0,0,1-.038-.495,1.957,1.957,0,0,1,.089-.5Z" transform="translate(-291.151 -128.748)"/><path class="m" d="M293.237,131.535a8.513,8.513,0,0,1-1.709-4.325,2.484,2.484,0,0,1,.049-.79.622.622,0,0,1,.209-.35.44.44,0,0,1,.408-.039,2.215,2.215,0,0,1,.658.441c.2.17.4.344.585.525a6.5,6.5,0,0,1,1.019,1.2,2.219,2.219,0,0,1,.379,1.5,2.776,2.776,0,0,1-.713,1.384l-.028-.025a2.63,2.63,0,0,0,.548-1.387,2.005,2.005,0,0,0-.431-1.323,7.7,7.7,0,0,0-1.007-1.1c-.188-.172-.382-.337-.58-.5a1.881,1.881,0,0,0-.547-.361c-.077-.022-.083-.015-.079-.019a.285.285,0,0,0-.079.149,2.146,2.146,0,0,0-.053.673,9.316,9.316,0,0,0,.24,1.483,9.614,9.614,0,0,0,.459,1.463,5.411,5.411,0,0,0,.7,1.377Z" transform="translate(-290.558 -125.999)"/><path d="M292.017,135.1a1.988,1.988,0,0,1-.5.047,2.017,2.017,0,0,1-.489-.08,1.549,1.549,0,0,1-.8-.51,1.458,1.458,0,0,0,.834.327,1.756,1.756,0,0,0,.438-.016,1.621,1.621,0,0,0,.413-.124Z" transform="translate(-290.227 -128.191)"/></g><g transform="translate(779.511 1922.932)"><g transform="translate(0.062 0.117)"><path class="n" d="M283.624,160.947v.007c0,1.049-6.264,1.9-13.993,1.9s-14-.856-14-1.9c.045-.089.089-.171.141-.26.923-.93,6.777-1.644,13.86-1.644,7.06,0,12.9.714,13.852,1.637A2.888,2.888,0,0,1,283.624,160.947Z" transform="translate(-251.688 -147.512)"/><path class="c" d="M283.031,161.61a17.122,17.122,0,0,1,1.718,7.61c-4.419,5.7-22.378,6.2-31.431.915a17.937,17.937,0,0,1,1.718-8.525c0,1.049,6.271,1.9,14,1.9S283.031,162.659,283.031,161.61Z" transform="translate(-251.095 -148.167)"/><path class="n" d="M253.32,172.755c9.054,5.282,27.012,4.784,31.431-.915.015.774,0,1.533-.052,2.276-.372,5.818-1.979,14.008-6.145,18.45-2.529,2.693-6.093.722-9.464.722-3.711,0-7.58,1.882-10.109-1.361C255.1,186.957,253.417,178.907,253.32,172.755Z" transform="translate(-251.096 -150.787)"/><path class="j" d="M280.512,152.589c2.976,1.986,8.429,8.682,4.092,24.059-4.33,15.325-9.18,14.2-16.329,14.194s-12,1.138-16.329-14.194c-4.337-15.377,1.116-22.073,4.092-24.059s3.593-2.105,3.348-5.051h2.232c.305,4.568-2.968,5.215-5.594,7.99a10.791,10.791,0,0,0-1.607,2.217.344.344,0,0,0-.141.26,17.938,17.938,0,0,0-1.718,8.525c.1,6.152,1.778,14.2,5.661,19.171,2.529,3.244,6.4,1.361,10.109,1.361,3.371,0,6.934,1.971,9.464-.722,4.166-4.441,5.773-12.632,6.145-18.45.052-.744.067-1.5.052-2.276a17.122,17.122,0,0,0-1.719-7.61V158a.369.369,0,0,0-.141-.26,10.756,10.756,0,0,0-1.272-1.845c-2.574-3.013-6.234-3.578-5.922-8.354h2.12a.563.563,0,0,0,.112-.007v.007C276.911,150.483,277.536,150.61,280.512,152.589Z" transform="translate(-250.331 -144.562)"/><path class="o" d="M282.259,155.894a10.756,10.756,0,0,1,1.272,1.845c-.952-.922-6.792-1.637-13.852-1.637-7.082,0-12.937.714-13.859,1.644a10.793,10.793,0,0,1,1.607-2.217c2.626-2.775,5.9-3.422,5.594-7.99h13.316C276.025,152.316,279.685,152.881,282.259,155.894Z" transform="translate(-251.736 -144.564)"/><path class="j" d="M277.536,146.516H261.988a1.488,1.488,0,1,1,0-2.976h17.668a1.486,1.486,0,0,1,.112,2.968.564.564,0,0,1-.112.007Z" transform="translate(-252.935 -143.54)"/></g><path class="p" d="M283.059,161.016a16.285,16.285,0,0,1,1.773,6.46,33.194,33.194,0,0,1-.258,6.693,44.363,44.363,0,0,1-1.3,6.569,27.042,27.042,0,0,1-2.533,6.216,15.757,15.757,0,0,1-1.986,2.735,4.626,4.626,0,0,1-3.078,1.557c-2.34.2-4.482-.661-6.651-.642-2.16-.016-4.344.676-6.657.494a5.023,5.023,0,0,1-3.15-1.4,9.4,9.4,0,0,1-1.07-1.339c-.324-.462-.621-.94-.9-1.428a38.189,38.189,0,0,1-4.13-19.457,16.6,16.6,0,0,1,1.652-6.227l2.319-1c-.043.067-.087.135-.13.2a10.157,10.157,0,0,0-.679,1.31,14.9,14.9,0,0,0-1.156,5.872,35.585,35.585,0,0,0,.548,6.247,33.989,33.989,0,0,0,4,11.646c.259.415.529.818.8,1.205.136.2.281.382.425.568a2.727,2.727,0,0,0,.312.349,2.124,2.124,0,0,0,1.425.565,13.071,13.071,0,0,0,2.718-.212c.539-.078,1.112-.166,1.722-.237.305-.036.619-.068.944-.092l.5-.029.252-.009h.306l.459.015c.2.009.385.022.546.038.338.03.661.071.972.116.622.091,1.2.2,1.732.3a10.58,10.58,0,0,0,2.595.269,1.706,1.706,0,0,0,1.248-.585l.281-.308.2-.24c.123-.138.275-.349.413-.523.269-.379.549-.76.8-1.169a24.2,24.2,0,0,0,2.446-5.516,51.713,51.713,0,0,0,1.478-6.149c.181-1.049.33-2.109.44-3.168a29.3,29.3,0,0,0,.141-3.077,14.816,14.816,0,0,0-1.158-5.869,10.451,10.451,0,0,0-.76-1.437Z" transform="translate(-250.964 -147.701)"/><path class="q" d="M288.59,157a9.206,9.206,0,0,0-.8-1.074c-.652-.771-1.483-1.461-2.311-2.264a8.2,8.2,0,0,1-2.139-2.9,6.408,6.408,0,0,1-.174-3.5l.3.025a6,6,0,0,0,.495,3.172,7.281,7.281,0,0,0,2.155,2.411A31.693,31.693,0,0,1,288.7,155a11.2,11.2,0,0,1,2.032,2.695Z" transform="translate(-258.636 -144.377)"/><path class="r" d="M259.561,189.823a10.693,10.693,0,0,1-4.17-4.261,30.861,30.861,0,0,1-2.449-5.5,47.528,47.528,0,0,1-2.617-11.737,21.247,21.247,0,0,1,2.108-11.724,11.513,11.513,0,0,1,4.06-4.385,11.2,11.2,0,0,0,2.37-1.813,4.044,4.044,0,0,0,.471-2.869l.074-.007a9.074,9.074,0,0,1,.124,1.518,2.665,2.665,0,0,1-.474,1.507,11.471,11.471,0,0,1-2.349,1.99,11.085,11.085,0,0,0-3.771,4.336,21.081,21.081,0,0,0-1.872,11.393,49.373,49.373,0,0,0,2.424,11.6,30.681,30.681,0,0,0,2.241,5.489,10.814,10.814,0,0,0,3.865,4.4Z" transform="translate(-250.248 -144.444)"/><path class="m" d="M279.759,204.553a9.069,9.069,0,0,1-4.182,1.341c-1.454.161-2.923.122-4.3.149a24.269,24.269,0,0,1-4.363-.265,19.877,19.877,0,0,1-2.151-.469,6.94,6.94,0,0,1-1.994-.949l.033-.066a12.474,12.474,0,0,0,4.163.911,38.383,38.383,0,0,0,4.29.1c1.439-.01,2.869.063,4.3.008a11.289,11.289,0,0,0,4.178-.823Z" transform="translate(-253.454 -158.98)"/><path class="r" d="M286.23,147.535a4,4,0,0,0,.488,2.889,11.73,11.73,0,0,0,2.4,1.823,11.576,11.576,0,0,1,4.069,4.452,21.48,21.48,0,0,1,2.035,11.85,48.144,48.144,0,0,1-2.71,11.83,28.936,28.936,0,0,1-2.541,5.519,10.1,10.1,0,0,1-4.372,4.12l-.031-.068a10.17,10.17,0,0,0,4.07-4.258,28.886,28.886,0,0,0,2.33-5.5,50,50,0,0,0,2.513-11.7,21.322,21.322,0,0,0-1.8-11.516,11.129,11.129,0,0,0-3.775-4.4,12.018,12.018,0,0,1-2.377-2,2.655,2.655,0,0,1-.492-1.517,9.15,9.15,0,0,1,.123-1.532Z" transform="translate(-259.292 -144.445)"/><path class="q" d="M255.492,160.242a.715.715,0,0,1,.208-.553,2.776,2.776,0,0,1,.385-.372,7.025,7.025,0,0,1,.844-.535,15.188,15.188,0,0,1,1.756-.778,25.048,25.048,0,0,1,3.607-.972,36.1,36.1,0,0,1,3.647-.526c1.222-.1,2.436-.133,3.665-.164,1.213.037,2.439.063,3.657.17a35.847,35.847,0,0,1,3.647.526,25.047,25.047,0,0,1,3.607.972,15.042,15.042,0,0,1,1.756.776,7.013,7.013,0,0,1,.844.533,2.818,2.818,0,0,1,.385.371.724.724,0,0,1,.209.562h-.224c-.016-.185-.327-.353-.577-.455a6.3,6.3,0,0,0-.838-.266c-.574-.144-1.16-.247-1.749-.334-1.178-.182-2.366-.3-3.557-.394-2.382-.179-4.774-.242-7.164-.231-2.389-.01-4.782.052-7.164.231-1.191.092-2.379.211-3.556.394-.589.087-1.176.19-1.75.334a6.309,6.309,0,0,0-.838.266c-.25.107-.562.26-.578.466Z" transform="translate(-251.589 -146.701)"/><path class="s" d="M283.711,161.573a.608.608,0,0,1-.288.442,2.285,2.285,0,0,1-.414.233,6.384,6.384,0,0,1-.865.3c-.584.165-1.175.287-1.768.394-1.187.2-2.383.331-3.579.436-2.394.2-4.795.294-7.195.307-2.4-.015-4.8-.1-7.195-.308-1.2-.1-2.392-.235-3.579-.435-.593-.106-1.184-.228-1.768-.394a6.466,6.466,0,0,1-.865-.3,2.308,2.308,0,0,1-.413-.233.6.6,0,0,1-.289-.452h.224c.107.148.414.185.686.207a7.387,7.387,0,0,0,.859.036c.583-.006,1.168-.007,1.759-.048l3.53-.142c1.178-.08,2.351-.054,3.528-.114,1.174-.02,2.349-.007,3.523-.042,1.175.03,2.349.025,3.523.037,1.177.063,2.349.033,3.526.114l3.531.142c.591.042,1.176.045,1.759.051a7.238,7.238,0,0,0,.859-.035c.272-.025.578-.047.687-.215Z" transform="translate(-251.591 -148.011)"/><path class="t" d="M283.662,161.6a.555.555,0,0,1-.233.422,2.235,2.235,0,0,1-.391.267,6.376,6.376,0,0,1-.85.361c-.578.2-1.166.364-1.756.509-1.187.255-2.383.436-3.581.594a62.735,62.735,0,0,1-14.443,0c-1.2-.158-2.395-.338-3.582-.594-.59-.144-1.178-.305-1.756-.508a6.338,6.338,0,0,1-.85-.361,2.267,2.267,0,0,1-.391-.266.554.554,0,0,1-.233-.425h.074c.035.272.367.417.618.534a6.3,6.3,0,0,0,.847.28c.576.152,1.165.263,1.755.359,1.181.188,2.373.31,3.565.4,2.387.186,4.782.255,7.175.251s4.788-.065,7.174-.251c1.193-.094,2.384-.217,3.565-.4.59-.1,1.178-.206,1.756-.359a6.3,6.3,0,0,0,.847-.28c.251-.119.583-.259.618-.537Z" transform="translate(-251.617 -148.046)"/><path class="q" d="M255.368,157.924c.04-.078.081-.156.122-.234A10.974,10.974,0,0,1,257.524,155a30.973,30.973,0,0,1,2.585-2.129,7.188,7.188,0,0,0,2.16-2.4,6.01,6.01,0,0,0,.49-3.177l.3-.018a6.408,6.408,0,0,1-.167,3.5,8.127,8.127,0,0,1-2.145,2.9c-.83.8-1.65,1.492-2.308,2.267-.176.2-.3.368-.481.6-.088.125-.178.255-.268.392Z" transform="translate(-251.559 -144.378)"/><path class="m" d="M262.2,147.276a6.217,6.217,0,0,1-.5,3.284,7.405,7.405,0,0,1-2.212,2.49,30.7,30.7,0,0,0-2.559,2.122,10.711,10.711,0,0,0-1.978,2.64,16.152,16.152,0,0,0-1.718,6.361,37.888,37.888,0,0,0,4.16,19.255,14.589,14.589,0,0,0,1.922,2.681,4.64,4.64,0,0,0,2.927,1.286c2.2.173,4.377-.524,6.628-.52s4.407.857,6.6.67a4.243,4.243,0,0,0,2.842-1.424,15.375,15.375,0,0,0,1.952-2.669,26.7,26.7,0,0,0,2.523-6.126,44.188,44.188,0,0,0,1.312-6.516,32.893,32.893,0,0,0,.282-6.633,16.023,16.023,0,0,0-1.719-6.36,10.944,10.944,0,0,0-1.977-2.642,31.58,31.58,0,0,0-2.562-2.12,7.5,7.5,0,0,1-2.207-2.494,6.216,6.216,0,0,1-.5-3.285l.112.01a6.021,6.021,0,0,0,.623,3.162,7.269,7.269,0,0,0,2.206,2.32,31.458,31.458,0,0,1,2.666,2.065,11.488,11.488,0,0,1,2.16,2.7,16.564,16.564,0,0,1,1.928,6.583,33.808,33.808,0,0,1-.15,6.8,40.026,40.026,0,0,1-1.242,6.672,27.631,27.631,0,0,1-2.575,6.375c-.29.505-.608,1-.947,1.478a15.869,15.869,0,0,1-1.107,1.373,5.433,5.433,0,0,1-1.584,1.236,5.559,5.559,0,0,1-1.923.552,13.4,13.4,0,0,1-3.576-.252,18.992,18.992,0,0,0-3.156-.362,24.885,24.885,0,0,0-3.165.289,15.875,15.875,0,0,1-3.543.179,5.707,5.707,0,0,1-3.554-1.6,9.844,9.844,0,0,1-1.148-1.44c-.334-.48-.64-.975-.927-1.477a29.2,29.2,0,0,1-2.61-6.349,37.107,37.107,0,0,1-1.284-6.674,35.113,35.113,0,0,1-.116-6.8,16.715,16.715,0,0,1,1.928-6.583,11.269,11.269,0,0,1,2.162-2.7,30.674,30.674,0,0,1,2.665-2.069,7.162,7.162,0,0,0,2.211-2.313,6.032,6.032,0,0,0,.618-3.164Z" transform="translate(-250.796 -144.379)"/><path class="q" d="M280.177,147.556a20.586,20.586,0,0,1-4.417.986c-.736.118-1.472.141-2.208.211-.736.036-1.472.046-2.208.067-.737-.025-1.472-.029-2.209-.07-.736-.069-1.472-.095-2.208-.211a20.8,20.8,0,0,1-4.416-.983v-.149l8.833-.074,8.833.074Z" transform="translate(-253.388 -144.395)"/><path class="u" d="M280.177,147.34l-8.833.036-8.833-.036v-.074c.736-.143,1.472-.2,2.208-.309l2.208-.176c1.472-.116,2.945-.132,4.417-.148a54.371,54.371,0,0,1,8.833.632Z" transform="translate(-253.388 -144.215)"/><path class="v" d="M279.64,146.415a1.373,1.373,0,0,0,1.072-.934,1.145,1.145,0,0,0-.007-.654,1.07,1.07,0,0,0-.321-.466.974.974,0,0,0-.474-.225.933.933,0,0,0-.249,0l-.409.036c-.562.052-1.125.078-1.687.118-1.126.089-2.252.106-3.377.158l-3.377.05c-2.251-.019-4.5-.06-6.753-.211-.562-.041-1.125-.065-1.688-.118a3.458,3.458,0,0,0-.659-.036.978.978,0,0,0-.475.226,1,1,0,0,0-.324.481c-.018.042-.025.116-.037.138l-.01.184a.965.965,0,0,0,.042.318,1.377,1.377,0,0,0,1.071.934v.112a1.552,1.552,0,0,1-1.192-2.547,1.588,1.588,0,0,1,.725-.487,2.806,2.806,0,0,1,.859-.074l1.688-.007,6.753-.028,6.753.028,1.687.007a2.816,2.816,0,0,1,.86.074,1.581,1.581,0,0,1,.724.488,1.551,1.551,0,0,1-1.189,2.545Z" transform="translate(-252.854 -143.383)"/><path class="w" d="M263.217,161.456a13.813,13.813,0,0,1-6.059-1.683c-3.293,4.871-3.185,12.984.369,24.24l5.205-1.75C259.255,171.245,259.429,163.863,263.217,161.456Z" transform="translate(-251.406 -147.58)"/></g></g></svg>