<svg xmlns="http://www.w3.org/2000/svg" width="50" height="60.001" viewBox="0 0 50 60.001"><defs><style>.a{fill:#427c0a;}.b{fill:#539916;}.c{fill:#7dd13b;}.d{fill:#aed0d3;}.e{fill:#ace5e5;}.f{fill:#fcd930;}.g{fill:#ffc000;}.h{fill:#82b8c9;}.i{fill:#94fce0;}.j{fill:#365e0c;}.k{fill:#3b6b0c;}.l{fill:#70c20c;}.m{mix-blend-mode:multiply;isolation:isolate;}.n{fill:#c7ded4;}.o{fill:#f9c032;}.p{fill:#6dbf25;}.q{fill:#a0e22b;}.r{fill:#fffa4a;}.s{fill:#ffa300;}</style></defs><g transform="translate(-21.85 -19.18)"><g transform="translate(21.969 19.242)"><path class="a" d="M56.325,66.456c2.022,1.49-2.279,5.891-2.36,8.52a11.227,11.227,0,0,0-.563,3.061c-.094-.8-.207-1.665-.332-2.579V75.44C53.414,69.737,54.3,64.973,56.325,66.456Z" transform="translate(-33.645 -36.82)"/><path class="a" d="M45.545,62.442c.063.282.125.563.188.839h-.006c-2.5-2.21-9.409-2.936-7.8-4.608s4.495-.207,7.612,3.769Z" transform="translate(-27.891 -33.757)"/><path class="a" d="M74.216,48.153c1.646,2.066-2.348,4.032-5.49,8.4H68.72c.056-.363.106-.732.169-1.108v-.006c.031-.232.069-.463.113-.7.081-.545.175-1.089.269-1.64,0-.006.006-.013.006-.019C70.6,49,72.576,46.087,74.216,48.153Z" transform="translate(-39.497 -29.822)"/><path class="a" d="M74.182,71.588c1.258,1.74-.044,2.955-1.778,4.651-1.878-.025-5.027,3.086-5.534,6.216,0-.545,0-1.139.006-1.79,0-.144.006-.294.006-.444h.069C68.836,74.417,72.26,68.927,74.182,71.588Z" transform="translate(-38.805 -38.583)"/><path class="a" d="M82.726,79.986c1.828-.557,3.149,4.726,2.135,10.73v.006c-.088.313-.144.495-.157.538a12.375,12.375,0,0,0-2.56-6.586C80.955,83.035,80.9,80.537,82.726,79.986Z" transform="translate(-44.201 -41.967)"/><path class="b" d="M57.218,75.353c.326.326.2.789-.15,1.352-.908,1.452-3.33,3.568-3.343,5.747-.038-.344-.081-.7-.125-1.071v-.006a11.227,11.227,0,0,1,.563-3.061C54.952,75.941,56.367,74.5,57.218,75.353Z" transform="translate(-33.843 -40.157)"/><path class="b" d="M54.138,55.679c2.285.858-3.669,5.209-2.974,9.19-.094-.5-.2-1.008-.307-1.521v-.006C50.789,58.721,51.86,54.821,54.138,55.679Z" transform="translate(-32.816 -32.847)"/><path class="b" d="M47.783,57.243c-.088-.376-.182-.751-.275-1.127-1.584-2.529-3.118-5.44-3.318-7.431.983-.551,1.765-1.246,1.634-2.354a3.79,3.79,0,0,1,.551-.031C50.557,46.35,46.538,50.933,47.783,57.243Z" transform="translate(-30.324 -29.384)"/><path class="b" d="M51.575,92.271l.05.119c-.213.088-.432.175-.651.263-1.665-1.947-4.864-1.634-4.207-3.431s3.8-.72,4.733,2.028C51.557,91.908,51.575,92.271,51.575,92.271Z" transform="translate(-31.255 -45.106)"/><path class="b" d="M46.183,74.547c.069.444.131.876.188,1.3-1.133-1.24-2-1.565-5.709-2.035s-5.672-1.565-5.2-3.913S42.42,69.433,46.183,74.547Z" transform="translate(-27.033 -37.837)"/><path class="b" d="M66.268,54.673h.006c-.044.238-.081.47-.113.7-.47-3.255-6.191-5.165-4.382-7.3S65.824,48.225,66.268,54.673Z" transform="translate(-36.77 -29.756)"/><path class="b" d="M72.029,63.53c1.045,1.171-4.77,6.4-4.883,9.027H67.14c.056-.927.119-1.909.194-2.924,0-.006,0-.006.006-.013C69.794,62.278,70.978,62.365,72.029,63.53Z" transform="translate(-38.906 -35.608)"/><path class="b" d="M65.74,65.172v.006c-.069.614-.131,1.214-.188,1.809-1.527-2.823-4.257-3.756-3.4-5.753S65.17,61.278,65.74,65.172Z" transform="translate(-36.98 -34.677)"/><path class="b" d="M64.518,81.554h.031c-.006.332-.013.651-.019.964,0,.15-.006.3-.006.444h-.006c-1.872-3.681-4.689-3.061-3.75-5.133a1.843,1.843,0,0,1,.2-.351C61.983,76.064,63.874,78.255,64.518,81.554Z" transform="translate(-36.454 -40.881)"/><path class="b" d="M72.4,79.43a1.224,1.224,0,0,1,1.121.67c1.252,2.266-3.124,3.518-6.648,6.41,0-.263,0-.551-.006-.851v-.013C67.377,82.516,70.526,79.4,72.4,79.43Z" transform="translate(-38.805 -41.774)"/><path class="b" d="M94.395,80.587c1.133,1.509-5.421,3.95-6.035,6.3.106-.551.207-1.139.3-1.772v-.006C90.482,79.961,93.218,79.016,94.395,80.587Z" transform="translate(-46.842 -41.948)"/><path class="c" d="M56.124,92.01a22.588,22.588,0,0,1,12.414,3.762v.006a27.122,27.122,0,0,1,3.374,2.56c1.722,1.527,3.124,3.368,1.953,4.232s-5.4-1.49-9.015,1.715-5.7-.858-12.664-3.362-13.378,3.675-14.086.394c-.5-2.329,5.021-5.39,9.653-7.293.219-.088.438-.175.651-.263a31.449,31.449,0,0,1,4.176-1.371A17.169,17.169,0,0,1,56.124,92.01Z" transform="translate(-28.035 -46.478)"/><path class="d" d="M93.8,60.41c2.842.607,4.107,2.479,3.349,3.424-.939,1.177-3.28,2.348-5.953-.614l-.006-.006c-.244-.576-.551-1.2-.9-1.891a1.613,1.613,0,0,0,1.146-1.108h.006A9.556,9.556,0,0,1,93.8,60.41Z" transform="translate(-47.564 -34.586)"/><path class="d" d="M90.9,53.345a5.806,5.806,0,0,0-1.277,1.69,2.368,2.368,0,0,0-1.947-.3,6.4,6.4,0,0,1-.175-2.26,2.229,2.229,0,0,1,.182-.651C88.2,50.728,90.853,50.653,90.9,53.345Z" transform="translate(-46.505 -31.183)"/><path class="d" d="M85.67,52.675h.006a6.4,6.4,0,0,0,.175,2.26,1.957,1.957,0,0,0-1.146.783,5.133,5.133,0,0,1-1.221-.776,2.12,2.12,0,0,1-.826-2.266A1.617,1.617,0,0,1,85.67,52.675Z" transform="translate(-44.678 -31.383)"/><path class="e" d="M89.294,63.887c1.671,3.869.927,5.321-1.815,5.384-2.761.069-2.767-2.93-1.327-5.935a.048.048,0,0,1,.013-.025,13.693,13.693,0,0,1,.67-1.214,3.18,3.18,0,0,0,1.553-.106c.351.689.657,1.315.9,1.891Z" transform="translate(-45.66 -35.252)"/><path class="e" d="M84.348,61.55a13.688,13.688,0,0,0-.67,1.214.047.047,0,0,0-.013.025c-1.277,1.947-2.8,4.363-4.489,3.042s.294-4.232,3.074-5.259h.006c.232-.019.476-.031.726-.044A1.734,1.734,0,0,0,84.348,61.55Z" transform="translate(-43.175 -34.706)"/><path class="e" d="M82.312,57.518a1.726,1.726,0,0,0-.3,1,1.478,1.478,0,0,0,.081.488c-.25.013-.495.025-.726.044H81.36c-3.481.307-4.6,1.4-5.115-.044-.563-1.553,2.166-3.224,4.845-2.266A5.133,5.133,0,0,0,82.312,57.518Z" transform="translate(-42.284 -33.184)"/><path class="e" d="M95.59,53.892c1.014,1.171,1.4,3.212-1.553,3.931a9.557,9.557,0,0,0-2.36-.194h-.006a1.319,1.319,0,0,0,.006-.607,1.831,1.831,0,0,0-.757-1.171,5.805,5.805,0,0,1,1.277-1.69C93.437,53.065,94.851,53.04,95.59,53.892Z" transform="translate(-47.8 -31.999)"/><path class="e" d="M75.755,36.87a6.7,6.7,0,0,1-.175,3.355c-.651,1.922-2.266,2.579-3.237,1.959a3.973,3.973,0,0,1-.6-.457c-.851-.8-.764-1.853,1.452-4.269l.019-.019a20.132,20.132,0,0,0,1.809-1.54A4.437,4.437,0,0,0,75.755,36.87Z" transform="translate(-40.441 -25.495)"/><path class="e" d="M82.686,34.71c5.046.576,6.767.57,6.379,2.285s-2.974,1.891-5.628.113a9.591,9.591,0,0,1-.751-1.008H82.68A3.051,3.051,0,0,0,82.686,34.71Z" transform="translate(-44.718 -25.05)"/><path class="e" d="M88.133,27.574c.626,1.4-.438,3.712-5.891,3.687a5.728,5.728,0,0,0-.382-.9c.175-.2.344-.394.52-.576v-.006C85.341,26.584,87.544,26.246,88.133,27.574Z" transform="translate(-44.411 -22.108)"/><path class="e" d="M76.56,19.417c1.628-.726,1.684,1.527,1.509,3.931v.013c-.063.939-.169,1.9-.225,2.717a1.488,1.488,0,0,0-1.44.15A7.455,7.455,0,0,1,75,21.765,2.646,2.646,0,0,1,76.56,19.417Z" transform="translate(-41.841 -19.279)"/><path class="e" d="M71.591,30.072a2.838,2.838,0,0,0,.025,1.121,14.963,14.963,0,0,1-3.7.15c-3.305-.313-4.852-1.916-4.138-3.149.939-1.628,1.64-1.189,6.354,1C70.608,29.5,71.1,29.8,71.591,30.072Z" transform="translate(-37.585 -22.246)"/><path class="d" d="M72.313,33.57a4.884,4.884,0,0,0,.551,1.459,20.132,20.132,0,0,1-1.809,1.54l-.019.019c-1.778,1.333-3.731,2.254-4.683,1.265-1.333-1.39-1.565-3.312,2.26-4.125V33.72A14.963,14.963,0,0,0,72.313,33.57Z" transform="translate(-38.282 -24.623)"/><path class="d" d="M81.435,42.12a1.848,1.848,0,0,1-.382,1.934c-1.365,1.283-3.249-1.252-2.9-3.249h-.006a6.7,6.7,0,0,0,.175-3.355,1.774,1.774,0,0,0,1.909.57A28.784,28.784,0,0,0,81.435,42.12Z" transform="translate(-43.01 -26.075)"/><path class="f" d="M88.893,57.149a1.831,1.831,0,0,1,.757,1.171,1.319,1.319,0,0,1-.006.607A1.613,1.613,0,0,1,88.5,60.035a3.18,3.18,0,0,1-1.553.106,1.734,1.734,0,0,1-1.365-1.02,1.478,1.478,0,0,1-.081-.488,1.725,1.725,0,0,1,.3-1,1.957,1.957,0,0,1,1.146-.783A2.368,2.368,0,0,1,88.893,57.149Z" transform="translate(-45.773 -33.297)"/><path class="d" d="M83,37.938c1.884,2.266,3.825,2.723,3.274,3.988a1.96,1.96,0,0,1-3.568,0,28.782,28.782,0,0,1-1.2-4.1,1.265,1.265,0,0,0,.739-.9h.006A9.592,9.592,0,0,0,83,37.938Z" transform="translate(-44.277 -25.88)"/><path class="d" d="M82.887,22.547c.939.545.075,2.936-1.371,5.415v.006c-.175.182-.344.376-.52.576a3.238,3.238,0,0,0-1.446-1.452c.056-.814.163-1.778.225-2.717v-.013C80.62,21.057,81.948,22,82.887,22.547Z" transform="translate(-43.547 -20.292)"/><path class="g" d="M79.776,31.52a5.728,5.728,0,0,1,.382.9,5.082,5.082,0,0,1,.138.507,3.052,3.052,0,0,1-.006,1.39,1.265,1.265,0,0,1-.739.9,1.774,1.774,0,0,1-1.909-.57,4.436,4.436,0,0,1-.732-.97,4.884,4.884,0,0,1-.551-1.459,2.838,2.838,0,0,1-.025-1.121,1.3,1.3,0,0,1,.557-.876,1.488,1.488,0,0,1,1.44-.15A3.238,3.238,0,0,1,79.776,31.52Z" transform="translate(-42.328 -23.269)"/><path class="d" d="M73.981,26.431a1.3,1.3,0,0,0-.557.876c-.488-.275-.983-.57-1.459-.876-2.066-1.352-3.831-3.024-3.387-4.933.551-2.348,2.354-2.266,4,.47A7.455,7.455,0,0,0,73.981,26.431Z" transform="translate(-39.419 -19.482)"/><path class="e" d="M52.862,32.545c1.208,2.5-1.734,3.756-7.168,4.125a7.541,7.541,0,0,1-1.884-.194.746.746,0,0,0,.119-.908,23.186,23.186,0,0,0,4.088-2.191C50.177,32.07,52.117,31.005,52.862,32.545Z" transform="translate(-30.182 -23.956)"/><path class="d" d="M52.328,40.914c.726,1.916-5.008,3.305-8.414.438a15.517,15.517,0,0,0-1.365-1.365,3.154,3.154,0,0,0,.789-.707,7.541,7.541,0,0,0,1.884.194C47.771,39.549,51.778,39.48,52.328,40.914Z" transform="translate(-29.71 -26.759)"/><path class="d" d="M44.464,30.8c3.775-5.152,6.047-2.2,3.149,1.171a23.187,23.187,0,0,1-4.088,2.191,1.646,1.646,0,0,0-.8-.563A23.525,23.525,0,0,1,44.464,30.8Z" transform="translate(-29.778 -22.545)"/><path class="e" d="M45.812,46.35c.131,1.108-.651,1.8-1.634,2.354C44.052,47.421,44.484,46.519,45.812,46.35Z" transform="translate(-30.311 -29.403)"/><path class="e" d="M39.517,31.331v-.013c-.288-1.546-.376-3.443.432-4.326,1.152-1.252,4.589-.52,3.237,3.212v.006A23.527,23.527,0,0,0,41.452,33a3.24,3.24,0,0,0-1.546-.125A13.5,13.5,0,0,1,39.517,31.331Z" transform="translate(-28.499 -21.953)"/><path class="e" d="M42.452,41.775a4.721,4.721,0,0,1,1.3,2.354c-1.327.169-1.759,1.07-1.634,2.354-.438.244-.92.457-1.371.664-2.3,1.039-2.817-2.5-1.045-6.054a5.98,5.98,0,0,0,1.39-.682A15.518,15.518,0,0,1,42.452,41.775Z" transform="translate(-28.247 -27.182)"/><path class="f" d="M38.852,36.706a3.24,3.24,0,0,1,1.546.125,1.646,1.646,0,0,1,.8.563.746.746,0,0,1-.119.908,3.154,3.154,0,0,1-.789.707,5.98,5.98,0,0,1-1.39.682,3.722,3.722,0,0,1-1.384.238,1.037,1.037,0,0,1-.858-.369.846.846,0,0,1-.157-.495,1.973,1.973,0,0,1,.413-1.34A2.989,2.989,0,0,1,38.852,36.706Z" transform="translate(-27.446 -25.781)"/><path class="e" d="M35.751,32.207a13.5,13.5,0,0,0,.388,1.546,2.989,2.989,0,0,0-1.941,1.02A10.14,10.14,0,0,1,30.737,33.1h-.006c-1.265-1-1.853-2.185-1.252-3.249,1.02-1.8,4.683-1.565,6.273,2.341Z" transform="translate(-24.733 -22.829)"/><path class="d" d="M32.4,41.659v.006c-.789,2.51-2.892,3.825-5.947,4.138s-5.083-2.661-2.341-2.742,4.845-.939,7.431-1.772A1.037,1.037,0,0,0,32.4,41.659Z" transform="translate(-22.332 -27.511)"/><path class="d" d="M31.506,37.112a1.973,1.973,0,0,0-.413,1.34c-6.73,1.64-9.465-1.252-9-2.235s1.959-1.678,5.947-.776h.006A10.14,10.14,0,0,0,31.506,37.112Z" transform="translate(-22.04 -25.167)"/></g><path class="h" d="M90.833,53.309a2.812,2.812,0,0,0-.951-1.451,1.5,1.5,0,0,0-1.332-.143.751.751,0,0,0-.426.314,2.652,2.652,0,0,0-.254.766,18.7,18.7,0,0,0-.193,1.9l-.06.018a6.546,6.546,0,0,1-.237-1.949,2.793,2.793,0,0,1,.2-.97,1.285,1.285,0,0,1,.745-.665,1.864,1.864,0,0,1,1.886.364,2.467,2.467,0,0,1,.68,1.812Z" transform="translate(-24.505 -11.906)"/><path class="i" d="M70.02,29.183a35.474,35.474,0,0,1-4.136-.935,4.278,4.278,0,0,0-.807-.106c-.093,0-.141.027-.144.041s.01.02-.021.063-.091.118-.154.224l-.1.175c.047-.088-.09.18-.043.11.036-.054.008,0,.069.084a2.27,2.27,0,0,0,1.033.847,8.813,8.813,0,0,0,1.73.649,39.062,39.062,0,0,0,4.077.729l.019.124a14.552,14.552,0,0,1-4.236.12,8.029,8.029,0,0,1-2.065-.546,3.336,3.336,0,0,1-1.674-1.357,1.361,1.361,0,0,1-.078-1.124,2.822,2.822,0,0,1,.623-.9,1.3,1.3,0,0,1,1.058-.329,4.439,4.439,0,0,1,1.045.27c1.327.511,2.579,1.156,3.857,1.75Z" transform="translate(-15.539 -2.938)"/><path class="h" d="M72.441,21.944a13.24,13.24,0,0,0-1.409-1c-.431-.276-.942-.394-1.072-.29-.063.054-.052.087-.112.166a1.7,1.7,0,0,0-.169.42c-.02.1-.056.192-.08.3l-.018.081-.009.04,0,.021v.005c-.009.041.011-.053.009-.042v0l0,.013-.032.207.005.206a2.321,2.321,0,0,0,.039.249,5.421,5.421,0,0,0,1.435,2.317c.725.806,1.564,1.6,2.353,2.557l-.061.109A19.837,19.837,0,0,1,70.391,25.4a5.365,5.365,0,0,1-2.034-2.835,2.694,2.694,0,0,1-.016-.911,3.967,3.967,0,0,1,.247-.857,2.286,2.286,0,0,1,.5-.759,1.252,1.252,0,0,1,.844-.365,2.311,2.311,0,0,1,1.569.8,7.175,7.175,0,0,1,1.05,1.4Z" transform="translate(-17.375 -0.183)"/><path class="h" d="M79.828,24.319a7.639,7.639,0,0,1,.413-1.265A2.184,2.184,0,0,1,81.078,22a1.437,1.437,0,0,1,1.336.083c.2.1.4.212.586.321a.871.871,0,0,1,.421.575,2.97,2.97,0,0,1-.105,1.351,9.527,9.527,0,0,1-.446,1.256,20.356,20.356,0,0,1-1.219,2.356l-.081-.048c.157-.926.4-1.772.62-2.592.094-.414.217-.808.272-1.192a2.258,2.258,0,0,0,.049-.907c-.008-.029-.009-.041,0-.029s.006.009.055.048c.091.054-.107-.079-.028-.028l-.512-.316a1.712,1.712,0,0,0-.368-.187.6.6,0,0,0-.233-.038,1.551,1.551,0,0,0-.731.6c-.265.323-.494.694-.775,1.082Z" transform="translate(-21.682 -1.006)"/><path class="i" d="M83.427,37.052a8.787,8.787,0,0,0,3.261.831,2.372,2.372,0,0,0,1.367-.346,1.158,1.158,0,0,0,.483-1.02.346.346,0,0,0-.169-.321,2.3,2.3,0,0,0-.625-.281c-.5-.17-1.077-.257-1.64-.394l-1.718-.351c-.572-.151-1.149-.265-1.718-.451l.008-.063c1.164.129,2.329.239,3.493.383a13.491,13.491,0,0,1,1.735.309,2.681,2.681,0,0,1,.821.352.974.974,0,0,1,.438.783,1.753,1.753,0,0,1-.787,1.548,2.8,2.8,0,0,1-1.725.342,7.111,7.111,0,0,1-3.257-1.27Z" transform="translate(-22.744 -5.788)"/><path class="h" d="M78.155,41.145a3.711,3.711,0,0,0,.346,1.383,4.091,4.091,0,0,0,.725,1.122,1.555,1.555,0,0,0,.917.549.586.586,0,0,0,.356-.1.987.987,0,0,0,.17-.145.739.739,0,0,0,.143-.192c.334-.488.02-1.492-.22-2.415-.121-.478-.259-.962-.355-1.462a5.791,5.791,0,0,1-.065-1.527l.063-.006a11.8,11.8,0,0,0,.813,2.829,10.28,10.28,0,0,1,.446,1.419,2.059,2.059,0,0,1-.143,1.481,1.339,1.339,0,0,1-1.284.7,2.01,2.01,0,0,1-1.229-.831,3.768,3.768,0,0,1-.744-2.816Z" transform="translate(-21.018 -7.172)"/><path class="h" d="M83.143,41.9a1.986,1.986,0,0,0,2.2.66,1.493,1.493,0,0,0,.757-.67,2.029,2.029,0,0,0,.1-.219l.027-.079a.089.089,0,0,1,0-.023c0-.011,0-.043.005-.061a.5.5,0,0,0-.135-.288,6.592,6.592,0,0,0-.908-.868,11.585,11.585,0,0,1-1.024-.995,11.426,11.426,0,0,1-.893-1.136,7.232,7.232,0,0,1-.642-1.286l.053-.034A11.147,11.147,0,0,0,84.5,39c.342.312.7.605,1.065.9a6.624,6.624,0,0,1,1.037.949,1.081,1.081,0,0,1,.244.681,1.444,1.444,0,0,1-.242.677,1.934,1.934,0,0,1-1.125.833,1.986,1.986,0,0,1-1.389-.13,2.318,2.318,0,0,1-1-.972Z" transform="translate(-22.731 -6.627)"/><path class="i" d="M77.771,26.038c-.113-1.313-.093-2.626-.126-3.9a8.6,8.6,0,0,0-.2-1.8,1,1,0,0,0-.259-.52.168.168,0,0,0-.115-.022.866.866,0,0,0-.274.077A2.007,2.007,0,0,0,75.7,20.892a3.662,3.662,0,0,0-.3,1.651,6.8,6.8,0,0,0,.316,1.817,12.306,12.306,0,0,0,.666,1.809l-.052.035a8.283,8.283,0,0,1-1.413-3.613,3.87,3.87,0,0,1,.242-1.938,2.585,2.585,0,0,1,1.39-1.358.991.991,0,0,1,.987.032,1.5,1.5,0,0,1,.473.875,8.088,8.088,0,0,1,.123,1.953c-.043,1.3-.206,2.592-.3,3.886Z" transform="translate(-19.837 0)"/><path class="i" d="M73.193,38.056c-.208.577-.463,1.084-.665,1.6a4.733,4.733,0,0,0-.422,1.369.468.468,0,0,0,.073.312,1.76,1.76,0,0,0,.237.192c.073.044.145.107.236.165l.142.09.038.023.019.012.009.006,0,0-.049-.03,0,0,.094.049a.848.848,0,0,0,.2.006c.435.018,1.141-.543,1.564-1.353a11.617,11.617,0,0,0,.945-3.048l.124-.021a7.018,7.018,0,0,1-.138,3.386,3.926,3.926,0,0,1-.865,1.49,2.462,2.462,0,0,1-1.547.8,1.637,1.637,0,0,1-.883-.191,3.979,3.979,0,0,1-.7-.518,1.685,1.685,0,0,1-.485-.747,1.59,1.59,0,0,1,.03-.888,4.966,4.966,0,0,1,.839-1.5,16.61,16.61,0,0,1,1.1-1.29Z" transform="translate(-18.409 -6.825)"/><path class="i" d="M81.764,29.674a8.817,8.817,0,0,1,2.479-3.4,5.022,5.022,0,0,1,2.141-1.106,2.6,2.6,0,0,1,1.626.173,2.373,2.373,0,0,1,1.2,1.371,3.006,3.006,0,0,1-.613,2.909,4.312,4.312,0,0,1-2.155,1.254,7.492,7.492,0,0,1-4.245-.2v-.125a11.2,11.2,0,0,0,3.894-.594,3.749,3.749,0,0,0,1.59-1.076,1.824,1.824,0,0,0,.345-1.761,1.129,1.129,0,0,0-.553-.682,1.525,1.525,0,0,0-.908-.1,4.779,4.779,0,0,0-1.78.764,15.017,15.017,0,0,0-2.929,2.661Z" transform="translate(-22.406 -2.217)"/><path class="i" d="M86.824,62.1a17.063,17.063,0,0,0-.776,4.316,4.727,4.727,0,0,0,.108.895,1.181,1.181,0,0,0,.289.56c.194.2.479.309,1.169.248A3.336,3.336,0,0,0,88.439,68a1.1,1.1,0,0,0,.448-.235.794.794,0,0,0,.225-.482,4.545,4.545,0,0,0,.023-.9c-.127-1.352-.578-2.844-.877-4.392l.111-.057A17.9,17.9,0,0,1,90.1,66.192a2.834,2.834,0,0,1-.282,2.291,2.031,2.031,0,0,1-.989.67,4.446,4.446,0,0,1-1.158.213,2.371,2.371,0,0,1-2.163-.783,3.211,3.211,0,0,1-.442-2.273,10.769,10.769,0,0,1,1.652-4.278Z" transform="translate(-23.629 -15.989)"/><path class="i" d="M94,57.755c.852-.41,1.654-.993,1.791-1.687a1.7,1.7,0,0,0-.144-1.05,3.067,3.067,0,0,0-.282-.51A2.2,2.2,0,0,0,95,54.095a1.9,1.9,0,0,0-2.048-.013,4.164,4.164,0,0,0-1.064.746,8.525,8.525,0,0,0-.969,1.007l-.056-.029A5.34,5.34,0,0,1,92.7,53.67a2.92,2.92,0,0,1,1.347-.465,1.9,1.9,0,0,1,1.362.414,3.133,3.133,0,0,1,.793,1.19,1.932,1.932,0,0,1-.861,2.492,4.667,4.667,0,0,1-1.322.515Z" transform="translate(-25.81 -12.722)"/><path class="i" d="M81.032,56.745a5.484,5.484,0,0,0-2.944.355c-.855.346-1.6,1.137-1.372,1.662a1.088,1.088,0,0,0,.052.147c.017.03.026.061.047.093a.371.371,0,0,0,.091.116.7.7,0,0,0,.409.051c.449-.021.982-.157,1.512-.2s1.07-.115,1.607-.131a10.96,10.96,0,0,1,1.61.116l0,.062a19.04,19.04,0,0,0-3.119.428c-.515.106-1.022.248-1.553.314a1.221,1.221,0,0,1-.8-.126,1.247,1.247,0,0,1-.453-.677,1.506,1.506,0,0,1,.448-1.495,3.383,3.383,0,0,1,1.359-.823,4.767,4.767,0,0,1,3.125.053Z" transform="translate(-20.273 -13.917)"/><path class="i" d="M82.2,60.625a11.808,11.808,0,0,0-2.082,2.389,3.818,3.818,0,0,0-.508,1.166c-.076.358-.028.539.062.632a.406.406,0,0,0,.085.11l.014.015.007.008,0,0h0c.035.027-.046-.034-.037-.027l.005,0,.083.063a.487.487,0,0,0,.082.059.7.7,0,0,0,.184.085.535.535,0,0,0,.342-.049,4.106,4.106,0,0,0,.542-.3c.783-.546,1.586-1.379,2.563-2.061l.1.068a16.381,16.381,0,0,1-1.984,2.7,2.511,2.511,0,0,1-1.5.816,1.546,1.546,0,0,1-.864-.206,2.016,2.016,0,0,1-.662-.58,1.9,1.9,0,0,1-.155-1.706,4.309,4.309,0,0,1,.886-1.45,6.867,6.867,0,0,1,2.78-1.857Z" transform="translate(-21.133 -15.456)"/><path class="h" d="M68.558,33.845a16.518,16.518,0,0,0-1.44,1,1.923,1.923,0,0,0-.76.989.861.861,0,0,0,.041.351,1.44,1.44,0,0,0,.227.419,3.645,3.645,0,0,0,.4.481l.03.029.014.015.008.008,0,0c.047.046-.063-.061-.051-.049l.006,0,.083.072.041.036s0-.009,0-.013a.063.063,0,0,0-.024-.022c.015,0,.035.011.076.013a2,2,0,0,0,1.058-.152,12.648,12.648,0,0,0,1.459-.6c1-.477,2.026-1.029,3.168-1.528l.088.089a18.833,18.833,0,0,1-2.715,2.261,9.476,9.476,0,0,1-1.555.863,3.1,3.1,0,0,1-1.784.282,1.465,1.465,0,0,1-.8-.49,3.821,3.821,0,0,1-.529-.734,1.886,1.886,0,0,1-.121-1.779,2.745,2.745,0,0,1,1.363-1.153,8.042,8.042,0,0,1,1.694-.523Z" transform="translate(-16.25 -5.439)"/><path class="h" d="M91.736,63.15a6,6,0,0,0,3.142,1.219,2.61,2.61,0,0,0,1.343-.4,3.063,3.063,0,0,0,.558-.431c.041-.043.083-.084.12-.128l.056-.066.026-.033.013-.017L97,63.287l0,0-.033.044,0,0,.064-.1c.018-.03-.014,0-.013.007-.013.02,0-.008,0-.016.064-.1-.106-.555-.448-.889a4.865,4.865,0,0,0-1.255-.945,13.317,13.317,0,0,0-3.368-1.152l0-.093a8.7,8.7,0,0,1,3.657.565,5.072,5.072,0,0,1,1.584.991,2.029,2.029,0,0,1,.754,1.7,1.549,1.549,0,0,1-.535.8,3.547,3.547,0,0,1-.771.547,3.181,3.181,0,0,1-1.834.355,5.171,5.171,0,0,1-3.136-1.892Z" transform="translate(-26.11 -15.315)"/><path class="h" d="M85.6,52.661a1.869,1.869,0,0,0-1.521-.6,1.324,1.324,0,0,0-.957.83,1.736,1.736,0,0,0,.3,1.367,8.188,8.188,0,0,0,1.255,1.4l-.027.057a4.7,4.7,0,0,1-1.6-1.138,2.065,2.065,0,0,1-.516-1.87,1.709,1.709,0,0,1,1.538-1.137,1.877,1.877,0,0,1,1.589,1.059Z" transform="translate(-22.668 -12.112)"/><path class="i" d="M43.055,30.122a6.722,6.722,0,0,0-.215-1.546,1.605,1.605,0,0,0-.589-.916,1.361,1.361,0,0,0-.819-.219,1.008,1.008,0,0,0-.684.215c-.031.019-.041.024-.112.111a.709.709,0,0,0-.077.121,2.8,2.8,0,0,0-.182.5,7.989,7.989,0,0,0-.228,1.353c-.087.987-.12,2.039-.208,3.177l-.119.041a13.068,13.068,0,0,1-.654-3.156,6.836,6.836,0,0,1,.051-1.625,2.467,2.467,0,0,1,.731-1.484,2.278,2.278,0,0,1,3.057.332,2.355,2.355,0,0,1,.5,1.553,4.78,4.78,0,0,1-.331,1.587Z" transform="translate(-6.467 -2.643)"/><path class="h" d="M44.4,41.267a9.252,9.252,0,0,0,4.445.787,7.288,7.288,0,0,0,2.028-.416,2.829,2.829,0,0,0,.738-.384.421.421,0,0,0,.126-.138.171.171,0,0,0-.029.12.09.09,0,0,0,.034.068.458.458,0,0,0-.153-.124,3.977,3.977,0,0,0-.84-.318,20.7,20.7,0,0,0-2.21-.443c-.776-.115-1.571-.245-2.375-.387-.4-.086-.806-.159-1.211-.269A4.33,4.33,0,0,1,43.76,39.3l.043-.118a11.351,11.351,0,0,0,2.378.187c.8.014,1.608.024,2.414.066a15.547,15.547,0,0,1,2.411.275,4.563,4.563,0,0,1,1.168.4,1.343,1.343,0,0,1,.779,1,1.284,1.284,0,0,1-.609,1.115,3.754,3.754,0,0,1-1.119.534,7.284,7.284,0,0,1-2.42.276,7.437,7.437,0,0,1-4.485-1.675Z" transform="translate(-8.194 -7.481)"/><path class="h" d="M47.523,31.861a14.119,14.119,0,0,0,.42-1.538,3,3,0,0,0,.047-1.252c-.043-.15-.125-.232-.129-.192s.1.126.076.137a2.3,2.3,0,0,0-.749.409,7.536,7.536,0,0,0-1.042.873c-.365.317-.692.69-1.066,1.042a28.174,28.174,0,0,1-2.339,2.219l-.11-.059a24.761,24.761,0,0,1,1.652-2.736,10.3,10.3,0,0,1,2.18-2.357A2.611,2.611,0,0,1,48,27.837a.965.965,0,0,1,.756.411,1.425,1.425,0,0,1,.218.814,4.857,4.857,0,0,1-1.358,2.878Z" transform="translate(-7.772 -3.237)"/><path class="h" d="M27.952,35.447a23.813,23.813,0,0,0-3.985.476,2.976,2.976,0,0,0-.677.311.683.683,0,0,0-.288.351c0,.07.072-.23.046-.234-.005-.035.013.016.056.073a1.964,1.964,0,0,0,.469.424,4.9,4.9,0,0,0,1.506.726A11.443,11.443,0,0,0,26.9,38c1.283.2,2.643.239,4.094.34l.03.121a15.66,15.66,0,0,1-4.154.521,7.4,7.4,0,0,1-4.033-1.119,2.989,2.989,0,0,1-.759-.773,1.469,1.469,0,0,1-.218-.52A.765.765,0,0,1,21.981,36a2.445,2.445,0,0,1,1.829-1.046,11.934,11.934,0,0,1,4.169.376Z" transform="translate(0 -5.873)"/><path class="h" d="M31.476,41.312a19.282,19.282,0,0,1-5.021,2.343,9.813,9.813,0,0,1-1.405.3c-.238.033-.477.068-.718.088L24,44.081a.664.664,0,0,0-.106.017l-.1.023a.671.671,0,1,1-.123.043A.431.431,0,0,0,23.8,44a.465.465,0,0,0,.041-.206c-.011-.08,0-.013.064.058a1.6,1.6,0,0,0,.271.253,3.023,3.023,0,0,0,1.81.615,10.711,10.711,0,0,0,2.366-.277,6.332,6.332,0,0,0,2.181-.948,6.165,6.165,0,0,0,1.723-1.888l.119.038a5.5,5.5,0,0,1-1.381,2.323,6.209,6.209,0,0,1-2.319,1.4A9.841,9.841,0,0,1,26,45.9a4.143,4.143,0,0,1-2.6-.806,1.9,1.9,0,0,1-.779-1.174.764.764,0,0,1,.3-.694,1.466,1.466,0,0,1,.672-.265c.473-.064.9-.04,1.353-.091s.887-.1,1.326-.182a42.812,42.812,0,0,0,5.166-1.492Z" transform="translate(-0.287 -8.232)"/><path class="j" d="M77.489,71.97a2.4,2.4,0,0,1,.518,1.3,2.335,2.335,0,0,1-.408,1.345,13.635,13.635,0,0,1-1.9,2.053l-.044-.045a6.012,6.012,0,0,1,.687-1.27c.249-.385.523-.731.729-1.074a2.764,2.764,0,0,0,.443-.99,3.567,3.567,0,0,0-.077-1.281Z" transform="translate(-20.122 -19.742)"/><path class="j" d="M56.848,66.584a1.319,1.319,0,0,1,.807.991,3.07,3.07,0,0,1-.044,1.3,9.361,9.361,0,0,1-.891,2.241c-.376.687-.769,1.345-1.169,1.99A11.2,11.2,0,0,0,54.5,75.125l-.063,0a6.1,6.1,0,0,1,.667-2.228c.329-.7.7-1.385,1.061-2.072a13.975,13.975,0,0,0,.975-2.1,3.07,3.07,0,0,0,.183-1.124,1.265,1.265,0,0,0-.516-.968Z" transform="translate(-12.187 -17.728)"/><path class="b" d="M53.012,75.432a48.688,48.688,0,0,1,.545-5.374,13.108,13.108,0,0,1,.711-2.611,2.784,2.784,0,0,1,.761-1.124.894.894,0,0,1,.659-.189,1.359,1.359,0,0,1,.625.278l-.037.051c-.952-.463-1.323.4-1.56,1.171a24.469,24.469,0,0,0-.543,2.534,47.889,47.889,0,0,1-1.1,5.268Z" transform="translate(-11.654 -17.557)"/><path class="k" d="M46.776,46.191a3.423,3.423,0,0,1,1.7-.117,1.572,1.572,0,0,1,.855.525,1.967,1.967,0,0,1,.385.93,11.606,11.606,0,0,1-.285,3.344c-.2,1.049-.359,2.082-.491,3.126a15.224,15.224,0,0,0-.116,1.579c-.048.533-.025,1.066-.038,1.616l-.061.013a16.714,16.714,0,0,1,.09-6.442,14.675,14.675,0,0,0,.411-3.184,1.556,1.556,0,0,0-.241-.739,1.24,1.24,0,0,0-.62-.456,3.787,3.787,0,0,0-1.583-.131Z" transform="translate(-9.322 -10.036)"/><path class="l" d="M47.45,57.552a39.869,39.869,0,0,1-2.039-3.561,19.7,19.7,0,0,1-.8-1.894,8.555,8.555,0,0,1-.482-2l.063-.006c.29.649.585,1.237.882,1.835l.9,1.787c.285.605.582,1.208.841,1.838a13.208,13.208,0,0,1,.689,1.964Z" transform="translate(-8.333 -11.561)"/><g class="m" transform="translate(56.49 25.288)"><path class="n" d="M79.852,34.78a1.53,1.53,0,0,0,.743-1.552,4.521,4.521,0,0,0-.486-1.8,3.684,3.684,0,0,0-1.142-1.456,1.512,1.512,0,0,0-1.716-.082l-.068-.105a1.4,1.4,0,0,1,.966-.8,2.155,2.155,0,0,1,1.375.162,3.554,3.554,0,0,1,1.712,1.734,3.829,3.829,0,0,1,.356,2.326,2.519,2.519,0,0,1-.516,1.2,1.248,1.248,0,0,1-1.173.491Z" transform="translate(-77.184 -28.937)"/></g><g class="m" transform="translate(61.301 41.586)"><path class="n" d="M89.347,57.664a1.888,1.888,0,0,0-.8-1.127,2.2,2.2,0,0,0-1.35-.31,2.144,2.144,0,0,0-1.291.493,1.745,1.745,0,0,0-.583,1.241h-.125a1.59,1.59,0,0,1,.044-1.981,2.588,2.588,0,0,1,3.853-.277,1.63,1.63,0,0,1,.377,1.93Z" transform="translate(-84.869 -54.971)"/></g><path class="o" d="M85.5,59.557a1.454,1.454,0,0,0,.94.86,3.3,3.3,0,0,0,1.224.125,3.1,3.1,0,0,0,1.184-.284,1.331,1.331,0,0,0,.741-1.007l.061-.013a1.364,1.364,0,0,1-.495,1.4,2.64,2.64,0,0,1-1.45.524,2.756,2.756,0,0,1-1.509-.32,1.435,1.435,0,0,1-.758-1.288Z" transform="translate(-23.78 -14.981)"/><path class="k" d="M46.764,89.18a1.4,1.4,0,0,1,.48-.657,1.5,1.5,0,0,1,.778-.258,2.9,2.9,0,0,1,1.564.43,4.66,4.66,0,0,1,1.968,2.516l-.059.02a15.482,15.482,0,0,0-1.087-1.145,6.581,6.581,0,0,0-1.139-.851,3.433,3.433,0,0,0-1.221-.476,1.3,1.3,0,0,0-1.226.447Z" transform="translate(-9.317 -25.835)"/><path class="l" d="M50.923,93.2a6.1,6.1,0,0,0-2.452-1.518,8.391,8.391,0,0,1-1.328-.638,1.177,1.177,0,0,1-.485-.568,1.117,1.117,0,0,1,.049-.741l.059.021a1.019,1.019,0,0,0,.2.61,1.234,1.234,0,0,0,.446.268l1.293.469a5.324,5.324,0,0,1,1.335.768,2.685,2.685,0,0,1,.926,1.286Z" transform="translate(-9.262 -26.384)"/><path class="k" d="M57.218,75.465a.665.665,0,0,1,.2.486,1.309,1.309,0,0,1-.127.513,4.97,4.97,0,0,1-.545.886c-.411.555-.857,1.081-1.275,1.626a11.876,11.876,0,0,0-1.161,1.693,4.224,4.224,0,0,0-.575,1.943h-.062a3.28,3.28,0,0,1,.2-2.174,7.888,7.888,0,0,1,1.1-1.848c.44-.549.907-1.057,1.372-1.536a8.587,8.587,0,0,0,.638-.726.749.749,0,0,0,.183-.821Z" transform="translate(-11.861 -21.049)"/><path class="l" d="M53.538,81.356a11.145,11.145,0,0,1,.846-3.908,6.551,6.551,0,0,1,1.059-1.71,2.32,2.32,0,0,1,.805-.612.838.838,0,0,1,.959.182l-.044.044a.692.692,0,0,0-.79.081,2.653,2.653,0,0,0-.563.633,10.1,10.1,0,0,0-.851,1.631c-.258.571-.471,1.169-.692,1.775s-.415,1.232-.666,1.886Z" transform="translate(-11.851 -20.894)"/><path class="k" d="M35.457,70.5a2.634,2.634,0,0,0,.384,1.54,2.715,2.715,0,0,0,1.149.925,11.961,11.961,0,0,0,3.121.8,24.121,24.121,0,0,1,3.384.649,6.925,6.925,0,0,1,1.657.706,4.134,4.134,0,0,1,1.211,1.3l-.046.043A4.6,4.6,0,0,0,45,75.416a6.58,6.58,0,0,0-1.609-.525c-1.113-.235-2.244-.349-3.376-.506a9.928,9.928,0,0,1-3.272-.991,2.865,2.865,0,0,1-1.2-1.211A2.661,2.661,0,0,1,35.4,70.49Z" transform="translate(-5.039 -19.189)"/><path class="l" d="M46.126,74.535c-1-.612-1.876-1.211-2.752-1.779-.451-.267-.863-.57-1.313-.818-.431-.271-.863-.536-1.311-.768-.429-.264-.878-.489-1.324-.707-.439-.24-.9-.413-1.345-.61a6.386,6.386,0,0,0-1.35-.389,1.122,1.122,0,0,0-1.218.4l-.123-.024a1.145,1.145,0,0,1,.449-.72,1.843,1.843,0,0,1,.788-.309,4.716,4.716,0,0,1,1.659.08,11.31,11.31,0,0,1,3.077,1.188,15.724,15.724,0,0,1,4.863,4.382Z" transform="translate(-5.064 -18.545)"/><path class="k" d="M54.271,55.7a.779.779,0,0,1,.622.372,1.261,1.261,0,0,1,.113.779,4.69,4.69,0,0,1-.464,1.308c-.393.8-.868,1.512-1.3,2.233-.454.708-.866,1.421-1.236,2.148a6.1,6.1,0,0,0-.445,1.137,5.169,5.169,0,0,0-.245,1.24l-.062.011a4.983,4.983,0,0,1,.3-2.554,12.763,12.763,0,0,1,1.161-2.312c.457-.731.958-1.431,1.412-2.159a5.155,5.155,0,0,0,.567-1.142.956.956,0,0,0,.013-.61.747.747,0,0,0-.454-.393Z" transform="translate(-10.973 -13.658)"/><path class="l" d="M50.594,63.223a9.223,9.223,0,0,1-.344-2.4,10.362,10.362,0,0,1,.235-2.428,5.694,5.694,0,0,1,1.036-2.314,2.428,2.428,0,0,1,1.117-.8,1.521,1.521,0,0,1,1.278.247l-.022.059a1.488,1.488,0,0,0-1.127,0,2.027,2.027,0,0,0-.843.77,6.683,6.683,0,0,0-.829,2.181,20.573,20.573,0,0,0-.439,4.688Z" transform="translate(-10.62 -13.484)"/><path class="b" d="M37.916,59.092c-.068.226-.026.428.073.458s.187.055.346.089c.295.083.675.141,1.042.224.382.058.753.177,1.147.258.384.108.768.234,1.16.354.379.157.769.3,1.149.483a8.889,8.889,0,0,1,1.11.646,4.549,4.549,0,0,1,1.77,2.008l-.083.094a8.3,8.3,0,0,0-2.087-1.2c-.744-.319-1.509-.587-2.278-.85-.762-.283-1.531-.553-2.281-.886a4.731,4.731,0,0,1-1.074-.62.893.893,0,0,1-.347-.55.76.76,0,0,1,.259-.59Z" transform="translate(-5.875 -14.895)"/><path class="j" d="M45.634,62.437c-.654-.494-1.26-.995-1.848-1.5S42.611,59.945,42,59.515a7.54,7.54,0,0,0-1.876-1.056,2.248,2.248,0,0,0-1.01-.138,2.289,2.289,0,0,0-1.055.346l-.045-.043A2.231,2.231,0,0,1,39.033,58a2.571,2.571,0,0,1,1.193-.018,5.828,5.828,0,0,1,2.144,1.024,17.754,17.754,0,0,1,3.313,3.39Z" transform="translate(-6.047 -14.489)"/><path class="l" d="M73.469,80.091a1.122,1.122,0,0,0-1.017-.39,2.742,2.742,0,0,0-1.022.39,9.062,9.062,0,0,0-1.81,1.5,15.553,15.553,0,0,0-1.534,1.864,8.5,8.5,0,0,0-.644,1.044,10.259,10.259,0,0,0-.569,1.134l-.062-.01A8.749,8.749,0,0,1,69.17,81.16a7.134,7.134,0,0,1,2.055-1.517,2.638,2.638,0,0,1,1.253-.272,1.271,1.271,0,0,1,1.045.687Z" transform="translate(-16.814 -22.508)"/><path class="k" d="M66.795,86.848A6.373,6.373,0,0,1,68.347,84.7a11.272,11.272,0,0,1,.967-.828c.337-.246.686-.47,1.019-.7l1.025-.6c.349-.172.655-.377.967-.538a4.055,4.055,0,0,0,.762-.537,1.249,1.249,0,0,0,.347-.983l.11-.06a1.54,1.54,0,0,1,.172,1.246A2.631,2.631,0,0,1,73,82.744a13.657,13.657,0,0,1-2,1.484,37.829,37.829,0,0,0-4.125,2.718Z" transform="translate(-16.808 -22.913)"/><path class="k" d="M60.818,77.793a1.542,1.542,0,0,1,.531-.689.9.9,0,0,1,.865-.036,3.211,3.211,0,0,1,1.234,1.216,9.693,9.693,0,0,1,1.181,3.238l-.061.013c-.327-.519-.584-1.024-.846-1.514s-.515-.967-.8-1.4a4.089,4.089,0,0,0-.906-1.1.58.58,0,0,0-.488-.133,1.556,1.556,0,0,0-.65.434Z" transform="translate(-14.573 -21.614)"/><path class="l" d="M64.455,83.44a7.441,7.441,0,0,0-2.148-2.567c-.438-.354-.928-.637-1.365-1.013a1.155,1.155,0,0,1-.432-.742,1.673,1.673,0,0,1,.191-.836l.057.026a1.746,1.746,0,0,0,.081.775,1.012,1.012,0,0,0,.429.409,13.662,13.662,0,0,1,1.422.887,5.154,5.154,0,0,1,1.218,1.341,3.961,3.961,0,0,1,.6,1.692Z" transform="translate(-14.456 -22.103)"/><path class="b" d="M66.943,80.189a31.641,31.641,0,0,1,2.544-5.938,11.941,11.941,0,0,1,1.941-2.589,2.875,2.875,0,0,1,1.4-.808,1.245,1.245,0,0,1,.805.135,1.872,1.872,0,0,1,.6.557l-.051.036a2.06,2.06,0,0,0-.644-.412.968.968,0,0,0-.654.009,2.63,2.63,0,0,0-1.12.835,16.513,16.513,0,0,0-1.733,2.55c-.533.9-1.015,1.844-1.511,2.786s-.986,1.9-1.515,2.858Z" transform="translate(-16.864 -19.318)"/><path class="k" d="M72,63.851a.725.725,0,0,1,.1.651,2.889,2.889,0,0,1-.236.62,10.04,10.04,0,0,1-.681,1.129c-.495.726-1.025,1.423-1.544,2.128s-1.05,1.4-1.519,2.138a5.679,5.679,0,0,0-1,2.382l-.063,0a3.172,3.172,0,0,1,.125-1.376,10.083,10.083,0,0,1,.526-1.261A15.566,15.566,0,0,1,69.143,68c.533-.7,1.083-1.376,1.639-2.033.271-.332.55-.658.792-1s.521-.689.379-1.086Z" transform="translate(-16.896 -16.706)"/><path class="l" d="M67.395,69.6a40.991,40.991,0,0,1,1.6-4.246,8.453,8.453,0,0,1,1.19-1.939,1.336,1.336,0,0,1,1-.532,1.533,1.533,0,0,1,.957.606l-.046.041a1.436,1.436,0,0,0-.929-.317,1.2,1.2,0,0,0-.615.532,13.639,13.639,0,0,0-.989,1.875c-.319.66-.618,1.341-.962,2.01a15.782,15.782,0,0,1-1.143,1.99Z" transform="translate(-17.033 -16.342)"/><path class="k" d="M62.193,61.192a1.439,1.439,0,0,1,.542-.7.891.891,0,0,1,.876.012A3.3,3.3,0,0,1,64.8,61.8a9.775,9.775,0,0,1,1.034,3.344l-.062.009c-.3-.543-.537-1.07-.774-1.581s-.471-1.006-.741-1.462a4.156,4.156,0,0,0-.874-1.164.588.588,0,0,0-.486-.163,1.379,1.379,0,0,0-.65.434Z" transform="translate(-15.087 -15.41)"/><path class="l" d="M65.494,67.463a12.185,12.185,0,0,0-2.185-2.711,7.837,7.837,0,0,1-1.116-1.363,1.993,1.993,0,0,1-.273-.845,1.9,1.9,0,0,1,.169-.869l.058.024a1.923,1.923,0,0,0,.472,1.442c.323.381.73.763,1.139,1.175a8.735,8.735,0,0,1,1.124,1.4,4.337,4.337,0,0,1,.666,1.715Z" transform="translate(-14.984 -15.892)"/><path class="k" d="M61.939,48.025a2.213,2.213,0,0,1,1.029-.744,1.39,1.39,0,0,1,1.232.254,4.722,4.722,0,0,1,1.383,2.122,18.6,18.6,0,0,1,.9,4.986l-.063,0c-.149-.413-.238-.826-.374-1.231-.1-.408-.2-.814-.324-1.212-.238-.8-.441-1.588-.729-2.33a5.313,5.313,0,0,0-1.089-1.941,1.072,1.072,0,0,0-.85-.333,2.184,2.184,0,0,0-1.071.467Z" transform="translate(-14.992 -10.489)"/><path class="l" d="M66.032,55.829a4.428,4.428,0,0,0-1-1.976,14.716,14.716,0,0,0-1.6-1.6,16.1,16.1,0,0,1-1.623-1.625,2.343,2.343,0,0,1-.525-1.055,1.356,1.356,0,0,1,.379-1.106l.1.081a1,1,0,0,0,.192.918,4.665,4.665,0,0,0,.634.54,18.751,18.751,0,0,1,1.688,1.32,7.013,7.013,0,0,1,1.537,1.9,3.13,3.13,0,0,1,.344,2.579Z" transform="translate(-14.743 -10.954)"/><path class="b" d="M74.494,48.141a1.888,1.888,0,0,0-.893-.371,1.021,1.021,0,0,0-.707.259,5.815,5.815,0,0,0-1.154,1.462c-.358.56-.677,1.164-1.024,1.765A20.8,20.8,0,0,1,69.6,53.078l-.059-.019a18.319,18.319,0,0,1,1.664-3.9,4.652,4.652,0,0,1,1.44-1.561,1.294,1.294,0,0,1,1.051-.147,1.828,1.828,0,0,1,.843.648Z" transform="translate(-17.836 -10.553)"/><path class="j" d="M68.673,56.929a10.541,10.541,0,0,1,1.37-2.348,20.711,20.711,0,0,1,1.769-2.024c.627-.625,1.261-1.231,1.826-1.839a2.77,2.77,0,0,0,.63-.984,1.452,1.452,0,0,0-.1-1.174l.049-.039a1.581,1.581,0,0,1,.377,1.265A2.97,2.97,0,0,1,74.032,51,19.2,19.2,0,0,1,72.258,53a33.313,33.313,0,0,0-3.535,3.97Z" transform="translate(-17.511 -10.973)"/><path class="j" d="M83.56,79.934a.923.923,0,0,1,.738.087,1.8,1.8,0,0,1,.544.517,5.059,5.059,0,0,1,.64,1.343A13.4,13.4,0,0,1,86.04,84.8a23.938,23.938,0,0,1-.309,5.911L85.67,90.7c-.038-.506-.02-1-.055-1.492,0-.491-.006-.979-.031-1.466-.049-.972-.073-1.935-.167-2.888a20.169,20.169,0,0,0-.4-2.816,5.942,5.942,0,0,0-.44-1.3,1.056,1.056,0,0,0-1-.736Z" transform="translate(-23.078 -22.705)"/><path class="b" d="M84.637,91.272a11.435,11.435,0,0,0-.664-3.077,13.053,13.053,0,0,0-1.445-2.8,13.276,13.276,0,0,1-.859-1.338,4.458,4.458,0,0,1-.439-1.532,2.924,2.924,0,0,1,.247-1.568,1.939,1.939,0,0,1,1.2-1l.018.06a1.841,1.841,0,0,0-.927,1.088,2.589,2.589,0,0,0-.059,1.375A4.737,4.737,0,0,0,82.2,83.8a5.08,5.08,0,0,0,.379.591q.242.326.473.663a10.614,10.614,0,0,1,1.388,2.974,8.089,8.089,0,0,1,.262,3.239Z" transform="translate(-22.2 -22.73)"/><path class="k" d="M94.3,80.939a.7.7,0,0,1,.123.608,1.54,1.54,0,0,1-.29.541,5.746,5.746,0,0,1-.856.828c-.613.5-1.26.941-1.895,1.4A21.067,21.067,0,0,0,89.507,85.7a5.924,5.924,0,0,0-.81.824,2.015,2.015,0,0,0-.465,1.019l-.125-.009a1.91,1.91,0,0,1,.063-1.408,4.6,4.6,0,0,1,.686-1.162,7.316,7.316,0,0,1,.866-.925c.308-.273.635-.508.948-.752.335-.213.661-.427.992-.622.347-.172.661-.376,1.005-.522.326-.168.664-.311.952-.47a2.25,2.25,0,0,0,.393-.234.435.435,0,0,0,.187-.43Z" transform="translate(-24.737 -23.096)"/><path class="l" d="M88.784,85.082a12.384,12.384,0,0,1,2.031-3.863,4.156,4.156,0,0,1,1.768-1.288,1.833,1.833,0,0,1,1.1-.034,1.718,1.718,0,0,1,.888.642l-.05.037a1.632,1.632,0,0,0-1.785-.178,4.719,4.719,0,0,0-1.444,1.228,16.581,16.581,0,0,0-1.225,1.663c-.391.593-.771,1.2-1.225,1.815Z" transform="translate(-25.032 -22.681)"/><path class="k" d="M51.988,82.454c-.133-3.417-.426-6.859-.829-10.275s-.945-6.826-1.685-10.2c.943,3.321,1.686,6.7,2.3,10.105s1.113,6.826,1.459,10.292Z" transform="translate(-10.331 -16.006)"/><path class="p" d="M38.142,105.827c.356.838,1.03.675,1.757.443.719-.249,1.462-.584,2.226-.885a14.977,14.977,0,0,1,4.9-1.239,12.7,12.7,0,0,1,5.031.965c1.549.6,3.079,1.216,4.618,1.865.764.33,1.528.664,2.258,1.017a16.851,16.851,0,0,0,2.121.906,2.621,2.621,0,0,0,1.792.009,3.762,3.762,0,0,0,.813-.463c.28-.193.5-.423.927-.746a7.36,7.36,0,0,1,5.219-1.37,17.724,17.724,0,0,1,2.482.459,4.868,4.868,0,0,0,1.106.162.816.816,0,0,0,.752-.563l.187.022a1.169,1.169,0,0,1-.794,1.144,4.4,4.4,0,0,1-1.339.192c-.848.023-1.645,0-2.412.063a8.178,8.178,0,0,0-2.159.441,6.531,6.531,0,0,0-1.819,1.039c-.226.172-.584.528-.982.8a4.845,4.845,0,0,1-1.352.679,4.075,4.075,0,0,1-1.582.17,5.144,5.144,0,0,1-1.435-.366,23.243,23.243,0,0,1-4.279-2.7,15.293,15.293,0,0,0-4.316-2.192,9.689,9.689,0,0,0-4.666.018c-1.524.284-3.042.655-4.626,1.067a15.321,15.321,0,0,1-2.489.482,2.876,2.876,0,0,1-1.412-.175,1.222,1.222,0,0,1-.565-.534,1.446,1.446,0,0,1-.15-.67Z" transform="translate(-6.024 -31.772)"/><path class="k" d="M65.976,76.177c-.068-2.639,0-5.239.141-7.85s.363-5.208.669-7.8A100.691,100.691,0,0,1,69.756,45.2a100.418,100.418,0,0,0-2.346,15.388q-.3,3.879-.354,7.768c-.031,2.586,0,5.19.171,7.747Z" transform="translate(-16.493 -9.732)"/><path class="k" d="M85.775,88.693c.4-1.183.739-2.433,1.039-3.674s.555-2.5.768-3.772a49.4,49.4,0,0,0,.7-7.69,49.76,49.76,0,0,1-.079,7.768q-.166,1.943-.468,3.875c-.2,1.291-.438,2.562-.762,3.858Z" transform="translate(-23.907 -20.336)"/><path class="q" d="M74.076,101.705a2.116,2.116,0,0,0-.637-1.032,7.171,7.171,0,0,0-.956-.828,21.644,21.644,0,0,0-2.174-1.41c-.743-.453-1.492-.878-2.259-1.254s-1.515-.759-2.294-1.068a26.72,26.72,0,0,0-4.707-1.472,20.4,20.4,0,0,0-4.787-.528,16.165,16.165,0,0,0-2.358.11c-.39.048-.75.108-1.134.193l-1.156.285c-1.632.4-3.27,1-4.922,1.535-.826.275-1.627.6-2.444.9s-1.613.635-2.391,1a15.574,15.574,0,0,0-2.249,1.189,4.958,4.958,0,0,0-.947.768,1.7,1.7,0,0,0-.528,1.047l-.244.053a2,2,0,0,1,.26-1.385,5.225,5.225,0,0,1,.844-1.094,13.724,13.724,0,0,1,2.122-1.706,35.788,35.788,0,0,1,4.755-2.579A47,47,0,0,1,50.9,92.448a16.561,16.561,0,0,1,5.369-.836,22.506,22.506,0,0,1,10.42,2.74,26.657,26.657,0,0,1,4.482,3.038,17.8,17.8,0,0,1,1.962,1.877,7.285,7.285,0,0,1,.811,1.107,2.308,2.308,0,0,1,.381,1.35Z" transform="translate(-5.984 -27.088)"/><path class="i" d="M35.622,32.174a7.176,7.176,0,0,0-2.855-2.224,2.09,2.09,0,0,0-2.321.3.753.753,0,0,0-.131.211.761.761,0,0,0-.043.134,1.008,1.008,0,0,0,.048.438,3.468,3.468,0,0,0,.816,1.245,19.18,19.18,0,0,0,3,2.371l-.034.12a10.2,10.2,0,0,1-3.585-1.727,4.212,4.212,0,0,1-1.283-1.556,2.083,2.083,0,0,1-.173-1.024,1.972,1.972,0,0,1,.391-.97,2.423,2.423,0,0,1,1.817-.886,3.711,3.711,0,0,1,1.962.469,5.813,5.813,0,0,1,2.507,3.047Z" transform="translate(-2.693 -3.524)"/><path class="i" d="M45.738,36.536c1.613-.56,3.227-.975,4.636-1.573a9.8,9.8,0,0,0,.958-.5,2.009,2.009,0,0,0,.619-.552.587.587,0,0,0,.122-.424,1.025,1.025,0,0,0-.073-.3,1.657,1.657,0,0,0-.148-.306c-.07-.073.047-.038-.12-.074a2.528,2.528,0,0,0-.8.162,20.262,20.262,0,0,0-2.13.925A14.662,14.662,0,0,1,44,35.559l-.041-.118A26.288,26.288,0,0,0,48.3,33.058,15.879,15.879,0,0,1,50.5,31.881a3.4,3.4,0,0,1,1.248-.284,1.334,1.334,0,0,1,1.15.614,2.64,2.64,0,0,1,.389,1.235,1.765,1.765,0,0,1-.431,1.221A4.686,4.686,0,0,1,50.672,35.9a22.3,22.3,0,0,1-4.926.757Z" transform="translate(-8.267 -4.643)"/><g class="m" transform="translate(30.57 29.07)"><path class="n" d="M40.869,36.8a1.97,1.97,0,0,0-1.311-.634,3.558,3.558,0,0,0-1.491.145,2.7,2.7,0,0,0-1.27.752,2.047,2.047,0,0,0-.511,1.365l-.125.005a1.739,1.739,0,0,1-.113-2.024,2.788,2.788,0,0,1,1.656-1.3,3,3,0,0,1,1.991.066,2.367,2.367,0,0,1,.875.57,1.828,1.828,0,0,1,.3.451,1.782,1.782,0,0,1,.091.265,1.424,1.424,0,0,1,.005.257Z" transform="translate(-35.779 -34.978)"/></g><path class="i" d="M39.689,41.089a14.57,14.57,0,0,0-.223,4.06,3.94,3.94,0,0,0,.208.783c.086.215.217.327.235.3,0-.034-.039-.008.124-.053.09-.021.5-.232.784-.368a6.179,6.179,0,0,0,1.519-.868.957.957,0,0,0,.409-.967,5.19,5.19,0,0,0-.67-1.7c-.322-.608-.724-1.2-1.095-1.849l.083-.093a15.515,15.515,0,0,1,1.518,1.518,5.423,5.423,0,0,1,1.11,1.853,2.08,2.08,0,0,1,.044,1.107,2.12,2.12,0,0,1-.562.958,6.48,6.48,0,0,1-1.824,1.173,7.665,7.665,0,0,1-1.007.416,1.312,1.312,0,0,1-1.117-.165,1.753,1.753,0,0,1-.6-.943,4.02,4.02,0,0,1-.145-1.084,9.345,9.345,0,0,1,1.1-4.133Z" transform="translate(-6.219 -7.911)"/><path class="o" d="M36.5,39.488c.269.566.666.488,1.109.428a7.474,7.474,0,0,0,1.368-.439,10.859,10.859,0,0,0,1.334-.634,3.342,3.342,0,0,0,.574-.4.616.616,0,0,0,.252-.6l.051-.036a.726.726,0,0,1-.018.8,2.433,2.433,0,0,1-.548.616,5.676,5.676,0,0,1-1.41.833,4.558,4.558,0,0,1-1.6.354,1.469,1.469,0,0,1-.8-.2.855.855,0,0,1-.374-.721Z" transform="translate(-5.456 -6.964)"/><path class="r" d="M89.59,58.292a2.313,2.313,0,0,0-1.02-.833,2.58,2.58,0,0,0-1.133-.16,2.486,2.486,0,0,0-1.094.31,2.073,2.073,0,0,0-.841.988h-.063a1.786,1.786,0,0,1,.575-1.354,2.314,2.314,0,0,1,1.38-.568,2.365,2.365,0,0,1,1.446.371,1.913,1.913,0,0,1,.81,1.23Z" transform="translate(-23.781 -14.021)"/><path class="r" d="M41.138,37.384a2.56,2.56,0,0,0-1.384-.275,5.136,5.136,0,0,0-1.317.225,3.412,3.412,0,0,0-1.14.556,2.55,2.55,0,0,0-.8,1.143l-.063,0a2.069,2.069,0,0,1,.491-1.469,2.875,2.875,0,0,1,1.329-.832,3.7,3.7,0,0,1,1.566-.115,1.99,1.99,0,0,1,1.364.725Z" transform="translate(-5.454 -6.508)"/><path class="f" d="M79.875,35.161a1.625,1.625,0,0,0,.388-1.573,6.1,6.1,0,0,0-.538-1.62,4.545,4.545,0,0,0-.938-1.363,1.545,1.545,0,0,0-1.543-.391l-.034-.053a1.609,1.609,0,0,1,.93-.282,1.779,1.779,0,0,1,.922.318,3.838,3.838,0,0,1,1.226,1.5,4.683,4.683,0,0,1,.468,1.881,2.311,2.311,0,0,1-.171.96,1.248,1.248,0,0,1-.685.679Z" transform="translate(-20.703 -4.001)"/><path class="s" d="M76.869,30.383A1.816,1.816,0,0,0,76.7,31.9a6.56,6.56,0,0,0,.564,1.467,5.784,5.784,0,0,0,.865,1.292,1.779,1.779,0,0,0,1.367.667l.023.058a1.687,1.687,0,0,1-1.695-.339,4.288,4.288,0,0,1-1.117-1.392,4.636,4.636,0,0,1-.5-1.714,1.69,1.69,0,0,1,.622-1.611Z" transform="translate(-20.326 -4.17)"/></g></svg>