<svg xmlns="http://www.w3.org/2000/svg" width="50.257" height="47.534" viewBox="0 0 50.257 47.534">
  <g id="Group_3485" data-name="Group 3485" transform="translate(-372 -2695)">
    <path id="np_language_3325148_0FC1E7" d="M47.088,21.505H33.718v-9.24a5.63,5.63,0,0,0-5.624-5.624H8.061a5.63,5.63,0,0,0-5.624,5.624V24.792a5.556,5.556,0,0,0,.95,3.113c1.982,3.815,11.124,9.456,11.222,9.513a1.285,1.285,0,0,0,.644.182A1.232,1.232,0,0,0,16.4,35.9a34.522,34.522,0,0,1-1.536-5.517h6.606v9.249a5.624,5.624,0,0,0,5.582,5.615H40.266a34.552,34.552,0,0,1-1.536,5.5,1.232,1.232,0,0,0,1.148,1.7,1.285,1.285,0,0,0,.644-.182c.1-.058,9.24-5.7,11.222-9.513a5.567,5.567,0,0,0,.95-3.121v-12.5A5.634,5.634,0,0,0,47.087,21.5ZM18.9,27.9H13.379a1.278,1.278,0,0,0-.941.438,1.233,1.233,0,0,0-.281.991c0,.116.3,1.908.826,4.038-2.775-1.932-6.425-4.74-7.432-6.606a1.246,1.246,0,0,0-.124-.231,3.016,3.016,0,0,1-.562-1.784V12.264a3.154,3.154,0,0,1,3.2-3.146H28.094a3.153,3.153,0,0,1,3.146,3.146V21.5H27.054c-1.621,0-5.718,1.069-5.624,5.615v.826Zm31.38,11.727a3.016,3.016,0,0,1-.562,1.784,1.179,1.179,0,0,0-.124.223c-.974,1.85-4.633,4.666-7.432,6.606a35.066,35.066,0,0,0,.826-4.038,1.233,1.233,0,0,0-.281-.991,1.255,1.255,0,0,0-.933-.446H27.054a3.146,3.146,0,0,1-3.146-3.138v-12.5a3.153,3.153,0,0,1,3.146-3.146H47.088a3.153,3.153,0,0,1,3.146,3.146ZM41.547,35.04l-3.3-8.258a.659.659,0,0,0-.066-.132l-.05-.083a.513.513,0,0,0-.083-.107l-.066-.083-.091-.074-.1-.05a.351.351,0,0,0-.091-.05l-.124-.066a.335.335,0,0,0-.091,0L37.36,26.1h-.479l-.14.041a.277.277,0,0,0-.083,0l-.124.066-.124.05a.792.792,0,0,0-.091.074l-.091.074-.074.083a1.349,1.349,0,0,0-.083.107v.083L36,26.807,31.043,39.194a1.239,1.239,0,0,0,.694,1.652,1.148,1.148,0,0,0,.462.091,1.247,1.247,0,0,0,1.148-.776l1.338-3.353h4.955l1.338,3.353a1.257,1.257,0,0,0,1.156.776,1.1,1.1,0,0,0,.454-.091,1.239,1.239,0,0,0,.694-1.652Zm-5.921-.76L37.1,30.6l1.47,3.683Z" transform="translate(369.563 2690.086)" fill="#0fc1e7"/>
    <text id="ع" transform="translate(392 2709)" fill="#18c6ec" font-size="13" font-family="SegoeUI, Segoe UI"><tspan x="-6.513" y="0">ع</tspan></text>
  </g>
</svg>
