<svg xmlns="http://www.w3.org/2000/svg" width="56.661" height="50" viewBox="0 0 56.661 50"><defs><style>.a{fill:#f6bf65;}</style></defs><path class="a" d="M59.008,21.914a15.67,15.67,0,0,0-12.513,6.163,15.672,15.672,0,0,0-12.513-6.163A15.832,15.832,0,0,0,18.165,37.73c0,8.211,4.835,16.685,13.981,24.524a75.961,75.961,0,0,0,13.8,9.386l.546.275.546-.275a75.974,75.974,0,0,0,13.8-9.386C69.99,54.419,74.826,45.941,74.826,37.73A15.832,15.832,0,0,0,59.01,21.914ZM46.494,69.154c-3.785-2.04-25.9-14.687-25.9-31.434a13.373,13.373,0,0,1,24.855-6.858L46.495,32.6l1.043-1.738a13.356,13.356,0,0,1,21.106-2.406L46.494,50.609l-9.57-9.57L35.207,42.76,46.494,54.051,70.176,30.369a13.3,13.3,0,0,1,2.214,7.362c0,16.731-22.112,29.39-25.9,31.423Z" transform="translate(-18.165 -21.914)"/></svg>