<svg xmlns="http://www.w3.org/2000/svg" width="50" height="50" viewBox="0 0 50 50"><defs><style>.a{fill:#f6bf65;}</style></defs><g transform="translate(-1.564 -1.562)"><path class="a" d="M14.062,79.688h1.613V81.3H14.062Z" transform="translate(-6.048 -37.803)"/><path class="a" d="M45.918,30.594H38.442l.185-2.044a3.215,3.215,0,0,0-1.581-6.02h-5.26l.734-1.831a3.009,3.009,0,0,0,1.115.218h.371a3.036,3.036,0,0,0,2.909-2.206,3.009,3.009,0,0,0,3.619-.5l.262-.262a3.034,3.034,0,0,0,.5-3.617,3.036,3.036,0,0,0,2.2-2.909v-.371a3.036,3.036,0,0,0-2.206-2.909,3.034,3.034,0,0,0-.5-3.617l-.262-.262a3.031,3.031,0,0,0-3.617-.5,3.035,3.035,0,0,0-2.909-2.208h-.371a3.036,3.036,0,0,0-2.909,2.206,3.034,3.034,0,0,0-3.617.5l-.262.262a3.034,3.034,0,0,0-.5,3.617,3.036,3.036,0,0,0-2.206,2.909V8.014a3.226,3.226,0,1,0-6.452,0v.641c-.077-.032-.151-.073-.23-.1a7.45,7.45,0,0,0-4.683-.206l-1.016.29A3.309,3.309,0,0,0,9.035,7.207h-.1A3.331,3.331,0,0,0,6.06,12.233l-.595.792a7.415,7.415,0,0,0-.425,8.262l.746,1.242h-1a3.215,3.215,0,0,0-1.583,6.02L4.525,43.058a4.014,4.014,0,0,0,4.016,3.665h7.6a5.649,5.649,0,0,0,5.58,4.839H45.918a5.652,5.652,0,0,0,5.645-5.645V36.239a5.652,5.652,0,0,0-5.645-5.645ZM28.561,22.53l1.407-3.52a3.043,3.043,0,0,0,.758-.3,2.993,2.993,0,0,0,.468.96L30.049,22.53Zm-.575-7.738a1.3,1.3,0,0,1,.181-.153l.54-.387,2.518-.419-.419,2.52-.387.542a1.618,1.618,0,0,1-.151.179,1.431,1.431,0,0,1-2.02,0l-.262-.262a1.431,1.431,0,0,1,0-2.02Zm7.448-3.552a1.613,1.613,0,1,1-1.613-1.613A1.615,1.615,0,0,1,35.434,11.24ZM34.007,19.3h-.371a1.43,1.43,0,0,1-1.427-1.427,1.331,1.331,0,0,1,.02-.236l.56-3.361a3.132,3.132,0,0,0,1.032.185,3.184,3.184,0,0,0,1.032-.185l.56,3.359a1.354,1.354,0,0,1,.02.238A1.43,1.43,0,0,1,34.007,19.3Zm5.647-2.492-.262.262a1.43,1.43,0,0,1-2.018,0,1.46,1.46,0,0,1-.153-.181l-.387-.54-.419-2.518,2.52.419.54.385a1.656,1.656,0,0,1,.181.153,1.427,1.427,0,0,1,0,2.018Zm2.232-5.758v.371a1.439,1.439,0,0,1-1.663,1.407l-3.361-.56a2.965,2.965,0,0,0,0-2.065l3.363-.56a1.442,1.442,0,0,1,1.661,1.407ZM37.374,5.407a1.433,1.433,0,0,1,2.02,0l.262.262a1.429,1.429,0,0,1,0,2.018,1.3,1.3,0,0,1-.181.153l-.54.385-2.518.419.419-2.52.387-.542a1.545,1.545,0,0,1,.151-.175ZM33.636,3.175h.371A1.43,1.43,0,0,1,35.434,4.6a1.331,1.331,0,0,1-.02.236L34.853,8.2a3.132,3.132,0,0,0-1.032-.185,3.184,3.184,0,0,0-1.032.185l-.56-3.359a1.354,1.354,0,0,1-.02-.238,1.43,1.43,0,0,1,1.427-1.427ZM27.989,5.667l.262-.262a1.43,1.43,0,0,1,2.018,0,1.459,1.459,0,0,1,.153.181l.387.54.419,2.518-2.52-.417-.54-.385a1.657,1.657,0,0,1-.181-.153,1.429,1.429,0,0,1,0-2.02Zm-2.232,5.387A1.434,1.434,0,0,1,27.42,9.647l3.361.56a2.965,2.965,0,0,0,0,2.065l-3.363.56a1.445,1.445,0,0,1-1.661-1.407Zm.593,3.28a3.034,3.034,0,0,0,.5,3.617l.262.262a2.988,2.988,0,0,0,1.157.712l-1.444,3.6H24.144V11.426a3.036,3.036,0,0,0,2.206,2.909ZM19.305,8.014a1.613,1.613,0,1,1,3.226,0V22.531H19.305ZM13.223,9.9a5.676,5.676,0,0,1,4.472.55v7.655l-5.028-8.046ZM8.928,8.821h.1a1.71,1.71,0,0,1,1.458.808l7.2,11.52V22.53H14.307l1.413-.942-.9-1.343-1.486.99-1.012-1.687,1.78-1.186-.9-1.343L11.5,18.163l-1.012-1.687,2.01-1.341-.9-1.343-1.946,1.3-2.2-3.665a1.719,1.719,0,0,1,1.474-2.6ZM6.422,20.46a5.8,5.8,0,0,1,.333-6.466l.2-.266,5.282,8.8H7.664ZM4.789,24.144H37.047a1.613,1.613,0,1,1,0,3.226H4.789a1.613,1.613,0,0,1,0-3.226ZM6.132,42.91,4.866,28.982h32.1L36.824,30.6h-15.1a5.652,5.652,0,0,0-5.645,5.645v5.645H11.24V43.5h4.839v1.613H8.541a2.408,2.408,0,0,1-2.409-2.2ZM49.95,45.918a4.036,4.036,0,0,1-4.032,4.032H21.725a4.036,4.036,0,0,1-4.032-4.032V36.24a4.036,4.036,0,0,1,4.032-4.032H45.918A4.036,4.036,0,0,1,49.95,36.24Z" transform="translate(0)"/><path class="a" d="M39.164,73.438H37.551v1.613H35.938v1.613h1.613v1.613h1.613V76.664h1.613V75.051H39.164Z" transform="translate(-16.633 -34.779)"/><path class="a" d="M48.438,78.579H64.567V64.063H48.438Zm1.613-12.9h12.9v11.29h-12.9Z" transform="translate(-22.681 -30.242)"/><path class="a" d="M85.232,67.188a2.419,2.419,0,1,0,2.419,2.419A2.421,2.421,0,0,0,85.232,67.188Zm0,3.226a.806.806,0,1,1,.806-.806A.808.808,0,0,1,85.232,70.414Z" transform="translate(-39.314 -31.754)"/><path class="a" d="M85.232,79.688a2.419,2.419,0,1,0,2.419,2.419A2.421,2.421,0,0,0,85.232,79.688Zm0,3.226a.806.806,0,1,1,.806-.806A.808.808,0,0,1,85.232,82.914Z" transform="translate(-39.314 -37.803)"/><path class="a" d="M54.688,82.812H56.3v1.613H54.688Z" transform="translate(-25.705 -39.314)"/><path class="a" d="M60.938,82.812H67.39v1.613H60.938Z" transform="translate(-28.729 -39.314)"/></g></svg>