<svg xmlns="http://www.w3.org/2000/svg" width="60" height="63" viewBox="0 0 60 63"><defs><style>.a{fill:#00759b;}</style></defs><path class="a" d="M34,3a7.483,7.483,0,0,0-5.619,2.4A7.642,7.642,0,0,0,26.5,10.5a7.642,7.642,0,0,0,1.881,5.1,7.786,7.786,0,0,0,11.238,0A7.642,7.642,0,0,0,41.5,10.5a7.642,7.642,0,0,0-1.881-5.1A7.483,7.483,0,0,0,34,3Zm0,4.5a2.7,2.7,0,0,1,2.256.885,3.378,3.378,0,0,1,0,4.23A2.7,2.7,0,0,1,34,13.5a2.7,2.7,0,0,1-2.256-.885,3.378,3.378,0,0,1,0-4.23A2.7,2.7,0,0,1,34,7.5ZM17.5,12a8.933,8.933,0,0,0-6.744,2.865,9.469,9.469,0,0,0,0,12.269A8.933,8.933,0,0,0,17.5,30a8.933,8.933,0,0,0,6.744-2.865,9.469,9.469,0,0,0,0-12.269A8.933,8.933,0,0,0,17.5,12Zm33,0a8.933,8.933,0,0,0-6.744,2.865,9.469,9.469,0,0,0,0,12.269,9.37,9.37,0,0,0,13.488,0,9.469,9.469,0,0,0,0-12.269A8.933,8.933,0,0,0,50.5,12Zm-33,4.5a4.146,4.146,0,0,1,3.381,1.353,4.983,4.983,0,0,1,0,6.293A4.146,4.146,0,0,1,17.5,25.5a4.146,4.146,0,0,1-3.381-1.353,4.983,4.983,0,0,1,0-6.293A4.146,4.146,0,0,1,17.5,16.5Zm33,0a4.146,4.146,0,0,1,3.381,1.353,4.983,4.983,0,0,1,0,6.293A4.146,4.146,0,0,1,50.5,25.5a4.146,4.146,0,0,1-3.381-1.353,4.983,4.983,0,0,1,0-6.293A4.146,4.146,0,0,1,50.5,16.5ZM34,27a8.933,8.933,0,0,0-6.744,2.865,9.469,9.469,0,0,0,0,12.269A8.933,8.933,0,0,0,34,45a8.933,8.933,0,0,0,6.744-2.865,9.469,9.469,0,0,0,0-12.269A8.933,8.933,0,0,0,34,27Zm0,4.5a4.146,4.146,0,0,1,3.381,1.353,4.983,4.983,0,0,1,0,6.293A4.146,4.146,0,0,1,34,40.5a4.146,4.146,0,0,1-3.381-1.353,4.983,4.983,0,0,1,0-6.293A4.146,4.146,0,0,1,34,31.5ZM9.25,33A5.256,5.256,0,0,0,4,38.25V42c0,5.04,5.925,9,13.5,9h.316a8.286,8.286,0,0,1,4.723-5.355A14.694,14.694,0,0,1,17.5,46.5c-5.145,0-9-2.37-9-4.5V38.25a.743.743,0,0,1,.75-.75H22.091a12.271,12.271,0,0,1,.284-4.5Zm36.375,0a12.271,12.271,0,0,1,.284,4.5H58.75a.743.743,0,0,1,.75.75V42c0,2.13-3.855,4.5-9,4.5a14.694,14.694,0,0,1-5.039-.855A8.286,8.286,0,0,1,50.184,51H50.5C58.075,51,64,47.04,64,42V38.25A5.256,5.256,0,0,0,58.75,33ZM25.75,48a5.285,5.285,0,0,0-5.25,5.25V57c0,2.877,1.92,5.222,4.389,6.7A17.779,17.779,0,0,0,34,66a17.779,17.779,0,0,0,9.111-2.3C45.58,62.222,47.5,59.877,47.5,57V53.25A5.285,5.285,0,0,0,42.25,48Zm0,4.5h16.5a.717.717,0,0,1,.75.75V57c0,.85-.6,1.883-2.2,2.845A13.659,13.659,0,0,1,34,61.5a13.658,13.658,0,0,1-6.8-1.655C25.6,58.883,25,57.85,25,57V53.25A.717.717,0,0,1,25.75,52.5Z" transform="translate(-4 -3)"/></svg>