<svg xmlns="http://www.w3.org/2000/svg" xmlns:xlink="http://www.w3.org/1999/xlink" width="519.8" height="341.75" viewBox="0 0 519.8 341.75"><defs><style>.a{fill:none;}.b{fill:#c3e8fb;}.c{fill:#57b8e8;}.d{fill:#0b2d4e;}.e{fill:#1fa1d1;}.f{fill:#061f33;}.g{fill:#0f7ea7;}.h{clip-path:url(#a);}.i{fill:#1bd7de;}.j{fill:#2f95d2;}.k{fill:#f8a17a;}.l{fill:#e5785c;}.m{fill:#d8f1fd;}.n{fill:#79c6ed;}.o{fill:#73b8d4;}.p{fill:#0098d7;}.q{fill:#e1f4fd;}</style><clipPath id="a"><path class="a" d="M1904.869,946.569c8.2,1.785,15.865,5.089,23.2,8.652,9.837,4.784,16.846,8,20,17.839a166.085,166.085,0,0,1,6.811,33.4c3.471,32.99-1.12,66.065-1.011,99.075.012,3.247-.039,6.618-1.685,9.535-3.25,5.753-12.076,5.835-18.434,5.823l-62.877-.093a124.083,124.083,0,0,0-23.568,2.359,15.1,15.1,0,0,1-16.11-7.307c-3.13-5.231-3.367-11.344-3.7-17.226a324.32,324.32,0,0,0-11.228-67.937c-1.743-6.312-4.8-14.564-7.179-23.238-3.94-14.393-5.986-29.12,2.948-38.926,4.033-4.428,11.22-7.511,17.1-9.7,11.472-4.276,23.2-10.024,35.485-11.888a157.183,157.183,0,0,1,23.353-2.021,79.644,79.644,0,0,1,16.9,1.655" transform="translate(-1805.724 -944.914)"/></clipPath></defs><g transform="translate(171.052 23.969)"><rect class="b" width="22.851" height="9.772" transform="translate(87.158 69.464)"/><path class="b" d="M1951.77,985.751h57.379v-9.771H1951.77Z" transform="translate(-1915.276 -824.678)"/><path class="b" d="M1951.77,1076.131h57.379v-9.771H1951.77Z" transform="translate(-1915.276 -880.042)"/><path class="b" d="M1951.77,1166.5h57.379v-9.771H1951.77Z" transform="translate(-1915.276 -935.4)"/><path class="b" d="M1384.15,1166.5h57.379v-9.771H1384.15Z" transform="translate(-1127.741 -935.4)"/><path class="b" d="M1384.15,1256.881h57.379v-9.771H1384.15Z" transform="translate(-1127.741 -990.763)"/><path class="c" d="M1866.551,775.045c10.383,10.683.965,36.786-15.594,33.009-17.791-4.059-15.114-31.787.973-36.339,6.276-1.775,11.278-.108,14.622,3.331" transform="translate(-1733.218 -699.112)"/><path class="d" d="M1849.972,695.823a29.644,29.644,0,0,0,13.983,8.032c10.368,2.371,20.108-2.193,28.755-7.45,9.24-5.618,18.457-11.31,27.175-17.722,6.23-4.585,12.611-9.457,16.5-16.309,4.5-7.944,4.766-17.494,3.847-26.361-.628-6.056,2.2-11.491,3.44-17.264,2.421-11.24-.058-24.51-10.542-30.957-5.35-3.29-10.949-2.8-16.578-.383-4.316,1.854-8.337,4.433-12.855,5.717-9.62,2.732-20.054-1.03-29.472-2.968-6.823-1.4-14.281-2.138-21.011.113-7.489,2.505-11.049,7.985-15.137,14.325-3.5,5.419-8.8,9.51-13.021,14.331-5.661,6.461-7.381,14.629-5.475,22.956,2.793,12.218,9.822,22.719,15.924,33.438,3.9,6.853,8.458,14.682,14.471,20.5" transform="translate(-1799.148 -585.458)"/><path class="e" d="M1671.457,1058.409c-12.452-19.186-20.2-42.734-9.38-64.4,1.1-2.2,2.414-4.593,4.742-5.367,5.01-1.665,11.8.125,16.156,2.68,15.11,8.862,24.354,25.541,32.839,40.384,8.818,15.416,16.474,31.464,25.334,46.856,3.592,6.238,7.214,12.553,9.14,19.488,1.685,6.071,1.871,13.022-.43,18.961-9.946,25.687-37.295-5.777-45.621-15.28a380.183,380.183,0,0,1-32.781-43.327" transform="translate(-1543.467 -832.042)"/><path class="f" d="M1850.229,757.193a16.228,16.228,0,0,0,4.646,3.493c4.537,2.248,9.972,2.139,14.815.653s9.187-4.241,13.32-7.163c11.189-7.9,25.025-18.362,31.681-30.512,4.107-7.489,7.152-16.33,3.223-24.505a22.814,22.814,0,0,0-18.074-12.95,3.62,3.62,0,0,0-1.9.191,3.84,3.84,0,0,0-1.46,1.585c-2.828,4.646-5.087,9.705-8.543,13.943a51,51,0,0,1-13.49,11.135c-8.2,4.977-17.206,8.648-24.92,14.35-5.572,4.118-5.715,13.384-4.359,19.815a21.037,21.037,0,0,0,5.064,9.967" transform="translate(-1784.287 -647.15)"/><path class="g" d="M1809.084,1007.452c-3.94-14.4-5.986-29.12,2.948-38.926,4.033-4.428,11.22-7.511,17.1-9.7,11.472-4.276,23.2-10.024,35.485-11.888,12.948-1.965,27.345-3.176,40.25-.366,8.2,1.785,15.865,5.089,23.2,8.652,9.837,4.783,16.846,8,20,17.838a166.091,166.091,0,0,1,6.811,33.4c3.471,32.99-1.12,66.065-1.011,99.075.012,3.247-.039,6.617-1.685,9.535-3.25,5.754-12.076,5.835-18.434,5.823l-62.877-.093c-8.721-.012-16.329-.017-26.169.093a15.1,15.1,0,0,1-16.11-7.307c-3.13-5.23-3.367-11.344-3.7-17.225-1.306-22.878-2.467-43.389-8.627-65.674-1.743-6.307-4.8-14.56-7.179-23.234" transform="translate(-1805.724 -805.649)"/></g><g transform="translate(171.052 163.235)"><g class="h"><path class="i" d="M1917.093,956.219c-4.436-7.157-5.443-16.1.368-22.994,2.654-3.153,7.353-3.506,11.375-3.578a99.539,99.539,0,0,1,23.541,2.392c7.342,1.647,14.831,4.437,18.011,11.547a17.149,17.149,0,0,1-1.577,16.226,20.827,20.827,0,0,1-12.75,8.833c-8.45,1.926-18.341,1.666-26.4-1.577a27.231,27.231,0,0,1-12.565-10.849" transform="translate(-1863.026 -935.552)"/></g></g><g transform="translate(0 0)"><path class="e" d="M2104.483,1065.2q-4.777,8.613-9.453,17.28c-6.3,11.747-18.008,37.845.732,44.291,9.438,3.247,14.839.07,21.081-6.807a397.486,397.486,0,0,0,59.692-86.483c5.939-11.646,21.7-42,2.553-48.936a23.256,23.256,0,0,0-18.678,1.366,37.559,37.559,0,0,0-7.082,5.228c-13.82,12.324-23.661,28.225-32.413,44.354-5.413,9.969-10.953,19.825-16.431,29.708" transform="translate(-1975.208 -805.134)"/><path class="e" d="M2105,1281.8q-2.476-.418-4.955-.806-12.071-1.871-24.025-4.432a412.983,412.983,0,0,0-47.708-7.8q-2.557-.244-5.11-.434c-7.2-.546-14.746-.732-21.328,2.623s-11.809,11.309-10.186,18.984c1.139,5.4,5.362,9.461,10.054,11.515s9.849,2.422,14.909,2.762q24.594,1.662,49.188,3.32,12.175.813,24.35,1.67c7.753.538,15.621,1.623,23.393,1.631,3.29,0,6.958-.6,9.717-2.735,3.836-2.975,6.137-9.318,6.5-14.277.189-2.577-.329-5.707-2.352-7.3a8.236,8.236,0,0,0-3.778-1.356c-6.23-1.135-12.433-2.313-18.667-3.363" transform="translate(-1880.254 -979.603)"/><rect class="j" width="77.747" height="15.218" transform="translate(288.224 308.017)"/><path class="j" d="M1296.688,1157.3l19.62-99.892a5.627,5.627,0,0,1,5.521-4.541h130.434a5.574,5.574,0,0,1,4.521,2.321l.019-.019,6.021,7.121-5.343-1.17-19.318,98.346a5.626,5.626,0,0,1-5.521,4.545H1302.205a5.623,5.623,0,0,1-5.517-6.71" transform="translate(-944.057 -847.809)"/><path class="d" d="M1429.975,1182.169H1299.542a5.624,5.624,0,0,1-5.521-6.71l19.62-99.888a5.627,5.627,0,0,1,5.521-4.541H1449.6a5.626,5.626,0,0,1,5.521,6.71l-19.624,99.889a5.627,5.627,0,0,1-5.521,4.541" transform="translate(-935.427 -858.933)"/><path class="j" d="M1488.925,1188.78c-1.2,6.737-7.644,12.2-14.382,12.2s-11.146-5.463-9.845-12.2,7.737-12.2,14.378-12.2,11.05,5.463,9.849,12.2" transform="translate(-1035.402 -923.59)"/><path class="k" d="M1841.462,1333.24c3.875.8,6.9,4.2,10.763,5.342a13.232,13.232,0,0,0,8.342-.612c2.433-.911,4.9-1.4,7.4-2.2,1.945-.62,4.572-1.933,6.664-1.5,5.478,1.143,10.941,5.04,15.908,7.57a5.769,5.769,0,0,0,3.568.922c1.232-.232,2.259-1.724,1.557-2.766,1.43,1.337,3.32,4.006,5.626,2.971a1.928,1.928,0,0,0,.988-2.565,7.816,7.816,0,0,0,2.72,2.2,2.665,2.665,0,0,0,3.173-.74,3.188,3.188,0,0,0,.422-1.584,11.966,11.966,0,0,0-1.275-5.51c-3.909-8.535-12.755-14.87-20.282-19.957a16.214,16.214,0,0,0-4.223-2.278,14.649,14.649,0,0,0-4.273-.473,85.159,85.159,0,0,0-27.516,4.444c-1.914.647-4.022.1-5.928-.259a9.212,9.212,0,0,0-4.269-.124,7.357,7.357,0,0,0-3.681,2.979,13.83,13.83,0,0,0-2.844,8.59c.155,2.286.329,4.758,3.022,5.238,1.092.194,2.216.074,3.32.19a8.019,8.019,0,0,1,.814.124" transform="translate(-1598.164 -1006.579)"/><path class="k" d="M1937.341,915.514c-5.7-1.829-10.4-5.372-12.157-11.007-1.6-5.113.922-10.866,1.367-16.026a97.662,97.662,0,0,0,.163-14.87c-.3-4.578-.74-9.346-.035-13.909.4-2.608,1.833-2.161,4.471-3.2s5.595-1.046,8.461-1.039c5.87.014,21.173-.412,24.8,4.739,1.666,2.365,1.794,5.34,1.875,8.155.1,3.4.7,7.8,1.256,12.542.248,2.111.093,4.215.418,6.311a39.37,39.37,0,0,0,2.034,6.847c2.952,8.5.186,16.592-9.012,20.485a36.314,36.314,0,0,1-23.641.969" transform="translate(-1695.699 -726.884)"/><path class="l" d="M1929.359,859.7c.4-2.608,1.829-2.161,4.467-3.2s5.6-1.046,8.465-1.039c5.87.014,21.169-.412,24.8,4.739,1.666,2.365,1.8,5.34,1.879,8.155.093,3.4.7,7.8,1.251,12.542.248,2.111.1,4.215.418,6.311a29.357,29.357,0,0,0,1.464,5.235,31.1,31.1,0,0,1-18.05,1.123c-10.693-2.632-18.791-9.287-24.563-17.94-.031-.673-.05-1.346-.1-2.019-.3-4.578-.736-9.346-.031-13.909" transform="translate(-1698.348 -726.884)"/><path class="k" d="M1859.8,706.362a71.682,71.682,0,0,1,3.146-21.446c8.7-26.637,41.928-33.218,61.939-14.1,22.312,21.323,13.773,72.305-9.729,90.215a26.37,26.37,0,0,1-22.456,4.424c-23.091-6.193-33.044-34.61-32.9-59.095" transform="translate(-1637.311 -607.053)"/><path class="l" d="M1879.937,684.916c8.7-26.637,41.928-33.218,61.939-14.1a36.293,36.293,0,0,1,6.4,8.314,26.69,26.69,0,0,1-3.51,2.521,102.072,102.072,0,0,1-27.124,11.356c-4.1,1.053-8.407,1.92-11.766,4.493a17.388,17.388,0,0,0-4.552,5.506,50.853,50.853,0,0,0-3.363,8.156c-2.073,6.049-2.983,12.409-3.824,18.722a2.93,2.93,0,0,1-.682,1.817,2.447,2.447,0,0,1-1.767.5c-3.684-.095-5.463-3.627-8.33-5.5-1.728-1.126-3.452-2.275-5.091-3.523a91.15,91.15,0,0,1-1.476-16.821,71.673,71.673,0,0,1,3.146-21.446" transform="translate(-1654.303 -607.053)"/><path class="d" d="M1916.321,688.179a51.287,51.287,0,0,0-2.278,8.522c-1.271,6.267-1.352,12.691-1.368,19.059a2.906,2.906,0,0,1-.442,1.891,2.444,2.444,0,0,1-1.685.727c-3.665.384-5.885-2.889-8.973-4.373a49.244,49.244,0,0,1-9.233-5.288c-7.966-6.243-6.145-16.544-5.893-25.7.14-5.032.291-10.136,1.763-14.949a36.818,36.818,0,0,1,8.477-13.963c10.778-11.629,27.043-17.674,42.788-16.681,7.8.491,16.59,3.791,22.146,9.4,4.793,4.841-1.046,11.417-4.994,14.551a102.084,102.084,0,0,1-25.423,14.774c-3.925,1.575-8.089,2.993-11.084,5.979a17.381,17.381,0,0,0-3.8,6.049" transform="translate(-1673.059 -593.255)"/><path class="k" d="M2042.627,779.6c-10.22-5.589-13.366,8.565-11.611,15.609a22.506,22.506,0,0,0,3.684,8.14c2.429,3.224,9.387,8.572,13.394,5.045,1.817-1.6,2.007-4.319,2.061-6.741.151-6.493-.6-18.264-7.528-22.053" transform="translate(-1815.773 -679.63)"/><path class="m" d="M2425.458,1090.743a11.816,11.816,0,0,1-.275-8.93,34.669,34.669,0,0,1,4.111-8.117,36.825,36.825,0,0,0,4.506-9.151,19.658,19.658,0,0,0-.225-10.953c-2.143-6.9-6.528-11.991-9.55-17.194a24.754,24.754,0,0,1-3.247-8.268,14.225,14.225,0,0,1,1.081-9c-2.5,2.185-3.708,5.726-3.871,9.155a23.31,23.31,0,0,0,2.045,10.069c2.623,6.269,6.556,11.359,8.09,16.861a14.792,14.792,0,0,1,.465,8c-.515,2.708-1.933,5.44-3.208,8.4a29.237,29.237,0,0,0-2.929,9.678c-.294,3.39.484,7.218,3.006,9.442" transform="translate(-2350.176 -827.141)"/><path class="c" d="M2404.365,1269.283h19.391a9.687,9.687,0,0,0,9.686-9.686V1213.76h-38.763V1259.6a9.685,9.685,0,0,0,9.686,9.686" transform="translate(-2340.117 -946.365)"/><path class="c" d="M2475.11,1246.17a17.08,17.08,0,1,1-16.83,17.078,16.957,16.957,0,0,1,16.83-17.078m0,28.066a10.989,10.989,0,1,0-10.829-10.987,10.909,10.909,0,0,0,10.829,10.987" transform="translate(-2423.255 -966.218)"/><path class="n" d="M2406.326,1253.322a2.1,2.1,0,0,0,2.1-2.1v-27.02a2.1,2.1,0,1,0-4.192,0v27.02a2.1,2.1,0,0,0,2.1,2.1" transform="translate(-2318.797 -951.48)"/><path class="j" d="M2455.239,1213.76v45.706a9.82,9.82,0,0,0,9.818,9.818h-8.949a9.818,9.818,0,0,1-9.818-9.818V1213.76Z" transform="translate(-2391.727 -946.365)"/><path class="d" d="M1932.891,628.494c1.755-4.915,4.18-9.405,6.145-13.852s3.464-8.837,3.464-13.563a23.059,23.059,0,0,0-1.48-8.052,19.892,19.892,0,0,0-18.508-13.049l-.333,0a22.034,22.034,0,0,0-10.914,2.871,45.066,45.066,0,0,0-5.564,4.175,17.606,17.606,0,0,1-6.455,3.565,20.3,20.3,0,0,1-5.308.681c-5.1,0-10.151-1.7-15.079-3.574s-9.732-3.946-14.285-4.789a31.039,31.039,0,0,0-5.664-.527,26.026,26.026,0,0,0-12.313,2.936,21.11,21.11,0,0,0-8.919,9.1,66.153,66.153,0,0,0-2.588,6.326,25.6,25.6,0,0,1-3.224,6.277,21.053,21.053,0,0,1-4.27,4.139c-2.367,1.788-4.959,3.277-7.268,4.93a17.718,17.718,0,0,0-5.594,5.833,12.917,12.917,0,0,0-1.5,6.251c-.008,4.822,2.182,10.212,5.041,15.232a136.1,136.1,0,0,0,8.884,13.127l-1.248.917a137.674,137.674,0,0,1-8.984-13.278c-2.913-5.138-5.238-10.712-5.242-16a14.5,14.5,0,0,1,1.678-6.986,16.4,16.4,0,0,1,3.75-4.546,68.539,68.539,0,0,1,7.2-5.066,24.68,24.68,0,0,0,6.312-5.483,24.189,24.189,0,0,0,3.018-5.905,66.042,66.042,0,0,1,2.654-6.475,22.665,22.665,0,0,1,9.566-9.754,27.563,27.563,0,0,1,13.045-3.12,32.577,32.577,0,0,1,5.947.553c4.8.895,9.671,3,14.556,4.865s9.771,3.476,14.525,3.473a18.759,18.759,0,0,0,4.9-.628,16.144,16.144,0,0,0,5.893-3.281,46,46,0,0,1,5.757-4.308,23.586,23.586,0,0,1,11.685-3.075l.356,0a21.45,21.45,0,0,1,19.941,14.064,24.691,24.691,0,0,1,1.573,8.587c0,5.061-1.6,9.668-3.6,14.189s-4.4,8.976-6.1,13.747Z" transform="translate(-1624.854 -557.181)"/><path class="j" d="M1979.755,872.26a51.729,51.729,0,0,0,7.555-.558l-.45-3.066a46.577,46.577,0,0,1-26.462-3.7,34.011,34.011,0,0,1-5.726-3.29,27.044,27.044,0,0,1-7.416-8.176l-2.677,1.566a30.153,30.153,0,0,0,8.275,9.121,37.183,37.183,0,0,0,6.238,3.592,49.062,49.062,0,0,0,20.662,4.507" transform="translate(-1719.6 -725.667)"/><path class="j" d="M1932.947,882.729c-3.738-3.208-12.049-2.933-14.792.4-2.03,2.469-1.411,5.6.825,7.689,2.646,2.469,5.92,2.325,9.221,1.582,4.13-.931,9.252-5.8,4.746-9.668" transform="translate(-1656.276 -742.203)"/><path class="o" d="M1968.432,631.58c-.9.023-1.8.086-2.7.054-.9.009-1.794-.043-2.689-.088-1.786-.128-3.568-.31-5.343-.574-3.549-.5-7.078-1.2-10.67-1.678a53.567,53.567,0,0,0-10.894-.5q-1.372.08-2.743.288a26.351,26.351,0,0,0-2.72.537,20.619,20.619,0,0,0-5.2,2.045,16.253,16.253,0,0,0-2.317,1.637,17.226,17.226,0,0,0-1.98,2.031,15.175,15.175,0,0,0-1.554,2.384,12.166,12.166,0,0,0-1.007,2.683,10.351,10.351,0,0,0-.294,2.868,13.609,13.609,0,0,0,.415,2.8c.205.889.426,1.746.562,2.591a9.342,9.342,0,0,1,.081,2.524,15.424,15.424,0,0,1-1.523,4.95c-.748,1.607-1.654,3.154-2.495,4.764a22.249,22.249,0,0,0-1.968,5.088,11.445,11.445,0,0,0-.306,2.715,8.392,8.392,0,0,0,.472,2.666,9.711,9.711,0,0,1,.248-5.271,22.525,22.525,0,0,1,2.224-4.831c.9-1.538,1.883-3.059,2.735-4.679a16.079,16.079,0,0,0,1.813-5.259,10.531,10.531,0,0,0,0-2.855c-.124-.936-.341-1.827-.523-2.694a12.2,12.2,0,0,1-.325-2.54,8.939,8.939,0,0,1,.3-2.478,12.984,12.984,0,0,1,6.207-7.747,23.583,23.583,0,0,1,10-2.754,56.839,56.839,0,0,1,10.647.239c3.56.375,7.125.907,10.728,1.234,1.8.155,3.607.248,5.416.249a40.778,40.778,0,0,0,5.4-.393" transform="translate(-1688.523 -587.978)"/><path class="c" d="M2044.442,770.544c14.432,3.7,20.007,30.885,3.909,36.3-17.3,5.815-29.476-19.24-18.12-31.514,4.428-4.787,9.566-5.973,14.211-4.782" transform="translate(-1821.88 -674.603)"/><path class="j" d="M2055.669,780.07c9.961,1.6,16.1,22.763,5.83,28.588-11.03,6.259-21.382-12.587-14.893-23.443,2.53-4.233,5.858-5.661,9.062-5.146" transform="translate(-1837.838 -680.64)"/><path class="c" d="M1924.173,665.11l3.847-.445c-2.607-22.562-1.5-51.389,18.628-60.6,9.531-4.36,18.225-7.486,33.719-4.438a14.776,14.776,0,0,0,4.006-1.143c-14.01-6.845-29.05-2.649-39.336,2.057-22.243,10.176-23.622,40.727-20.863,64.564" transform="translate(-1708.353 -567.267)"/><path class="p" d="M2368.578,620.027H2241.534a15.931,15.931,0,0,1-15.885-15.885V539.477a15.931,15.931,0,0,1,15.885-15.885h127.044a15.931,15.931,0,0,1,15.885,15.885v64.666a15.931,15.931,0,0,1-15.885,15.885" transform="translate(-2225.65 -523.592)"/><path class="p" d="M2314.31,767.952V723.636l-34.71,18.931Z" transform="translate(-2176.399 -646.132)"/><path class="q" d="M2291.577,645.952h71.644a3.5,3.5,0,0,0,3.487-3.487v-1.44a3.5,3.5,0,0,0-3.487-3.487h-71.644a3.5,3.5,0,0,0-3.487,3.487v1.44a3.5,3.5,0,0,0,3.487,3.487" transform="translate(-2232.087 -593.391)"/><path class="q" d="M2510.1,645.952h18.795a3.5,3.5,0,0,0,3.487-3.487v-1.44a3.5,3.5,0,0,0-3.487-3.487H2510.1a3.5,3.5,0,0,0-3.487,3.487v1.44a3.5,3.5,0,0,0,3.487,3.487" transform="translate(-2482.419 -593.391)"/><path class="q" d="M2445.332,588.222h-71.645a3.5,3.5,0,0,0-3.487,3.487v1.44a3.5,3.5,0,0,0,3.487,3.487h71.645a3.5,3.5,0,0,0,3.487-3.487v-1.44a3.5,3.5,0,0,0-3.487-3.487" transform="translate(-2346.009 -563.182)"/><path class="q" d="M2310.372,588.222h-18.794a3.5,3.5,0,0,0-3.487,3.487v1.44a3.5,3.5,0,0,0,3.487,3.487h18.794a3.5,3.5,0,0,0,3.487-3.487v-1.44a3.5,3.5,0,0,0-3.487-3.487" transform="translate(-2179.237 -563.182)"/><path class="q" d="M2291.577,691.037h48.24a3.5,3.5,0,0,0,3.487-3.487v-1.44a3.5,3.5,0,0,0-3.487-3.487h-48.24a3.5,3.5,0,0,0-3.487,3.487v1.44a3.5,3.5,0,0,0,3.487,3.487" transform="translate(-2208.681 -621.009)"/></g></svg>