<svg xmlns="http://www.w3.org/2000/svg" width="150" height="53.812" viewBox="0 0 150 53.812"><defs><style>.a{fill:#fff;}.b{fill:#05d3d8;}</style></defs><path class="a" d="M61.394,53.6h-8.48V18h8.261v4.751a10.4,10.4,0,0,1,4.641-4.424A14.342,14.342,0,0,1,77.4,18.073a10.806,10.806,0,0,1,3.985,3.035,13.491,13.491,0,0,1,2.375,4.5,18.186,18.186,0,0,1,.8,5.481V53.6h-8.48V32.549a9.372,9.372,0,0,0-1.644-5.592q-1.645-2.3-5.666-2.3a6.507,6.507,0,0,0-5.52,2.449,9.549,9.549,0,0,0-1.864,5.958Z" transform="translate(-3.138 -1.007)"/><path class="a" d="M128.853,43.436a16.567,16.567,0,0,1-2.12,4.386,14.945,14.945,0,0,1-3.435,3.583,16.322,16.322,0,0,1-4.679,2.411,18.375,18.375,0,0,1-5.848.879,19.005,19.005,0,0,1-6.945-1.279,16.834,16.834,0,0,1-5.775-3.728,18.312,18.312,0,0,1-3.985-6,20.578,20.578,0,0,1-1.5-8.079,19.9,19.9,0,0,1,1.424-7.675,18.261,18.261,0,0,1,3.838-5.885,17.359,17.359,0,0,1,5.558-3.8,16.3,16.3,0,0,1,6.506-1.353,19.459,19.459,0,0,1,7.347,1.316,15.027,15.027,0,0,1,5.482,3.728,16.214,16.214,0,0,1,3.4,5.812,23.448,23.448,0,0,1,1.169,7.639c0,.684-.026,1.279-.073,1.792a3.9,3.9,0,0,1-.147.912H103.047a9.274,9.274,0,0,0,.878,3.728,9.741,9.741,0,0,0,2.12,2.926,9.584,9.584,0,0,0,3.033,1.936,9.746,9.746,0,0,0,3.692.7,8.872,8.872,0,0,0,5.958-1.792,9.823,9.823,0,0,0,2.961-4.422Zm-8.114-11.55a9.4,9.4,0,0,0-.622-2.96,7.168,7.168,0,0,0-1.644-2.522,8.129,8.129,0,0,0-2.705-1.754,9.989,9.989,0,0,0-3.8-.658,8.707,8.707,0,0,0-3.546.694,8.409,8.409,0,0,0-2.669,1.828A9.23,9.23,0,0,0,104,29.072a7.671,7.671,0,0,0-.73,2.815Z" transform="translate(-5.609 -1.003)"/><path class="a" d="M150.586,17.379h7.384v7.529h-7.384V41.431a4.552,4.552,0,0,0,1.1,3.4,4.786,4.786,0,0,0,3.435,1.061,13.931,13.931,0,0,0,1.756-.111q.876-.109,1.168-.182v7.018c-.245.1-.78.255-1.608.475a14.863,14.863,0,0,1-3.582.329,10.723,10.723,0,0,1-7.822-2.779q-2.853-2.774-2.852-7.822V24.909H135.6V17.379h1.828a5.074,5.074,0,0,0,4.167-1.609,6.031,6.031,0,0,0,1.316-3.947V6.487h7.676Z" transform="translate(-8.042 -0.384)"/><path class="b" d="M31.777,0V17.445a20.011,20.011,0,0,0-11.84-3.785A19.872,19.872,0,0,0,5.851,19.344,20.013,20.013,0,0,0,0,33.736,20.053,20.053,0,0,0,5.8,48.075a19.839,19.839,0,0,0,14.139,5.737c11.366,0,19.938-8.631,19.938-20.076V0Zm-.07,33.736c0,7.143-4.951,12.327-11.771,12.327S8.166,40.879,8.166,33.736c0-7.028,5.06-12.327,11.77-12.327s11.771,5.3,11.771,12.327"/><rect class="b" width="19.079" height="7.501" transform="translate(49.776)"/></svg>