<svg xmlns="http://www.w3.org/2000/svg" width="60" height="54.609" viewBox="0 0 60 54.609"><defs><style>.a{fill:#00759b;}</style></defs><path class="a" d="M57.656,47.93A2.344,2.344,0,0,0,60,45.586V23.2a9.385,9.385,0,0,0-9.375-9.375h-4.8V9.375A9.385,9.385,0,0,0,36.445,0H9.375A9.385,9.385,0,0,0,0,9.375V26.85a9.385,9.385,0,0,0,9.375,9.375H20.742v4.688H15.352a2.344,2.344,0,1,0,0,4.687H30.126a9.385,9.385,0,0,0,9.366,9.009H50.625A9.385,9.385,0,0,0,60,45.234a2.344,2.344,0,1,0-4.687,0,4.693,4.693,0,0,1-4.687,4.688H39.492A4.693,4.693,0,0,1,34.8,45.234V23.2a4.693,4.693,0,0,1,4.688-4.687H50.625A4.693,4.693,0,0,1,55.312,23.2V45.586a2.344,2.344,0,0,0,2.344,2.344ZM25.43,36.225h4.688v4.688H25.43ZM30.117,23.2v8.335H9.375A4.693,4.693,0,0,1,4.687,26.85V9.375A4.693,4.693,0,0,1,9.375,4.688h27.07a4.693,4.693,0,0,1,4.688,4.688v4.453H39.492A9.385,9.385,0,0,0,30.117,23.2ZM47.344,41.6a2.344,2.344,0,0,1,0,4.687h-4.57a2.344,2.344,0,1,1,0-4.687Zm0,0"/></svg>