<svg xmlns="http://www.w3.org/2000/svg" width="539" height="447" viewBox="0 0 539 447"><defs><style>.a{fill:#f5f5f5;}.b{mix-blend-mode:multiply;isolation:isolate;}.c{fill:#22b0ac;}.d{fill:#ec4e45;}</style></defs><g transform="translate(-39 -400)"><path class="a" d="M269.5,0C418.341,0,539,25.072,539,56s-120.659,56-269.5,56S0,86.928,0,56,120.659,0,269.5,0Z" transform="translate(39 735)"/><g transform="translate(-259.183 278.721)"><g class="b" transform="translate(637.941 130.821)"><path class="c" d="M479.522,188.377a11.061,11.061,0,0,1,0-15.635,21.888,21.888,0,0,0,0-30.922,11.056,11.056,0,0,1,15.635-15.635,44.026,44.026,0,0,1,0,62.192A11.061,11.061,0,0,1,479.522,188.377Z" transform="translate(-476.287 -122.949)"/></g><g class="b" transform="translate(637.359 177.557)"><path class="c" d="M520.159,186.153A11.053,11.053,0,0,1,509.107,175.1a21.886,21.886,0,0,0-21.864-21.864,11.055,11.055,0,1,1,0-22.11A44.024,44.024,0,0,1,531.217,175.1,11.054,11.054,0,0,1,520.159,186.153Z" transform="translate(-476.185 -131.127)"/></g><g class="b" transform="translate(637.359 209.336)"><path class="c" d="M476.185,180.662A11.063,11.063,0,0,1,487.243,169.6a21.89,21.89,0,0,0,21.864-21.864,11.055,11.055,0,0,1,22.11,0,44.029,44.029,0,0,1-43.974,43.98A11.063,11.063,0,0,1,476.185,180.662Z" transform="translate(-476.185 -136.688)"/></g><g class="b" transform="translate(637.359 242.304)"><path class="c" d="M479.425,207.884a11.061,11.061,0,0,1,0-15.635,21.882,21.882,0,0,0,0-30.916A11.056,11.056,0,0,1,495.06,145.7a44.024,44.024,0,0,1,0,62.187A11.051,11.051,0,0,1,479.425,207.884Z" transform="translate(-476.185 -142.457)"/></g><g class="b" transform="translate(591.025 287.476)"><path class="c" d="M471.317,153.6a11.055,11.055,0,0,1,15.63,0,21.888,21.888,0,0,0,30.922,0A11.056,11.056,0,0,1,533.5,169.233a44.024,44.024,0,0,1-62.187,0A11.051,11.051,0,0,1,471.317,153.6Z" transform="translate(-468.077 -150.362)"/></g><g class="b" transform="translate(544.782 287.476)"><path class="c" d="M463.225,153.6a11.054,11.054,0,0,1,15.629,0,21.888,21.888,0,0,0,30.922,0,11.056,11.056,0,0,1,15.635,15.635,44.024,44.024,0,0,1-62.187,0A11.051,11.051,0,0,1,463.225,153.6Z" transform="translate(-459.985 -150.362)"/></g><g class="b" transform="translate(511.706 287.478)"><path class="c" d="M454.2,194.336a11.054,11.054,0,0,1,11.052-11.058,21.886,21.886,0,0,0,21.864-21.864,11.055,11.055,0,0,1,22.11,0,44.024,44.024,0,0,1-43.974,43.974A11.053,11.053,0,0,1,454.2,194.336Z" transform="translate(-454.197 -150.362)"/></g><g class="b" transform="translate(478.744 287.478)"><path class="c" d="M459.487,150.362a11.058,11.058,0,0,1,11.058,11.052,21.886,21.886,0,0,0,21.864,21.864,11.055,11.055,0,0,1,0,22.11,44.025,44.025,0,0,1-43.98-43.974A11.058,11.058,0,0,1,459.487,150.362Z" transform="translate(-448.429 -150.362)"/></g><g class="b" transform="translate(441.999 266.522)"><path class="c" d="M470.492,149.935a11.051,11.051,0,0,1,0,15.635,21.881,21.881,0,0,0,0,30.916,11.056,11.056,0,0,1-15.635,15.635,44.025,44.025,0,0,1,0-62.187A11.051,11.051,0,0,1,470.492,149.935Z" transform="translate(-441.999 -146.695)"/></g><g class="b" transform="translate(591.025 121.279)"><path class="c" d="M533.5,149.772a11.051,11.051,0,0,1-15.635,0,21.888,21.888,0,0,0-30.922,0,11.054,11.054,0,0,1-15.63-15.635,44.024,44.024,0,0,1,62.187,0A11.051,11.051,0,0,1,533.5,149.772Z" transform="translate(-468.077 -121.279)"/></g><g class="b" transform="translate(544.782 122.414)"><path class="c" d="M525.412,149.973a11.061,11.061,0,0,1-15.635,0,21.888,21.888,0,0,0-30.922,0,11.054,11.054,0,0,1-15.629-15.635,44.019,44.019,0,0,1,62.187,0A11.061,11.061,0,0,1,525.412,149.973Z" transform="translate(-459.985 -121.478)"/></g><g class="b" transform="translate(535.628 130.821)"><path class="c" d="M486.876,126.185a11.061,11.061,0,0,1,0,15.635,21.888,21.888,0,0,0,0,30.922,11.056,11.056,0,1,1-15.635,15.635,44.031,44.031,0,0,1,0-62.192A11.061,11.061,0,0,1,486.876,126.185Z" transform="translate(-458.383 -122.949)"/></g><g class="b" transform="translate(511.706 177.557)"><path class="c" d="M509.223,142.179a11.054,11.054,0,0,1-11.052,11.058A21.886,21.886,0,0,0,476.307,175.1a11.055,11.055,0,1,1-22.11,0,44.021,44.021,0,0,1,43.974-43.974A11.053,11.053,0,0,1,509.223,142.179Z" transform="translate(-454.197 -131.127)"/></g><g class="b" transform="translate(478.693 177.557)"><path class="c" d="M492.394,186.153A11.058,11.058,0,0,1,481.336,175.1a21.886,21.886,0,0,0-21.864-21.864,11.055,11.055,0,0,1,0-22.11A44.024,44.024,0,0,1,503.446,175.1,11.053,11.053,0,0,1,492.394,186.153Z" transform="translate(-448.42 -131.127)"/></g><g class="b" transform="translate(446.811 177.557)"><path class="c" d="M497.867,142.179a11.054,11.054,0,0,1-11.052,11.058A21.887,21.887,0,0,0,464.951,175.1a11.055,11.055,0,1,1-22.11,0,44.024,44.024,0,0,1,43.974-43.974A11.053,11.053,0,0,1,497.867,142.179Z" transform="translate(-442.841 -131.127)"/></g><g class="b" transform="translate(446.811 209.336)"><path class="c" d="M453.893,136.688a11.054,11.054,0,0,1,11.058,11.052A21.887,21.887,0,0,0,486.815,169.6a11.055,11.055,0,1,1,0,22.11,44.02,44.02,0,0,1-43.974-43.974A11.053,11.053,0,0,1,453.893,136.688Z" transform="translate(-442.841 -136.688)"/></g><g class="b" transform="translate(568.058 296.707)"><path class="d" d="M475.116,342.434a11.054,11.054,0,0,1-11.058-11.052V163.035a11.055,11.055,0,1,1,22.11,0V331.382A11.053,11.053,0,0,1,475.116,342.434Z" transform="translate(-464.058 -151.977)"/></g><g class="b" transform="translate(549.077 487.716)"><path class="c" d="M485.472,196.177a4.184,4.184,0,0,1-5.909,0,8.278,8.278,0,0,0-11.692,0,4.18,4.18,0,0,1-5.909-5.915,16.645,16.645,0,0,1,23.51,0A4.18,4.18,0,0,1,485.472,196.177Z" transform="translate(-460.736 -185.401)"/></g><g class="b" transform="translate(567.467 491.584)"><path class="c" d="M465.18,187.3a4.174,4.174,0,0,1,5.909,0,8.278,8.278,0,0,0,11.692,0,4.178,4.178,0,0,1,5.909,5.909,16.635,16.635,0,0,1-23.51,0A4.174,4.174,0,0,1,465.18,187.3Z" transform="translate(-463.954 -186.078)"/></g><g class="b" transform="translate(530.897 491.584)"><path class="c" d="M458.777,187.3a4.18,4.18,0,0,1,5.915,0,8.271,8.271,0,0,0,11.687,0,4.18,4.18,0,0,1,5.915,5.909,16.642,16.642,0,0,1-23.516,0A4.184,4.184,0,0,1,458.777,187.3Z" transform="translate(-457.555 -186.078)"/></g><g class="b" transform="translate(512.508 487.716)"><path class="c" d="M479.069,196.177a4.184,4.184,0,0,1-5.909,0,8.271,8.271,0,0,0-11.687,0,4.182,4.182,0,0,1-5.915-5.915,16.646,16.646,0,0,1,23.51,0A4.181,4.181,0,0,1,479.069,196.177Z" transform="translate(-454.337 -185.401)"/></g><g class="b" transform="translate(494.394 491.584)"><path class="c" d="M452.393,187.3a4.174,4.174,0,0,1,5.909,0,8.278,8.278,0,0,0,11.692,0,4.178,4.178,0,0,1,5.909,5.909,16.635,16.635,0,0,1-23.51,0A4.174,4.174,0,0,1,452.393,187.3Z" transform="translate(-451.167 -186.078)"/></g><g class="b" transform="translate(601.303 493.522)"><path class="c" d="M471.1,187.643a4.173,4.173,0,0,1,5.909,0,8.288,8.288,0,0,0,11.692,0,4.178,4.178,0,0,1,5.909,5.909,16.645,16.645,0,0,1-23.51,0A4.173,4.173,0,0,1,471.1,187.643Z" transform="translate(-469.875 -186.417)"/></g><g class="b" transform="translate(582.913 489.653)"><path class="c" d="M491.393,196.51a4.173,4.173,0,0,1-5.909,0,8.278,8.278,0,0,0-11.692,0,4.178,4.178,0,0,1-5.909-5.909,16.645,16.645,0,0,1,23.51,0A4.174,4.174,0,0,1,491.393,196.51Z" transform="translate(-466.657 -185.74)"/></g><g class="b" transform="translate(619.486 489.653)"><path class="c" d="M497.794,196.51a4.18,4.18,0,0,1-5.915,0,8.271,8.271,0,0,0-11.687,0,4.18,4.18,0,0,1-5.915-5.909,16.652,16.652,0,0,1,23.516,0A4.184,4.184,0,0,1,497.794,196.51Z" transform="translate(-473.057 -185.74)"/></g><g class="b" transform="translate(658.598 362.759)"><path class="c" d="M481.127,188.271a4.173,4.173,0,0,1,0-5.909,8.278,8.278,0,0,0,0-11.692,4.178,4.178,0,0,1,5.909-5.909,16.646,16.646,0,0,1,0,23.51A4.173,4.173,0,0,1,481.127,188.271Z" transform="translate(-479.902 -163.535)"/></g><g class="b" transform="translate(658.699 345.871)"><path class="c" d="M481.146,185.317a4.181,4.181,0,0,1,0-5.915,8.276,8.276,0,0,0-.006-11.686,4.182,4.182,0,1,1,5.915-5.915,16.652,16.652,0,0,1,0,23.516A4.184,4.184,0,0,1,481.146,185.317Z" transform="translate(-479.919 -160.58)"/></g><g class="b" transform="translate(641.584 342.342)"><path class="c" d="M501.661,170.736a4.181,4.181,0,0,1-5.915,0,8.271,8.271,0,0,0-11.686,0,4.18,4.18,0,0,1-5.915-5.909,16.642,16.642,0,0,1,23.516,0A4.184,4.184,0,0,1,501.661,170.736Z" transform="translate(-476.924 -159.963)"/></g><g class="b" transform="translate(629.319 333.538)"><path class="c" d="M491.4,179.223a4.179,4.179,0,0,1-4.177-4.177,8.276,8.276,0,0,0-8.263-8.269,4.177,4.177,0,1,1,0-8.355,16.643,16.643,0,0,1,16.624,16.624A4.18,4.18,0,0,1,491.4,179.223Z" transform="translate(-474.778 -158.422)"/></g><g class="b" transform="translate(614.495 333.538)"><path class="c" d="M492.991,162.6a4.18,4.18,0,0,1-4.183,4.177,8.276,8.276,0,0,0-8.263,8.269,4.18,4.18,0,0,1-8.361,0,16.643,16.643,0,0,1,16.624-16.624A4.18,4.18,0,0,1,492.991,162.6Z" transform="translate(-472.184 -158.422)"/></g><g class="b" transform="translate(640.791 380.502)"><path class="c" d="M478.011,167.862a4.184,4.184,0,0,1,5.909,0,8.278,8.278,0,0,0,11.692,0,4.18,4.18,0,1,1,5.909,5.915,16.646,16.646,0,0,1-23.51,0A4.181,4.181,0,0,1,478.011,167.862Z" transform="translate(-476.786 -166.64)"/></g><g class="b" transform="translate(627.845 380.5)"><path class="c" d="M474.52,183.264a4.18,4.18,0,0,1,4.183-4.177,8.276,8.276,0,0,0,8.263-8.269,4.18,4.18,0,0,1,8.361,0,16.644,16.644,0,0,1-16.624,16.63A4.185,4.185,0,0,1,474.52,183.264Z" transform="translate(-474.52 -166.64)"/></g><g class="b" transform="translate(615.97 380.5)"><path class="c" d="M476.619,166.64a4.185,4.185,0,0,1,4.183,4.183,8.275,8.275,0,0,0,8.263,8.263,4.18,4.18,0,1,1,0,8.361,16.643,16.643,0,0,1-16.624-16.624A4.18,4.18,0,0,1,476.619,166.64Z" transform="translate(-472.442 -166.64)"/></g><g class="b" transform="translate(598.651 380.502)"><path class="c" d="M470.637,167.862a4.184,4.184,0,0,1,5.909,0,8.278,8.278,0,0,0,11.692,0,4.18,4.18,0,1,1,5.909,5.915,16.646,16.646,0,0,1-23.51,0A4.18,4.18,0,0,1,470.637,167.862Z" transform="translate(-469.411 -166.64)"/></g><g class="b" transform="translate(594.234 362.759)"><path class="c" d="M479.413,164.761a4.184,4.184,0,0,1,0,5.909,8.278,8.278,0,0,0,0,11.692,4.18,4.18,0,1,1-5.914,5.909,16.645,16.645,0,0,1,0-23.51A4.18,4.18,0,0,1,479.413,164.761Z" transform="translate(-468.638 -163.535)"/></g><g class="b" transform="translate(594.234 345.871)"><path class="c" d="M479.413,161.8a4.191,4.191,0,0,1,0,5.915,8.271,8.271,0,0,0,0,11.686,4.182,4.182,0,0,1-5.914,5.915,16.652,16.652,0,0,1,0-23.516A4.19,4.19,0,0,1,479.413,161.8Z" transform="translate(-468.638 -160.58)"/></g><g class="b" transform="translate(597.177 342.342)"><path class="c" d="M493.889,170.736a4.173,4.173,0,0,1-5.909,0,8.278,8.278,0,0,0-11.692,0,4.178,4.178,0,0,1-5.909-5.909,16.635,16.635,0,0,1,23.51,0A4.174,4.174,0,0,1,493.889,170.736Z" transform="translate(-469.153 -159.963)"/></g><g class="b" transform="translate(593.45 396.956)"><path class="d" d="M469.723,170.745a4.18,4.18,0,0,1,5.915,0,8.271,8.271,0,0,0,11.687,0,4.18,4.18,0,0,1,5.915,5.909,16.642,16.642,0,0,1-23.516,0A4.184,4.184,0,0,1,469.723,170.745Z" transform="translate(-468.501 -169.519)"/></g></g></g></svg>